<svg version="1.2" xmlns="http://www.w3.org/2000/svg" viewBox="0 0 400 410" width="400" height="410">
	<title>frame5</title>
	<defs>
		<linearGradient id="g1" x1="-9.2" y1="415" x2="-9.2" y2="20.6" gradientUnits="userSpaceOnUse">
			<stop offset="0" stop-color="#ca6b34"/>
			<stop offset=".7" stop-color="#ffa933"/>
			<stop offset="1" stop-color="#ffbd2b"/>
		</linearGradient>
		<linearGradient id="g2" x1="186.2" y1="324.5" x2="148.2" y2="410.4" gradientUnits="userSpaceOnUse">
			<stop offset="0" stop-color="#ca6b34"/>
			<stop offset=".6" stop-color="#ffbd2b"/>
			<stop offset="1" stop-color="#ffa933"/>
		</linearGradient>
		<linearGradient id="g3" x1="126.3" y1="388.1" x2="126.3" y2="323.4" gradientUnits="userSpaceOnUse">
			<stop offset="0" stop-color="#ca6b34"/>
			<stop offset=".7" stop-color="#ffbd2b"/>
			<stop offset="1" stop-color="#ffa933"/>
		</linearGradient>
		<linearGradient id="g4" x1="103.1" y1="388.1" x2="138" y2="313.8" gradientUnits="userSpaceOnUse">
			<stop offset="0" stop-color="#ffffff"/>
			<stop offset=".4" stop-color="#ed8a1d"/>
			<stop offset="1" stop-color="#b41e2d"/>
		</linearGradient>
		<linearGradient id="g5" x1="257.5" y1="299.4" x2="301.6" y2="404.3" gradientUnits="userSpaceOnUse">
			<stop offset="0" stop-color="#ca6b34"/>
			<stop offset=".6" stop-color="#ffbd2b"/>
			<stop offset="1" stop-color="#ffa933"/>
		</linearGradient>
		<linearGradient id="g6" x1="245" y1="388.1" x2="245" y2="323.4" gradientUnits="userSpaceOnUse">
			<stop offset="0" stop-color="#ca6b34"/>
			<stop offset=".7" stop-color="#ffbd2b"/>
			<stop offset="1" stop-color="#ffa933"/>
		</linearGradient>
		<linearGradient id="g7" x1="246.7" y1="401.1" x2="221.1" y2="324.1" gradientUnits="userSpaceOnUse">
			<stop offset="0" stop-color="#ffffff"/>
			<stop offset=".4" stop-color="#ed8a1d"/>
			<stop offset="1" stop-color="#b41e2d"/>
		</linearGradient>
		<linearGradient id="g8" x1="161.3" y1="27.6" x2="189.8" y2="90.2" gradientUnits="userSpaceOnUse">
			<stop offset="0" stop-color="#ca6b34"/>
			<stop offset=".6" stop-color="#ffbd2b"/>
			<stop offset="1" stop-color="#ffa933"/>
		</linearGradient>
		<linearGradient id="g9" x1="147.1" y1=".5" x2="172.3" y2="64.2" gradientUnits="userSpaceOnUse">
			<stop offset="0" stop-color="#ca6b34"/>
			<stop offset=".7" stop-color="#ffa933"/>
			<stop offset="1" stop-color="#ffbd2b"/>
		</linearGradient>
		<linearGradient id="g10" x1="142.5" y1="101.7" x2="95.1" y2="7" gradientUnits="userSpaceOnUse">
			<stop offset="0" stop-color="#ffffff"/>
			<stop offset=".4" stop-color="#ed8a1d"/>
			<stop offset="1" stop-color="#b41e2d"/>
		</linearGradient>
		<linearGradient id="g11" x1="132.8" y1="-40.4" x2="165.9" y2="55.1" gradientUnits="userSpaceOnUse">
			<stop offset="0" stop-color="#ebbd38"/>
			<stop offset="1" stop-color="#000000"/>
		</linearGradient>
		<linearGradient id="g12" x1="238.7" y1="54.3" x2="210.3" y2="-8.3" gradientUnits="userSpaceOnUse">
			<stop offset="0" stop-color="#ca6b34"/>
			<stop offset=".6" stop-color="#ffbd2b"/>
			<stop offset="1" stop-color="#ffa933"/>
		</linearGradient>
		<linearGradient id="g13" x1="253" y1="82.1" x2="227.7" y2="18.4" gradientUnits="userSpaceOnUse">
			<stop offset="0" stop-color="#ca6b34"/>
			<stop offset=".7" stop-color="#ffa933"/>
			<stop offset="1" stop-color="#ffbd2b"/>
		</linearGradient>
		<linearGradient id="g14" x1="257.6" y1="-20.7" x2="305" y2="74" gradientUnits="userSpaceOnUse">
			<stop offset="0" stop-color="#ffffff"/>
			<stop offset=".4" stop-color="#ed8a1d"/>
			<stop offset="1" stop-color="#b41e2d"/>
		</linearGradient>
		<linearGradient id="g15" x1="267.3" y1="84.4" x2="234.2" y2="-11.1" gradientUnits="userSpaceOnUse">
			<stop offset="0" stop-color="#ebbd38"/>
			<stop offset="1" stop-color="#000000"/>
		</linearGradient>
		<linearGradient id="g16" x1="312.2" y1="123.8" x2="339.1" y2="51.8" gradientUnits="userSpaceOnUse">
			<stop offset="0" stop-color="#ca6b34"/>
			<stop offset=".6" stop-color="#ffbd2b"/>
			<stop offset="1" stop-color="#ffa933"/>
		</linearGradient>
		<linearGradient id="g17" x1="301.1" y1="157.2" x2="333.1" y2="82.9" gradientUnits="userSpaceOnUse">
			<stop offset="0" stop-color="#ca6b34"/>
			<stop offset=".7" stop-color="#ffa933"/>
			<stop offset="1" stop-color="#ffbd2b"/>
		</linearGradient>
		<linearGradient id="g18" x1="423.5" y1="95.6" x2="387.9" y2="202.8" gradientUnits="userSpaceOnUse">
			<stop offset="0" stop-color="#ffffff"/>
			<stop offset=".4" stop-color="#ed8a1d"/>
			<stop offset="1" stop-color="#b41e2d"/>
		</linearGradient>
		<linearGradient id="g19" x1="315.1" y1="167.1" x2="361.4" y2="69.1" gradientUnits="userSpaceOnUse">
			<stop offset="0" stop-color="#ebbd38"/>
			<stop offset="1" stop-color="#000000"/>
		</linearGradient>
		<linearGradient id="g20" x1="347.9" y1="313.4" x2="283.8" y2="289.3" gradientUnits="userSpaceOnUse">
			<stop offset="0" stop-color="#ca6b34"/>
			<stop offset=".6" stop-color="#ffbd2b"/>
			<stop offset="1" stop-color="#ffa933"/>
		</linearGradient>
		<linearGradient id="g21" x1="378.1" y1="324.6" x2="310.8" y2="295.4" gradientUnits="userSpaceOnUse">
			<stop offset="0" stop-color="#ca6b34"/>
			<stop offset=".7" stop-color="#ffa933"/>
			<stop offset="1" stop-color="#ffbd2b"/>
		</linearGradient>
		<linearGradient id="g22" x1="323.5" y1="214.6" x2="419.3" y2="246.7" gradientUnits="userSpaceOnUse">
			<stop offset="0" stop-color="#ffffff"/>
			<stop offset=".4" stop-color="#ed8a1d"/>
			<stop offset="1" stop-color="#b41e2d"/>
		</linearGradient>
		<linearGradient id="g23" x1="411.5" y1="336.9" x2="328.4" y2="295.6" gradientUnits="userSpaceOnUse">
			<stop offset="0" stop-color="#ebbd38"/>
			<stop offset="1" stop-color="#000000"/>
		</linearGradient>
		<linearGradient id="g24" x1="51.3" y1="94.8" x2="115.5" y2="118.9" gradientUnits="userSpaceOnUse">
			<stop offset="0" stop-color="#ca6b34"/>
			<stop offset=".6" stop-color="#ffbd2b"/>
			<stop offset="1" stop-color="#ffa933"/>
		</linearGradient>
		<linearGradient id="g25" x1="21.1" y1="83.5" x2="88.3" y2="112.8" gradientUnits="userSpaceOnUse">
			<stop offset="0" stop-color="#ca6b34"/>
			<stop offset=".7" stop-color="#ffa933"/>
			<stop offset="1" stop-color="#ffbd2b"/>
		</linearGradient>
		<linearGradient id="g26" x1="75.7" y1="193.6" x2="-20.1" y2="161.5" gradientUnits="userSpaceOnUse">
			<stop offset="0" stop-color="#ffffff"/>
			<stop offset=".4" stop-color="#ed8a1d"/>
			<stop offset="1" stop-color="#b41e2d"/>
		</linearGradient>
		<linearGradient id="g27" x1="-12.1" y1="70.3" x2="72" y2="112.1" gradientUnits="userSpaceOnUse">
			<stop offset="0" stop-color="#ebbd38"/>
			<stop offset="1" stop-color="#000000"/>
		</linearGradient>
		<linearGradient id="g28" x1="86.9" y1="284.4" x2="60.1" y2="356.4" gradientUnits="userSpaceOnUse">
			<stop offset="0" stop-color="#ca6b34"/>
			<stop offset=".6" stop-color="#ffbd2b"/>
			<stop offset="1" stop-color="#ffa933"/>
		</linearGradient>
		<linearGradient id="g29" x1="98.1" y1="250.9" x2="66.1" y2="325.2" gradientUnits="userSpaceOnUse">
			<stop offset="0" stop-color="#ca6b34"/>
			<stop offset=".7" stop-color="#ffa933"/>
			<stop offset="1" stop-color="#ffbd2b"/>
		</linearGradient>
		<linearGradient id="g30" x1="-24.3" y1="312.6" x2="11.4" y2="205.3" gradientUnits="userSpaceOnUse">
			<stop offset="0" stop-color="#ffffff"/>
			<stop offset=".4" stop-color="#ed8a1d"/>
			<stop offset="1" stop-color="#b41e2d"/>
		</linearGradient>
		<linearGradient id="g31" x1="84.1" y1="241.1" x2="37.8" y2="339.1" gradientUnits="userSpaceOnUse">
			<stop offset="0" stop-color="#ebbd38"/>
			<stop offset="1" stop-color="#000000"/>
		</linearGradient>
		<linearGradient id="g32" x1="225.6" y1="240.3" x2="225.6" y2="389" gradientUnits="userSpaceOnUse">
			<stop offset="0" stop-color="#ffffff"/>
			<stop offset=".4" stop-color="#ed8a1d"/>
			<stop offset="1" stop-color="#b41e2d"/>
		</linearGradient>
		<linearGradient id="g33" x1="230.7" y1="41.5" x2="230.7" y2="113" gradientUnits="userSpaceOnUse">
			<stop offset="0" stop-color="#ebbd38"/>
			<stop offset="1" stop-color="#000000"/>
		</linearGradient>
		<linearGradient id="g34" x1="338" y1="58.3" x2="338" y2="366" gradientUnits="userSpaceOnUse">
			<stop offset="0" stop-color="#ca6b34"/>
			<stop offset=".6" stop-color="#ffbd2b"/>
			<stop offset="1" stop-color="#ffa933"/>
		</linearGradient>
		<linearGradient id="g35" x1="192.4" y1="378.3" x2="192.4" y2="299.1" gradientUnits="userSpaceOnUse">
			<stop offset="0" stop-color="#ebbd38"/>
			<stop offset="1" stop-color="#000000"/>
		</linearGradient>
		<linearGradient id="g36" x1="192.4" y1="344" x2="192.4" y2="282.3" gradientUnits="userSpaceOnUse">
			<stop offset="0" stop-color="#ffffff"/>
			<stop offset="1" stop-color="#fff7c4"/>
		</linearGradient>
		<linearGradient id="g37" x1="176.3" y1="163.7" x2="176.3" y2="68.6" gradientUnits="userSpaceOnUse">
			<stop offset="0" stop-color="#ffffff"/>
			<stop offset=".4" stop-color="#ed8a1d"/>
			<stop offset="1" stop-color="#b41e2d"/>
		</linearGradient>
		<radialGradient id="g38" cx="141.2" cy="356.5" r="28.9" gradientUnits="userSpaceOnUse">
			<stop offset="0" stop-color="#e75a29"/>
			<stop offset="1" stop-color="#000000"/>
		</radialGradient>
		<linearGradient id="g39" x1="296.8" y1="234.6" x2="296.8" y2="147.6" gradientUnits="userSpaceOnUse">
			<stop offset="0" stop-color="#ffffff"/>
			<stop offset=".4" stop-color="#ed8a1d"/>
			<stop offset="1" stop-color="#b41e2d"/>
		</linearGradient>
		<linearGradient id="g40" x1="463.4" y1="212" x2="463.4" y2="297.3" gradientUnits="userSpaceOnUse">
			<stop offset="0" stop-color="#ebbd38"/>
			<stop offset="1" stop-color="#000000"/>
		</linearGradient>
		<linearGradient id="g41" x1="96.3" y1="212.1" x2="96.3" y2="296.5" gradientUnits="userSpaceOnUse">
			<stop offset="0" stop-color="#ebbd38"/>
			<stop offset="1" stop-color="#000000"/>
		</linearGradient>
		<linearGradient id="g42" x1="-70.9" y1="234.6" x2="-70.9" y2="147.6" gradientUnits="userSpaceOnUse">
			<stop offset="0" stop-color="#ffffff"/>
			<stop offset=".4" stop-color="#ed8a1d"/>
			<stop offset="1" stop-color="#b41e2d"/>
		</linearGradient>
		<linearGradient id="g43" x1="142" y1="433.8" x2="142" y2="373.4" gradientUnits="userSpaceOnUse">
			<stop offset="0" stop-color="#d16509"/>
			<stop offset="1" stop-color="#8d2c1b"/>
		</linearGradient>
		<linearGradient id="g44" x1="238.8" y1="433.8" x2="238.8" y2="373.4" gradientUnits="userSpaceOnUse">
			<stop offset="0" stop-color="#d16509"/>
			<stop offset="1" stop-color="#8d2c1b"/>
		</linearGradient>
		<linearGradient id="g45" x1="323.5" y1="245.2" x2="323.5" y2="182.4" gradientUnits="userSpaceOnUse">
			<stop offset="0" stop-color="#ca6b34"/>
			<stop offset="1" stop-color="#ffbd2b"/>
		</linearGradient>
		<linearGradient id="g46" x1="321.3" y1="243.1" x2="321.3" y2="197.8" gradientUnits="userSpaceOnUse">
			<stop offset="0" stop-color="#f08d1d"/>
			<stop offset="1" stop-color="#8d2c1b"/>
		</linearGradient>
		<linearGradient id="g47" x1="326.7" y1="246.2" x2="326.7" y2="213.8" gradientUnits="userSpaceOnUse">
			<stop offset="0" stop-color="#f08d1d"/>
			<stop offset="1" stop-color="#8d2c1b"/>
		</linearGradient>
		<radialGradient id="g48" cx="351.4" cy="208.5" r="24" gradientUnits="userSpaceOnUse">
			<stop offset="0" stop-color="#d14b4b"/>
			<stop offset=".7" stop-color="#910606"/>
			<stop offset="1" stop-color="#9e2929"/>
		</radialGradient>
		<linearGradient id="g49" x1="329.7" y1="230.9" x2="329.7" y2="202.4" gradientUnits="userSpaceOnUse">
			<stop offset="0" stop-color="#8b2788"/>
			<stop offset="1" stop-color="#ffffff"/>
		</linearGradient>
		<radialGradient id="g50" cx="350.3" cy="204" r="14.9" gradientUnits="userSpaceOnUse">
			<stop offset=".2" stop-color="#e61c24"/>
			<stop offset="1" stop-color="#000000"/>
		</radialGradient>
		<linearGradient id="g51" x1="349.5" y1="189.4" x2="361.9" y2="189.4" gradientUnits="userSpaceOnUse">
			<stop offset="0" stop-color="#ffffff"/>
			<stop offset="1" stop-color="#fff7c4"/>
		</linearGradient>
		<linearGradient id="g52" x1="317.1" y1="209.8" x2="386" y2="209.8" gradientUnits="userSpaceOnUse">
			<stop offset="0" stop-color="#d16509"/>
			<stop offset="1" stop-color="#8d2c1b"/>
		</linearGradient>
		<linearGradient id="g53" x1="368.9" y1="182.1" x2="383.3" y2="182.1" gradientUnits="userSpaceOnUse">
			<stop offset="0" stop-color="#ebbd38"/>
			<stop offset="1" stop-color="#fff29e"/>
		</linearGradient>
		<linearGradient id="g54" x1="17.8" y1="245.2" x2="17.8" y2="182.4" gradientUnits="userSpaceOnUse">
			<stop offset="0" stop-color="#ca6b34"/>
			<stop offset="1" stop-color="#ffbd2b"/>
		</linearGradient>
		<linearGradient id="g55" x1="15.6" y1="243.1" x2="15.6" y2="197.8" gradientUnits="userSpaceOnUse">
			<stop offset="0" stop-color="#f08d1d"/>
			<stop offset="1" stop-color="#8d2c1b"/>
		</linearGradient>
		<linearGradient id="g56" x1="21.1" y1="246.2" x2="21.1" y2="213.8" gradientUnits="userSpaceOnUse">
			<stop offset="0" stop-color="#f08d1d"/>
			<stop offset="1" stop-color="#8d2c1b"/>
		</linearGradient>
		<radialGradient id="g57" cx="45.7" cy="208.5" r="24" gradientUnits="userSpaceOnUse">
			<stop offset="0" stop-color="#d14b4b"/>
			<stop offset=".7" stop-color="#910606"/>
			<stop offset="1" stop-color="#9e2929"/>
		</radialGradient>
		<linearGradient id="g58" x1="24" y1="230.9" x2="24" y2="202.4" gradientUnits="userSpaceOnUse">
			<stop offset="0" stop-color="#8b2788"/>
			<stop offset="1" stop-color="#ffffff"/>
		</linearGradient>
		<radialGradient id="g59" cx="44.6" cy="204" r="14.9" gradientUnits="userSpaceOnUse">
			<stop offset=".2" stop-color="#e61c24"/>
			<stop offset="1" stop-color="#000000"/>
		</radialGradient>
		<linearGradient id="g60" x1="43.8" y1="189.4" x2="56.2" y2="189.4" gradientUnits="userSpaceOnUse">
			<stop offset="0" stop-color="#ffffff"/>
			<stop offset="1" stop-color="#fff7c4"/>
		</linearGradient>
		<linearGradient id="g61" x1="11.4" y1="209.8" x2="80.4" y2="209.8" gradientUnits="userSpaceOnUse">
			<stop offset="0" stop-color="#d16509"/>
			<stop offset="1" stop-color="#8d2c1b"/>
		</linearGradient>
		<linearGradient id="g62" x1="63.2" y1="182.1" x2="77.6" y2="182.1" gradientUnits="userSpaceOnUse">
			<stop offset="0" stop-color="#ebbd38"/>
			<stop offset="1" stop-color="#fff29e"/>
		</linearGradient>
		<linearGradient id="g63" x1="38.4" y1="127.4" x2="41.4" y2="61.3" gradientUnits="userSpaceOnUse">
			<stop offset="0" stop-color="#ffffff"/>
			<stop offset=".4" stop-color="#ed8a1d"/>
			<stop offset="1" stop-color="#b41e2d"/>
		</linearGradient>
		<linearGradient id="g64" x1="43.4" y1="118.1" x2="43.8" y2="61.1" gradientUnits="userSpaceOnUse">
			<stop offset="0" stop-color="#ca6b34"/>
			<stop offset=".5" stop-color="#ffa933"/>
			<stop offset="1" stop-color="#ffbd2b"/>
		</linearGradient>
		<linearGradient id="g65" x1="103.4" y1="104.8" x2="83.1" y2="126.7" gradientUnits="userSpaceOnUse">
			<stop offset="0" stop-color="#ffffff"/>
			<stop offset=".4" stop-color="#ed8a1d"/>
			<stop offset="1" stop-color="#b41e2d"/>
		</linearGradient>
		<linearGradient id="g66" x1="111.9" y1="74.4" x2="111.9" y2="100.9" gradientUnits="userSpaceOnUse">
			<stop offset="0" stop-color="#ca6b34"/>
			<stop offset=".7" stop-color="#ffa933"/>
			<stop offset="1" stop-color="#ffbd2b"/>
		</linearGradient>
		<linearGradient id="g67" x1="64.3" y1="106.6" x2="64.3" y2="79.8" gradientUnits="userSpaceOnUse">
			<stop offset="0" stop-color="#ffa933"/>
			<stop offset="1" stop-color="#ffef9b"/>
		</linearGradient>
		<linearGradient id="g68" x1="89.3" y1="73.3" x2="89.9" y2="85.2" gradientUnits="userSpaceOnUse">
			<stop offset="0" stop-color="#d16509"/>
			<stop offset="1" stop-color="#8d2c1b"/>
		</linearGradient>
		<linearGradient id="g69" x1="96.5" y1="88.3" x2="89.2" y2="98.5" gradientUnits="userSpaceOnUse">
			<stop offset="0" stop-color="#de3c14"/>
			<stop offset="1" stop-color="#db0f0f"/>
		</linearGradient>
		<linearGradient id="g70" x1="70" y1="101.1" x2="90.4" y2="80.1" gradientUnits="userSpaceOnUse">
			<stop offset="0" stop-color="#b51818"/>
			<stop offset="1" stop-color="#f22f22"/>
		</linearGradient>
		<linearGradient id="g71" x1="81.5" y1="65.5" x2="102.8" y2="79.8" gradientUnits="userSpaceOnUse">
			<stop offset="0" stop-color="#b51818"/>
			<stop offset="1" stop-color="#f22f22"/>
		</linearGradient>
		<linearGradient id="g72" x1="73.5" y1="104.5" x2="65.5" y2="96.5" gradientUnits="userSpaceOnUse">
			<stop offset="0" stop-color="#b51818"/>
			<stop offset="1" stop-color="#f22f22"/>
		</linearGradient>
		<linearGradient id="g73" x1="66.1" y1="80.1" x2="81.1" y2="67.8" gradientUnits="userSpaceOnUse">
			<stop offset="0" stop-color="#b51818"/>
			<stop offset="1" stop-color="#f22f22"/>
		</linearGradient>
		<linearGradient id="g74" x1="89" y1="75" x2="89" y2="75" gradientUnits="userSpaceOnUse">
			<stop offset="0" stop-color="#ffffff"/>
			<stop offset="1" stop-color="#fff7c4"/>
		</linearGradient>
		<linearGradient id="g75" x1="83.3" y1="90.6" x2="83.3" y2="90.6" gradientUnits="userSpaceOnUse">
			<stop offset="0" stop-color="#ffffff"/>
			<stop offset="1" stop-color="#fff7c4"/>
		</linearGradient>
		<linearGradient id="g76" x1="360.6" y1="62.2" x2="357.5" y2="128.3" gradientUnits="userSpaceOnUse">
			<stop offset="0" stop-color="#ffffff"/>
			<stop offset=".4" stop-color="#ed8a1d"/>
			<stop offset="1" stop-color="#b41e2d"/>
		</linearGradient>
		<linearGradient id="g77" x1="272.1" y1="118.1" x2="272.5" y2="61.1" gradientUnits="userSpaceOnUse">
			<stop offset="0" stop-color="#ca6b34"/>
			<stop offset=".5" stop-color="#ffa933"/>
			<stop offset="1" stop-color="#ffbd2b"/>
		</linearGradient>
		<linearGradient id="g78" x1="332.1" y1="104.8" x2="311.8" y2="126.7" gradientUnits="userSpaceOnUse">
			<stop offset="0" stop-color="#ffffff"/>
			<stop offset=".4" stop-color="#ed8a1d"/>
			<stop offset="1" stop-color="#b41e2d"/>
		</linearGradient>
		<linearGradient id="g79" x1="340.6" y1="74.4" x2="340.6" y2="100.9" gradientUnits="userSpaceOnUse">
			<stop offset="0" stop-color="#ca6b34"/>
			<stop offset=".7" stop-color="#ffa933"/>
			<stop offset="1" stop-color="#ffbd2b"/>
		</linearGradient>
		<linearGradient id="g80" x1="293" y1="106.6" x2="293" y2="79.8" gradientUnits="userSpaceOnUse">
			<stop offset="0" stop-color="#ffa933"/>
			<stop offset="1" stop-color="#ffef9b"/>
		</linearGradient>
		<linearGradient id="g81" x1="318.1" y1="73.3" x2="318.7" y2="85.2" gradientUnits="userSpaceOnUse">
			<stop offset="0" stop-color="#d16509"/>
			<stop offset="1" stop-color="#8d2c1b"/>
		</linearGradient>
		<linearGradient id="g82" x1="325.2" y1="88.3" x2="318" y2="98.5" gradientUnits="userSpaceOnUse">
			<stop offset="0" stop-color="#de3c14"/>
			<stop offset="1" stop-color="#db0f0f"/>
		</linearGradient>
		<linearGradient id="g83" x1="298.7" y1="101.1" x2="319.2" y2="80.1" gradientUnits="userSpaceOnUse">
			<stop offset="0" stop-color="#b51818"/>
			<stop offset="1" stop-color="#f22f22"/>
		</linearGradient>
		<linearGradient id="g84" x1="310.2" y1="65.5" x2="331.5" y2="79.8" gradientUnits="userSpaceOnUse">
			<stop offset="0" stop-color="#b51818"/>
			<stop offset="1" stop-color="#f22f22"/>
		</linearGradient>
		<linearGradient id="g85" x1="302.2" y1="104.5" x2="294.2" y2="96.5" gradientUnits="userSpaceOnUse">
			<stop offset="0" stop-color="#b51818"/>
			<stop offset="1" stop-color="#f22f22"/>
		</linearGradient>
		<linearGradient id="g86" x1="294.9" y1="80.1" x2="309.8" y2="67.8" gradientUnits="userSpaceOnUse">
			<stop offset="0" stop-color="#b51818"/>
			<stop offset="1" stop-color="#f22f22"/>
		</linearGradient>
		<linearGradient id="g87" x1="317.8" y1="75" x2="317.8" y2="75" gradientUnits="userSpaceOnUse">
			<stop offset="0" stop-color="#ffffff"/>
			<stop offset="1" stop-color="#fff7c4"/>
		</linearGradient>
		<linearGradient id="g88" x1="312" y1="90.6" x2="312" y2="90.6" gradientUnits="userSpaceOnUse">
			<stop offset="0" stop-color="#ffffff"/>
			<stop offset="1" stop-color="#fff7c4"/>
		</linearGradient>
	</defs>
	<style>
		.s0 { fill: url(#g1) } 
		.s1 { fill: url(#g2) } 
		.s2 { fill: url(#g3) } 
		.s3 { opacity: .5;mix-blend-mode: multiply;fill: url(#g4) } 
		.s4 { fill: url(#g5) } 
		.s5 { fill: url(#g6) } 
		.s6 { opacity: .5;mix-blend-mode: multiply;fill: url(#g7) } 
		.s7 { fill: url(#g8) } 
		.s8 { fill: url(#g9) } 
		.s9 { opacity: .5;mix-blend-mode: multiply;fill: url(#g10) } 
		.s10 { opacity: .5;mix-blend-mode: color-dodge;fill: url(#g11) } 
		.s11 { fill: url(#g12) } 
		.s12 { fill: url(#g13) } 
		.s13 { opacity: .5;mix-blend-mode: multiply;fill: url(#g14) } 
		.s14 { opacity: .5;mix-blend-mode: color-dodge;fill: url(#g15) } 
		.s15 { fill: url(#g16) } 
		.s16 { fill: url(#g17) } 
		.s17 { opacity: .5;mix-blend-mode: multiply;fill: url(#g18) } 
		.s18 { opacity: .5;mix-blend-mode: color-dodge;fill: url(#g19) } 
		.s19 { fill: url(#g20) } 
		.s20 { fill: url(#g21) } 
		.s21 { opacity: .5;mix-blend-mode: multiply;fill: url(#g22) } 
		.s22 { opacity: .5;mix-blend-mode: color-dodge;fill: url(#g23) } 
		.s23 { fill: url(#g24) } 
		.s24 { fill: url(#g25) } 
		.s25 { opacity: .5;mix-blend-mode: multiply;fill: url(#g26) } 
		.s26 { opacity: .5;mix-blend-mode: color-dodge;fill: url(#g27) } 
		.s27 { fill: url(#g28) } 
		.s28 { fill: url(#g29) } 
		.s29 { opacity: .5;mix-blend-mode: multiply;fill: url(#g30) } 
		.s30 { opacity: .5;mix-blend-mode: color-dodge;fill: url(#g31) } 
		.s31 { opacity: .5;mix-blend-mode: multiply;fill: url(#g32) } 
		.s32 { opacity: .5;mix-blend-mode: color-dodge;fill: url(#g33) } 
		.s33 { fill: url(#g34) } 
		.s34 { opacity: .5;mix-blend-mode: color-dodge;fill: url(#g35) } 
		.s35 { fill: url(#g36) } 
		.s36 { opacity: .5;mix-blend-mode: multiply;fill: url(#g37) } 
		.s37 { fill: #ffffff } 
		.s38 { opacity: .6;mix-blend-mode: color-dodge;fill: url(#g38) } 
		.s39 { opacity: .5;mix-blend-mode: multiply;fill: url(#g39) } 
		.s40 { opacity: .5;mix-blend-mode: color-dodge;fill: url(#g40) } 
		.s41 { opacity: .5;mix-blend-mode: color-dodge;fill: url(#g41) } 
		.s42 { opacity: .5;mix-blend-mode: multiply;fill: url(#g42) } 
		.s43 { fill: url(#g43) } 
		.s44 { fill: url(#g44) } 
		.s45 { fill: url(#g45) } 
		.s46 { opacity: .7;mix-blend-mode: multiply;fill: url(#g46) } 
		.s47 { opacity: .8;mix-blend-mode: multiply;fill: url(#g47) } 
		.s48 { fill: url(#g48) } 
		.s49 { opacity: .5;mix-blend-mode: multiply;fill: url(#g49) } 
		.s50 { opacity: .3;mix-blend-mode: color-dodge;fill: url(#g50) } 
		.s51 { fill: url(#g51) } 
		.s52 { fill: url(#g52) } 
		.s53 { opacity: .5;mix-blend-mode: color-dodge;fill: url(#g53) } 
		.s54 { fill: url(#g54) } 
		.s55 { opacity: .7;mix-blend-mode: multiply;fill: url(#g55) } 
		.s56 { opacity: .8;mix-blend-mode: multiply;fill: url(#g56) } 
		.s57 { fill: url(#g57) } 
		.s58 { opacity: .5;mix-blend-mode: multiply;fill: url(#g58) } 
		.s59 { opacity: .3;mix-blend-mode: color-dodge;fill: url(#g59) } 
		.s60 { fill: url(#g60) } 
		.s61 { fill: url(#g61) } 
		.s62 { opacity: .5;mix-blend-mode: color-dodge;fill: url(#g62) } 
		.s63 { opacity: .5;mix-blend-mode: multiply;fill: url(#g63) } 
		.s64 { fill: url(#g64) } 
		.s65 { opacity: .5;mix-blend-mode: multiply;fill: url(#g65) } 
		.s66 { fill: url(#g66) } 
		.s67 { fill: url(#g67) } 
		.s68 { fill: url(#g68) } 
		.s69 { fill: url(#g69) } 
		.s70 { fill: url(#g70) } 
		.s71 { fill: url(#g71) } 
		.s72 { fill: url(#g72) } 
		.s73 { fill: url(#g73) } 
		.s74 { fill: url(#g74) } 
		.s75 { fill: url(#g75) } 
		.s76 { opacity: .5;mix-blend-mode: multiply;fill: url(#g76) } 
		.s77 { fill: url(#g77) } 
		.s78 { opacity: .5;mix-blend-mode: multiply;fill: url(#g78) } 
		.s79 { fill: url(#g79) } 
		.s80 { fill: url(#g80) } 
		.s81 { fill: url(#g81) } 
		.s82 { fill: url(#g82) } 
		.s83 { fill: url(#g83) } 
		.s84 { fill: url(#g84) } 
		.s85 { fill: url(#g85) } 
		.s86 { fill: url(#g86) } 
		.s87 { fill: url(#g87) } 
		.s88 { fill: url(#g88) } 
	</style>
	<path id="Layer" fill-rule="evenodd" class="s0" d="m399.8 290.1c-1.6 4.1-52.9 18.6-73.2 24.2-5.8 6.7-12.2 12.8-19 18.5-5.1 18.6-20.5 73.6-24.7 75.4-5.1 2.2-71-34.4-74.8-36.5q-4.1 0.2-8.1 0.2-4.1 0-8.1-0.2c-3.9 2.1-69.7 38.7-74.8 36.5-4.2-1.8-19.6-56.8-24.7-75.4-6.8-5.7-13.1-11.8-18.9-18.5-20.4-5.6-71.6-20.1-73.3-24.2-0.4-0.8 0.1-8 0-8.5-1.7-4.1 22.4-49.1 32.4-67.4 0-0.2-1.1-10.1 0-20.2-10-18.2-32.5-61.3-32.4-67.3 0-0.5-0.4-7.7 0-8.5 1.7-4.1 52.9-18.5 73.3-24.1 5.8-6.7 12.1-12.9 18.9-18.6 5.1-18.7 20.5-73.7 24.7-75.4 5.1-2.1 70.9 34.3 74.8 36.5q4-0.1 8.1-0.1 4 0 8.1 0.1c3.8-2.2 69.7-38.6 74.8-36.5 4.2 1.7 19.6 56.7 24.7 75.4 6.8 5.7 13.2 11.9 19 18.6 20.3 5.6 71.6 20 73.2 24.1 0.4 0.8 0 8 0 8.5 0.1 4.6-22.4 49.1-32.4 67.3 0.7 10.1 0 20 0 20.2 10 18.3 34.2 63.3 32.4 67.4-0.2 0.5 0.4 7.7 0 8.5zm-73.4-86c0-69.9-56.5-126.4-126.4-126.4-69.9 0-126.4 56.5-126.4 126.4 0 69.9 56.5 126.4 126.4 126.4 69.9 0 126.4-56.5 126.4-126.4z"/>
	<path id="Layer" class="s1" d="m171.1 369.5q0.9 0.1 1.7 0.3c-5 3.6-10.3 6.7-15.4 9.2q-0.1 0-0.1 0.1c-3 1.4-5.9 2.7-8.7 3.9q-0.1 0.1-0.3 0.1c-13.3 5.5-24.1 7.6-24.6 7.7q0 0-0.1 0c-7-13.4-11.3-26.9-13.9-37.4q-0.1-0.1-0.1-0.1 0-0.3-0.1-0.4c-0.8-3.2-1.4-6.1-1.9-8.6q0.7 0.5 1.3 0.8 1.1 0.7 2.2 1.4 1 0.6 1.8 1.2c17.1 10.3 36.1 17.7 56.3 21.5z"/>
	<path id="Layer" class="s2" d="m170.3 369.4c-9 5.9-26.1 15.5-45.3 18.4 0 0-8-12.5-13.9-41.3q1 0.6 1.8 1.2c17.1 10.3 36.1 17.7 56.3 21.5z"/>
	<path id="Layer" class="s3" d="m171.1 369.5c-2.8 2.4-7.7 6.4-13.7 9.5q-0.1 0-0.1 0.1c-2.5 1.3-5.4 2.7-8.7 3.9q-0.1 0.1-0.3 0.1c-7.1 2.8-15.7 5.5-24.6 7.7q0 0-0.1 0c-0.5-0.9-8.5-15.4-13.9-37.4q-0.1-0.1-0.1-0.1 0-0.3-0.1-0.4c-0.5-2.4-0.6-5.1-0.6-7.8q1.1 0.7 2.2 1.4 1 0.6 1.8 1.2c3.2 8.2 8.5 19.8 15.1 27.6 0 0 19.1 3.3 41.2-6.1z"/>
	<path id="Layer" class="s4" d="m292.4 344.3c-0.5 2.5-1.1 5.4-1.9 8.6q0 0.1-0.1 0.4 0 0 0 0.1c-2.7 10.5-7.1 24-14 37.4-0.6-0.1-11.4-2.2-24.8-7.7q-0.1 0-0.2-0.1c-2.8-1.2-5.8-2.5-8.8-4-5.1-2.5-10.4-5.6-15.5-9.2q1-0.2 1.9-0.3l1.8-0.3c20.3-3.8 39.3-11.2 56.2-21.5q1-0.6 1.9-1.2 1.1-0.7 2.2-1.4 0.7-0.3 1.3-0.8z"/>
	<path id="Layer" class="s5" d="m288.9 346.5c-5.9 28.8-13.9 41.3-13.9 41.3-19.1-2.9-36.4-12.5-45.3-18.4l1.1-0.2c20.3-3.8 39.3-11.2 56.2-21.5q1-0.6 1.9-1.2z"/>
	<path id="Layer" class="s6" d="m290.5 352.9q0 0.1-0.1 0.4 0 0 0 0.1c-5.6 22-13.5 36.5-14 37.4-9-2.2-17.6-4.9-24.8-7.7q-0.1 0-0.2-0.1c-3.3-1.2-6.2-2.6-8.6-3.9q-0.1-0.1-0.2-0.1c-6-3.1-10.9-7.1-13.6-9.5l1.8-0.3c22.1 9.4 41.2 6.1 41.2 6.1 6.6-7.8 11.9-19.4 15-27.6q1-0.6 1.9-1.2 1.1-0.7 2.2-1.4c0 2.7-0.1 5.4-0.6 7.8z"/>
	<path id="Layer" class="s7" d="m171.1 39q0.9-0.2 1.7-0.3c-5-3.6-10.3-6.7-15.4-9.3q-0.1 0-0.1 0-4.5-2.3-8.7-3.9-0.1 0-0.3-0.1c-13.3-5.5-24.1-7.6-24.6-7.7q0 0-0.1 0 0 0 0 0c-7 13.5-11.3 26.9-13.9 37.4q-0.1 0.1-0.1 0.2 0 0.1-0.1 0.4c-0.8 3.1-1.4 6-1.9 8.5q0.7-0.4 1.3-0.9 1.1-0.7 2.2-1.4 1-0.5 1.8-1.1c17.1-10.3 36.1-17.7 56.3-21.4z"/>
	<path id="Layer" class="s8" d="m170.3 39.1c-9-5.8-26.1-15.6-45.3-18.4 0 0-8 12.6-13.9 41.2q1-0.5 1.8-1.1c17.1-10.3 36.1-17.7 56.3-21.4z"/>
	<path id="Layer" class="s9" d="m171.1 39c-2.8-2.5-7.7-6.3-13.7-9.6q-0.1 0-0.1 0c-2.5-1.3-5.4-2.6-8.7-3.9q-0.1 0-0.3-0.1c-7.1-2.8-15.7-5.5-24.6-7.7q0 0-0.1 0 0 0 0 0c-0.5 0.9-8.5 15.4-13.9 37.4q-0.1 0.1-0.1 0.2 0 0.1-0.1 0.4c-0.5 2.3-0.6 5.1-0.6 7.6q1.1-0.7 2.2-1.4 1-0.5 1.8-1.1c3.2-8.3 8.5-19.9 15.1-27.6 0 0 19.1-3.2 41.2 6.2z"/>
	<path id="Layer" class="s10" d="m153.4 15.9c-16.7-6.1-34.4-11.7-34.4-11.7-5.4 8.4-17.1 38.4-17.7 39.8 6.2-20.9 13.1-42.8 15.8-43.9 2.4-1.1 19.2 7 36.3 15.8z"/>
	<path id="Layer" class="s11" d="m229 39q-0.9-0.2-1.8-0.3c5-3.6 10.3-6.7 15.5-9.3q0.1 0 0.1 0 4.4-2.3 8.7-3.9 0.1 0 0.1-0.1c13.5-5.5 24.3-7.6 24.8-7.7q0 0 0.1 0c6.9 13.5 11.2 26.9 13.9 37.4q0 0.1 0.1 0.2 0 0.1 0.1 0.4c0.7 3.1 1.4 6 1.9 8.5q-0.7-0.4-1.3-0.9-1.2-0.7-2.2-1.4-1-0.5-1.9-1.1c-17-10.3-36-17.7-56.2-21.4z"/>
	<path id="Layer" class="s12" d="m229.8 39.1c8.9-5.8 26.1-15.6 45.3-18.4 0 0 8 12.6 13.9 41.2q-1-0.5-1.9-1.1c-17-10.3-36-17.7-56.2-21.4z"/>
	<path id="Layer" class="s13" d="m229 39c2.8-2.5 7.6-6.3 13.7-9.6q0.1 0 0.1 0 3.7-2 8.7-3.9 0.1 0 0.1-0.1c7.2-2.8 15.9-5.5 24.8-7.7q0 0 0.1 0c0.4 0.9 8.4 15.4 13.9 37.4q0 0.1 0.1 0.2 0 0.1 0.1 0.4c0.5 2.3 0.6 5.1 0.6 7.6q-1.2-0.7-2.2-1.4-1-0.5-1.9-1.1c-3.2-8.3-8.4-19.9-15.1-27.6 0 0-19-3.2-41.1 6.2z"/>
	<path id="Layer" class="s14" d="m246.6 15.9c16.8-6.1 34.5-11.7 34.5-11.7 5.4 8.4 17.1 38.4 17.6 39.8-6.1-20.9-13.2-42.8-15.8-43.9-2.4-1.1-19.1 7-36.3 15.8z"/>
	<path id="Layer" class="s15" d="m336.7 107.1q-0.6-0.7-1.1-1.5c6.2 1 12 2.6 17.5 4.4q0 0.1 0.1 0.1c3.1 1 6 2.1 8.9 3.3q0 0 0.2 0.1c13.4 5.5 22.5 11.7 22.9 12q0 0 0.1 0 0 0-0.1 0c-4.5 14.4-10.9 27.1-16.5 36.4q0 0-0.1 0.1 0 0.2-0.1 0.3c-1.7 2.8-3.3 5.3-4.7 7.5q-0.2-0.8-0.3-1.6-0.3-1.3-0.7-2.5-0.1-1.1-0.4-2.1c-4.7-19.4-13-38-24.7-54.9z"/>
	<path id="Layer" class="s16" d="m337.1 107.7c10.5 2.2 29.5 7.5 45.1 19 0 0-3.2 14.5-19.4 39q-0.1-1.1-0.4-2.1c-4.7-19.4-13-38-24.7-54.9z"/>
	<path id="Layer" class="s17" d="m336.7 107.1c3.7 0.2 9.8 0.9 16.4 2.9q0 0.1 0.1 0.1c2.6 0.8 5.6 1.9 8.9 3.3q0 0 0.2 0.1c7 3 15.1 7.2 22.9 12q0 0 0.1 0 0 0-0.1 0c-0.2 1-4.8 16.9-16.5 36.4q0 0-0.1 0.1 0 0.2-0.1 0.3c-1.4 2.1-3.2 4.2-5 5.9q-0.3-1.3-0.7-2.5-0.1-1.1-0.4-2.1c3.6-8.1 8.1-20.1 8.8-30.3 0 0-11.3-15.8-33.5-24.6z"/>
	<path id="Layer" class="s18" d="m364.8 105.1c15.1 6.7 30.4 14.5 30.4 14.5-1.9 9.1-13.6 36.6-14.1 37.8 9.4-17.7 19.1-36.8 18-39.3-0.9-2.2-17.3-7.8-34.2-13q-0.1 0-0.1 0z"/>
	<path id="Layer" class="s19" d="m336.7 301q-0.6 0.8-1.1 1.5c6.2-0.9 12-2.5 17.5-4.4q0 0 0.1 0c3.1-1 6-2.2 8.9-3.3q0-0.1 0.2-0.1c13.4-5.5 22.5-11.7 22.9-12q0 0 0.1 0 0 0-0.1-0.1c-4.5-14.4-10.9-27-16.5-36.3q0-0.1-0.1-0.1 0-0.2-0.1-0.3c-1.7-2.8-3.3-5.4-4.7-7.5q-0.2 0.8-0.3 1.6-0.3 1.2-0.7 2.5-0.1 1.1-0.4 2.1c-4.7 19.3-13 38-24.7 54.9z"/>
	<path id="Layer" class="s20" d="m337.1 300.4c10.5-2.1 29.5-7.4 45.1-18.9 0 0-3.2-14.6-19.4-39q-0.1 1.1-0.4 2.1c-4.7 19.3-13 38-24.7 54.9z"/>
	<path id="Layer" class="s21" d="m336.7 301c3.7-0.1 9.8-0.9 16.4-2.9q0 0 0.1 0c2.6-0.8 5.6-1.9 8.9-3.3q0-0.1 0.2-0.1c7-3.1 15.1-7.3 22.9-12q0 0 0.1 0 0 0-0.1-0.1c-0.2-1-4.8-16.8-16.5-36.3q0-0.1-0.1-0.1 0-0.2-0.1-0.3c-1.4-2.1-3.2-4.2-5-5.9q-0.3 1.2-0.7 2.5-0.1 1.1-0.4 2.1c3.6 8.1 8.1 20 8.8 30.2 0 0-11.3 15.8-33.5 24.7z"/>
	<path id="Layer" class="s22" d="m364.8 303.1c15.1-6.8 30.4-14.6 30.4-14.6-1.9-9.1-13.6-36.5-14.1-37.7 9.4 17.7 19.1 36.8 18 39.2-0.9 2.3-17.3 7.9-34.2 13.1q-0.1 0-0.1 0z"/>
	<path id="Layer" class="s23" d="m62.6 107.1q0.4-0.7 1.1-1.5c-6.2 1-12.1 2.6-17.6 4.4q0 0.1-0.1 0.1c-3.1 1-6.1 2.1-8.9 3.3q-0.1 0-0.2 0.1c-13.4 5.5-22.5 11.7-23 12 4.6 14.4 11 27.1 16.6 36.4q0 0 0 0.1 0.1 0.2 0.3 0.3c1.7 2.8 3.3 5.3 4.7 7.5q0.1-0.8 0.2-1.6 0.4-1.3 0.6-2.5 0.3-1.1 0.6-2.1c4.7-19.4 12.9-38 24.6-54.9z"/>
	<path id="Layer" class="s24" d="m62.1 107.7c-10.5 2.2-29.4 7.5-45.1 19 0 0 3.3 14.5 19.3 39q0.3-1.1 0.6-2.1c4.7-19.4 12.9-38 24.6-54.9z"/>
	<path id="Layer" class="s25" d="m62.6 107.1c-3.8 0.2-9.9 0.9-16.5 2.9q0 0.1-0.1 0.1c-2.6 0.8-5.6 1.9-8.9 3.3q-0.1 0-0.2 0.1c-7.1 3-15 7.2-23 12 0.3 1 4.9 16.9 16.6 36.4q0 0 0 0.1 0.1 0.2 0.3 0.3c1.2 2.1 3.2 4.2 4.9 5.9q0.4-1.3 0.6-2.5 0.3-1.1 0.6-2.1c-3.6-8.1-8.1-20.1-8.9-30.3 0 0 11.2-15.8 33.5-24.6z"/>
	<path id="Layer" class="s26" d="m34.4 105.1c-15 6.7-30.4 14.5-30.4 14.5 1.9 9.1 13.7 37.6 14.3 39-9.2-16.9-18.9-39.5-18.2-40.5 1.5-2 17.3-7.8 34.3-13z"/>
	<path id="Layer" class="s27" d="m62.6 301q0.4 0.8 1.1 1.5c-6.2-0.9-12.1-2.5-17.6-4.4q0 0-0.1 0c-3.1-1-6.1-2.2-8.9-3.3q-0.1-0.1-0.2-0.1c-13.4-5.5-22.5-11.7-23-12q0 0 0-0.1c4.6-14.4 11-27 16.6-36.3q0-0.1 0-0.1 0.1-0.2 0.3-0.3c1.7-2.8 3.3-5.4 4.7-7.5q0.1 0.8 0.2 1.6 0.4 1.2 0.6 2.5 0.3 1.1 0.6 2.1c4.7 19.3 12.9 38 24.6 54.9z"/>
	<path id="Layer" class="s28" d="m62.1 300.4c-10.5-2.1-29.4-7.4-45.1-18.9 0 0 3.3-14.6 19.3-39q0.3 1.1 0.6 2.1c4.7 19.3 12.9 38 24.6 54.9z"/>
	<path id="Layer" class="s29" d="m62.6 301c-3.8-0.1-9.9-0.9-16.5-2.9q0 0-0.1 0c-2.6-0.8-5.6-1.9-8.9-3.3q-0.1-0.1-0.2-0.1c-7.1-3.1-15-7.3-23-12q0 0 0-0.1c0.3-1 4.9-16.8 16.6-36.3q0-0.1 0-0.1 0.1-0.2 0.3-0.3c1.2-2.1 3.2-4.2 4.9-5.9q0.4 1.2 0.6 2.5 0.3 1.1 0.6 2.1c-3.6 8.1-8.1 20-8.9 30.2 0 0 11.2 15.8 33.5 24.7z"/>
	<path id="Layer" class="s30" d="m34.4 303.1c-15-6.8-30.4-14.6-30.4-14.6 1.9-9.1 13.5-36.5 14.2-37.7-9.5 17.7-19.1 36.8-18.1 39.2 0.9 2.3 17.3 7.9 34.3 13.1z"/>
	<path id="Layer" class="s31" d="m356 265.9c-24.6 62-85.2 105.9-156 105.9-66.9 0-124.7-39.2-151.6-96 61.8 57 187.4 110.2 307.6-9.9z"/>
	<path id="Layer" class="s32" d="m200 36.5c-75.9 0-140 50.4-160.7 119.5 27.4-60.7 89.8-89.9 160.7-89.9 77.4 0 141.8 37.2 164.8 106.9-14.6-77.8-82.9-136.5-164.8-136.5z"/>
	<path id="Layer" fill-rule="evenodd" class="s33" d="m200 342.1c-76.3 0-138-61.6-138-138 0-76.3 61.7-138 138-138 76.3 0 138 61.7 138 138 0 76.4-61.7 138-138 138zm126.4-138c0-69.9-56.5-126.4-126.4-126.4-69.9 0-126.4 56.5-126.4 126.4 0 69.9 56.5 126.4 126.4 126.4 69.9 0 126.4-56.5 126.4-126.4z"/>
	<path id="Layer" class="s34" d="m89 286c0 0 36.9 44.5 111 44.5 74.1 0 111.1-44.5 111.1-44.5 0 0-36.1 58.2-111.1 58.2-75 0-111-58.2-111-58.2z"/>
	<path id="Layer" class="s35" d="m89 286c0 0 36.9 56.1 111 56.1 74.1 0 111.1-56.1 111.1-56.1 0 0-36.1 58.2-111.1 58.2-75 0-111-58.2-111-58.2z"/>
	<path id="Layer" class="s36" d="m332.8 166.5c-3.2-1.8-8.2-4.8-15.5-9.7-18.8-46.4-64.3-79.1-117.3-79.1-54.7 0-101.3 34.7-118.9 83.4-6.7 6.9-12.6 12.6-16.3 15 13-62.8 68.6-110 135.2-110 63.2 0 116.5 42.5 132.8 100.4z"/>
	<path id="Layer" class="s37" d="m200 52.4c-5.5 7.2 38.3 18.8 43.6 13.7 5.2-5 0.2-12.4-9.6-13.7-9.9-1.2-29.7-5.5-34 0z"/>
	<path id="Layer" class="s37" d="m190.2 343.8c-3.1-5.9 31.3-11.9 36.2-7.5 4.9 4.3-3.8 6-3.8 6z"/>
	<path id="Layer" class="s38" d="m169.8 364.1c-2.7 10.4-17.8 15.4-33.5 11.2-15.7-4.1-26.3-15.9-23.5-26.2 2.7-10.4 17.7-15.5 33.4-11.3 15.8 4.2 26.3 15.9 23.6 26.3z"/>
	<path id="Layer" class="s39" d="m399.8 126.7c0.1 4.6-22.4 49.1-32.4 67.3l-0.7-10.8c0 0 28.4-44.1 32.4-65.1l0.9 1.8c0 2.4-0.2 6.5-0.2 6.8z"/>
	<path id="Layer" class="s40" d="m399.8 290.1q-0.1 0.3-0.5 0.7-0.1-0.4-0.2-0.8c-6.8-24.8-32.4-65-32.4-65l0.7-10.8c10 18.3 34.2 63.3 32.4 67.4-0.2 0.5 0.4 7.7 0 8.5z"/>
	<path id="Layer" class="s41" d="m32.6 214.2v12.5c0 0-19.8 28.4-32.4 63.3-0.3-1.4 0.1-8 0-8.4-1.8-4.1 22.4-49.1 32.4-67.4z"/>
	<path id="Layer" class="s42" d="m32.6 180.9v13.1c-10-18.2-32.5-61.3-32.4-67.3 0-0.4-0.4-7.3 0-8.5 14.4 40.4 32.4 62.7 32.4 62.7z"/>
	<path id="Layer" class="s43" d="m184.5 371.1l7.4 0.6c-3.9 2.1-69.7 38.7-74.8 36.5-1.3-0.4-3.4-5.5-6-12.8 0.3 0.6 4.9 10.1 7.4 10.1 2.5 0 66-34.4 66-34.4z"/>
	<path id="Layer" class="s44" d="m288.9 395.5c-2.7 7.2-4.8 12.3-6 12.7-5.1 2.2-71-34.4-74.8-36.5l9.3-0.8c0 0 44.4 27.9 62.5 33.4 4.6 1.4 8.6-8.1 9-8.8z"/>
	<path id="Layer" class="s45" d="m322.3 192.9c-13.8 23.1 2.1 47.8 23.8 51.6 21.6 3.8 46.6-16.2 38.4-44.2-8.3-28-50.2-27.8-62.2-7.4z"/>
	<path id="Layer" class="s46" d="m336.7 186.8c-12.1 6.2-16.7 27.2-6.2 40.1 10.5 13 35 14.6 44.9-3.7 10.6-19.6-8.8-51.8-38.7-36.4z"/>
	<path id="Layer" class="s47" d="m351.4 234.1c-13.6 0-24.7-11-24.7-24.7 0-13.6 11.1-24.7 24.7-24.7 13.7 0 24.7 11.1 24.7 24.7 0 13.7-11 24.7-24.7 24.7z"/>
	<path id="Layer" class="s48" d="m351.4 232.5c-13.2 0-24-10.7-24-24 0-13.3 10.8-24 24-24 13.3 0 24 10.7 24 24 0 13.3-10.7 24-24 24z"/>
	<path id="Layer" class="s49" d="m375.4 208.4c0 13.3-10.7 24.1-24 24.1-13.2 0-24-10.8-24-24.1 0-6.4 2.6-12.3 6.7-16.6-2.1 3.3-3.2 7.2-3.2 11.3 0 11.1 8.7 20.2 19.4 20.2 10.6 0 19.3-9.1 19.3-20.2 0-6.6-3-12.5-7.7-16.2 8 3.9 13.5 12.1 13.5 21.5z"/>
	<path id="Layer" class="s50" d="m350.2 218.9c-8.2 0-14.9-6.7-14.9-14.9 0-8.3 6.7-15 14.9-15 8.3 0 15 6.7 15 15 0 8.2-6.7 14.9-15 14.9z"/>
	<path id="Layer" class="s51" d="m349.5 195.9c-0.4 2.5 6.8 5.5 9 5.5 0 0 4.7-4.5 2.9-8.9 0 0-5.1-4.1-9.8-2.9 0 0-1.8 2.8-2.1 6.3z"/>
	<path id="Layer" class="s52" d="m346.1 244.5c-16.4-2.9-29.5-17.6-29-34.6 2.4 19.4 16.5 36.3 44.8 29.6 3.4-0.7 22.6-9.6 24.1-29.7 0.8 22.9-20.9 38.1-39.9 34.7z"/>
	<path id="Layer" class="s53" d="m383.3 196.9c-1.2 2.9-16.2-11.7-14.3-14.8h0.1c6.1 3.1 11.2 8 14.2 14.8z"/>
	<path id="Layer" class="s54" d="m16.6 192.9c-13.8 23.1 2.1 47.8 23.8 51.6 21.6 3.8 46.6-16.2 38.4-44.2-8.3-28-50.2-27.8-62.2-7.4z"/>
	<path id="Layer" class="s55" d="m31 186.8c-12 6.2-16.6 27.2-6.2 40.1 10.5 13 35 14.6 44.9-3.7 10.7-19.6-8.7-51.8-38.7-36.4z"/>
	<path id="Layer" class="s56" d="m45.7 234.1c-13.6 0-24.6-11-24.6-24.7 0-13.6 11-24.7 24.6-24.7 13.7 0 24.7 11.1 24.7 24.7 0 13.7-11 24.7-24.7 24.7z"/>
	<path id="Layer" class="s57" d="m45.7 232.5c-13.2 0-23.9-10.7-23.9-24 0-13.3 10.7-24 23.9-24 13.3 0 24 10.7 24 24 0 13.3-10.7 24-24 24z"/>
	<path id="Layer" class="s58" d="m69.7 208.4c0 13.3-10.7 24.1-24 24.1-13.2 0-23.9-10.8-23.9-24.1 0-6.4 2.5-12.3 6.6-16.6-2.1 3.3-3.2 7.2-3.2 11.3 0 11.1 8.7 20.2 19.4 20.2 10.7 0 19.3-9.1 19.3-20.2 0-6.6-3-12.5-7.7-16.2 8 3.9 13.5 12.1 13.5 21.5z"/>
	<path id="Layer" class="s59" d="m44.6 218.9c-8.3 0-15-6.7-15-14.9 0-8.3 6.7-15 15-15 8.2 0 14.9 6.7 14.9 15 0 8.2-6.7 14.9-14.9 14.9z"/>
	<path id="Layer" class="s60" d="m43.8 195.9c-0.3 2.5 6.9 5.5 9.1 5.5 0 0 4.6-4.5 2.9-8.9 0 0-5.2-4.1-9.9-2.9 0 0-1.7 2.8-2.1 6.3z"/>
	<path id="Layer" class="s61" d="m40.4 244.5c-16.4-2.9-29.4-17.6-29-34.6 2.4 19.4 16.5 36.3 44.8 29.6 3.4-0.7 22.6-9.6 24.2-29.7 0.8 22.9-21 38.1-40 34.7z"/>
	<path id="Layer" class="s62" d="m77.6 196.9c-1.2 2.9-16.2-11.7-14.2-14.8 6.1 3.1 11.3 8 14.2 14.8z"/>
	<path id="Layer" class="s63" d="m81.1 61.9c0 0-18.8 9.6-32.1 39l7.2-2 6.4 8.2 3.2-3.4c0 0 6.5 14.9 14.6 23.9 0 0 12-12 17-19.9 5-7.8 10.2-19.9 10.2-19.9 0 0-3.5-5.8-11.8-10.4z"/>
	<path id="Layer" class="s64" d="m104.9 88.6c-5.6 13.6-21.4 29.5-21.4 29.5 0 0-16.1-15.4-22.1-28.9 5.5-13.5 21.2-29.6 21.2-29.6 0 0 16.3 15.6 22.3 29z"/>
	<path id="Layer" class="s65" d="m61.4 89.2c6 13.5 22.1 28.9 22.1 28.9l1-7.4c-10.1-8.4-17.6-21.2-17.6-21.2 0 0-2.4-0.4-5.5-0.3z"/>
	<path id="Layer" class="s66" d="m84.5 110.7c0 0-13-11.4-17.6-21.2 0 0 4.1-11.2 16.4-22.7 0 0 12.2 8.7 18.3 21.8 0 0-5.2 10.3-17.1 22.1z"/>
	<path id="Layer" class="s67" d="m71.5 89.7c5.5 10.6 13.2 15.4 13.2 15.4 7.7-6.5 12.1-15.8 12.1-15.8-5-8-12.9-15.9-12.9-15.9-6 6.7-12.4 16.3-12.4 16.3z"/>
	<path id="Layer" class="s68" d="m71.5 89.7l25.3-0.4c-3.9-6.6-12.9-15.9-12.9-15.9-6 6.7-12.4 16.3-12.4 16.3z"/>
	<path id="Layer" class="s69" d="m89.1 89.2l-4.8-5.9-5.2 6.1 5.1 5.9z"/>
	<path id="Layer" class="s70" d="m94.9 89.2h-5.8l-4.9 6.1 0.1 7z"/>
	<path id="Layer" class="s71" d="m84.2 76.2l0.1 7.1 4.8 5.9h5.8z"/>
	<path id="Layer" class="s72" d="m79.1 89.4l5.1 5.9 0.1 7-11-12.8z"/>
	<path id="Layer" class="s73" d="m84.2 76.2l0.1 7.1-5.2 6.1-5.8 0.1z"/>
	<path id="Layer" class="s74" d="m94.5 74c-0.4 1.1-4.7-4.3-4-4.9 0.6-0.7 4.5 3.5 4 4.9z"/>
	<path id="Layer" class="s75" d="m86.7 86.3c-2.4-1.5-3.6 0.9-3 2.5 0.7 1.5 4.9 1.9 3.6-1.7z"/>
	<path id="Layer" class="s76" d="m318 61.9c0 0 18.6 9.6 31.9 39l-7.1-2-6.4 8.2-3.2-3.4c0 0-6.5 14.9-14.6 23.9 0 0-12.1-12-17.1-19.9-5-7.8-10.2-19.9-10.2-19.9 0 0 3.6-5.8 11.8-10.4z"/>
	<path id="Layer" class="s77" d="m333.6 88.6c-5.5 13.6-21.3 29.5-21.3 29.5 0 0-16.2-15.4-22.2-28.9 5.5-13.5 21.4-29.6 21.4-29.6 0 0 16.1 15.6 22.1 29z"/>
	<path id="Layer" class="s78" d="m290.1 89.2c6 13.5 22.2 28.9 22.2 28.9l0.9-7.4c-10.1-8.4-17.6-21.2-17.6-21.2 0 0-2.4-0.4-5.5-0.3z"/>
	<path id="Layer" class="s79" d="m313.2 110.7c0 0-13-11.4-17.6-21.2 0 0 4.3-11.2 16.5-22.7 0 0 12.2 8.7 18.3 21.8 0 0-5.2 10.3-17.2 22.1z"/>
	<path id="Layer" class="s80" d="m300.2 89.7c5.6 10.6 13.3 15.4 13.3 15.4 7.6-6.5 12-15.8 12-15.8-4.9-8-12.9-15.9-12.9-15.9-6 6.7-12.4 16.3-12.4 16.3z"/>
	<path id="Layer" class="s81" d="m300.2 89.7l25.3-0.4c-3.9-6.6-12.9-15.9-12.9-15.9-6 6.7-12.4 16.3-12.4 16.3z"/>
	<path id="Layer" class="s82" d="m317.9 89.2l-4.9-5.9-5.1 6.1 5.1 5.9z"/>
	<path id="Layer" class="s83" d="m323.7 89.2h-5.8l-4.9 6.1 0.1 7z"/>
	<path id="Layer" class="s84" d="m313 76.2v7.1l4.9 5.9h5.8z"/>
	<path id="Layer" class="s85" d="m307.9 89.4l5.1 5.9 0.1 7-11-12.8z"/>
	<path id="Layer" class="s86" d="m313 76.2v7.1l-5.1 6.1-5.8 0.1z"/>
	<path id="Layer" class="s87" d="m323.2 74c-0.3 1.1-4.6-4.3-4-4.9 0.6-0.7 4.6 3.5 4 4.9z"/>
	<path id="Layer" class="s88" d="m315.4 86.3c-2.4-1.5-3.6 0.9-3 2.5 0.7 1.5 4.9 1.9 3.7-1.7z"/>
</svg>