<svg version="1.2" xmlns="http://www.w3.org/2000/svg" viewBox="0 0 400 410" width="400" height="410">
	<title>frame4</title>
	<defs>
		<linearGradient id="g1" x1="-9.4" y1="410.9" x2="-9.4" y2="25.2" gradientUnits="userSpaceOnUse">
			<stop offset="0" stop-color="#86759d"/>
			<stop offset=".4" stop-color="#98abd2"/>
			<stop offset="1" stop-color="#dae1ef"/>
		</linearGradient>
		<linearGradient id="g2" x1="185.9" y1="322.4" x2="148.6" y2="406.4" gradientUnits="userSpaceOnUse">
			<stop offset="0" stop-color="#4d3fb8"/>
			<stop offset="1" stop-color="#80afff"/>
		</linearGradient>
		<linearGradient id="g3" x1="126.4" y1="386.5" x2="126.4" y2="314.6" gradientUnits="userSpaceOnUse">
			<stop offset="0" stop-color="#86759d"/>
			<stop offset=".4" stop-color="#98abd2"/>
			<stop offset="1" stop-color="#dae1ef"/>
		</linearGradient>
		<linearGradient id="g4" x1="103.5" y1="384.5" x2="137.6" y2="311.9" gradientUnits="userSpaceOnUse">
			<stop offset="0" stop-color="#8980eb"/>
			<stop offset="1" stop-color="#705ab8"/>
		</linearGradient>
		<linearGradient id="g5" x1="258.3" y1="297.9" x2="301.3" y2="400.5" gradientUnits="userSpaceOnUse">
			<stop offset="0" stop-color="#4d3fb8"/>
			<stop offset="1" stop-color="#80afff"/>
		</linearGradient>
		<linearGradient id="g6" x1="245.1" y1="386.5" x2="245.1" y2="314.6" gradientUnits="userSpaceOnUse">
			<stop offset="0" stop-color="#86759d"/>
			<stop offset=".4" stop-color="#98abd2"/>
			<stop offset="1" stop-color="#dae1ef"/>
		</linearGradient>
		<linearGradient id="g7" x1="246.5" y1="397.3" x2="221.5" y2="322" gradientUnits="userSpaceOnUse">
			<stop offset="0" stop-color="#8980eb"/>
			<stop offset="1" stop-color="#705ab8"/>
		</linearGradient>
		<linearGradient id="g8" x1="161.8" y1="32.1" x2="189.6" y2="93.2" gradientUnits="userSpaceOnUse">
			<stop offset="0" stop-color="#4d3fb8"/>
			<stop offset="1" stop-color="#80afff"/>
		</linearGradient>
		<linearGradient id="g9" x1="147.5" y1="5.4" x2="172.2" y2="67.8" gradientUnits="userSpaceOnUse">
			<stop offset="0" stop-color="#86759d"/>
			<stop offset=".4" stop-color="#98abd2"/>
			<stop offset="1" stop-color="#dae1ef"/>
		</linearGradient>
		<linearGradient id="g10" x1="142" y1="104.5" x2="95.6" y2="12" gradientUnits="userSpaceOnUse">
			<stop offset="0" stop-color="#8980eb"/>
			<stop offset="1" stop-color="#705ab8"/>
		</linearGradient>
		<linearGradient id="g11" x1="133.1" y1="-34.6" x2="165.6" y2="58.9" gradientUnits="userSpaceOnUse">
			<stop offset="0" stop-color="#bfd7ff"/>
			<stop offset="1" stop-color="#000000"/>
		</linearGradient>
		<linearGradient id="g12" x1="238.6" y1="58.1" x2="210.8" y2="-3.1" gradientUnits="userSpaceOnUse">
			<stop offset="0" stop-color="#4d3fb8"/>
			<stop offset="1" stop-color="#80afff"/>
		</linearGradient>
		<linearGradient id="g13" x1="252.9" y1="85.3" x2="228.2" y2="23" gradientUnits="userSpaceOnUse">
			<stop offset="0" stop-color="#86759d"/>
			<stop offset=".4" stop-color="#98abd2"/>
			<stop offset="1" stop-color="#dae1ef"/>
		</linearGradient>
		<linearGradient id="g14" x1="258.4" y1="-15.2" x2="304.6" y2="77.4" gradientUnits="userSpaceOnUse">
			<stop offset="0" stop-color="#8980eb"/>
			<stop offset="1" stop-color="#705ab8"/>
		</linearGradient>
		<linearGradient id="g15" x1="267.1" y1="87.6" x2="234.7" y2="-5.8" gradientUnits="userSpaceOnUse">
			<stop offset="0" stop-color="#bfd7ff"/>
			<stop offset="1" stop-color="#000000"/>
		</linearGradient>
		<linearGradient id="g16" x1="312.7" y1="126.1" x2="339.1" y2="55.7" gradientUnits="userSpaceOnUse">
			<stop offset="0" stop-color="#4d3fb8"/>
			<stop offset="1" stop-color="#80afff"/>
		</linearGradient>
		<linearGradient id="g17" x1="301.7" y1="158.8" x2="332.9" y2="86.1" gradientUnits="userSpaceOnUse">
			<stop offset="0" stop-color="#86759d"/>
			<stop offset=".4" stop-color="#98abd2"/>
			<stop offset="1" stop-color="#dae1ef"/>
		</linearGradient>
		<linearGradient id="g18" x1="423.4" y1="98.4" x2="388.5" y2="203.4" gradientUnits="userSpaceOnUse">
			<stop offset="0" stop-color="#8980eb"/>
			<stop offset="1" stop-color="#705ab8"/>
		</linearGradient>
		<linearGradient id="g19" x1="315.8" y1="168.3" x2="361.1" y2="72.6" gradientUnits="userSpaceOnUse">
			<stop offset="0" stop-color="#bfd7ff"/>
			<stop offset="1" stop-color="#000000"/>
		</linearGradient>
		<linearGradient id="g20" x1="348.2" y1="311.8" x2="284.1" y2="287.6" gradientUnits="userSpaceOnUse">
			<stop offset="0" stop-color="#4d3fb8"/>
			<stop offset="1" stop-color="#80afff"/>
		</linearGradient>
		<linearGradient id="g21" x1="378.5" y1="322.8" x2="311.1" y2="293.6" gradientUnits="userSpaceOnUse">
			<stop offset="0" stop-color="#86759d"/>
			<stop offset=".4" stop-color="#98abd2"/>
			<stop offset="1" stop-color="#dae1ef"/>
		</linearGradient>
		<linearGradient id="g22" x1="323.7" y1="214.6" x2="419.7" y2="246.6" gradientUnits="userSpaceOnUse">
			<stop offset="0" stop-color="#8980eb"/>
			<stop offset="1" stop-color="#705ab8"/>
		</linearGradient>
		<linearGradient id="g23" x1="411.8" y1="335.1" x2="328.6" y2="293.7" gradientUnits="userSpaceOnUse">
			<stop offset="0" stop-color="#bfd7ff"/>
			<stop offset="1" stop-color="#000000"/>
		</linearGradient>
		<linearGradient id="g24" x1="51.3" y1="97.4" x2="115.5" y2="121.6" gradientUnits="userSpaceOnUse">
			<stop offset="0" stop-color="#4d3fb8"/>
			<stop offset="1" stop-color="#80afff"/>
		</linearGradient>
		<linearGradient id="g25" x1="21.1" y1="86.4" x2="88.4" y2="115.7" gradientUnits="userSpaceOnUse">
			<stop offset="0" stop-color="#86759d"/>
			<stop offset=".4" stop-color="#98abd2"/>
			<stop offset="1" stop-color="#dae1ef"/>
		</linearGradient>
		<linearGradient id="g26" x1="75.8" y1="194.7" x2="-20.2" y2="162.6" gradientUnits="userSpaceOnUse">
			<stop offset="0" stop-color="#8980eb"/>
			<stop offset="1" stop-color="#705ab8"/>
		</linearGradient>
		<linearGradient id="g27" x1="-12.2" y1="73.3" x2="72" y2="115.2" gradientUnits="userSpaceOnUse">
			<stop offset="0" stop-color="#bfd7ff"/>
			<stop offset="1" stop-color="#000000"/>
		</linearGradient>
		<linearGradient id="g28" x1="86.7" y1="283.2" x2="60.3" y2="353.5" gradientUnits="userSpaceOnUse">
			<stop offset="0" stop-color="#4d3fb8"/>
			<stop offset="1" stop-color="#80afff"/>
		</linearGradient>
		<linearGradient id="g29" x1="97.7" y1="250.5" x2="66.6" y2="323.1" gradientUnits="userSpaceOnUse">
			<stop offset="0" stop-color="#86759d"/>
			<stop offset=".4" stop-color="#98abd2"/>
			<stop offset="1" stop-color="#dae1ef"/>
		</linearGradient>
		<linearGradient id="g30" x1="-23.9" y1="310.8" x2="10.9" y2="205.8" gradientUnits="userSpaceOnUse">
			<stop offset="0" stop-color="#8980eb"/>
			<stop offset="1" stop-color="#705ab8"/>
		</linearGradient>
		<linearGradient id="g31" x1="83.5" y1="240.9" x2="38.3" y2="336.6" gradientUnits="userSpaceOnUse">
			<stop offset="0" stop-color="#bfd7ff"/>
			<stop offset="1" stop-color="#000000"/>
		</linearGradient>
		<linearGradient id="g32" x1="225.7" y1="240.1" x2="225.7" y2="385.5" gradientUnits="userSpaceOnUse">
			<stop offset="0" stop-color="#8980eb"/>
			<stop offset="1" stop-color="#705ab8"/>
		</linearGradient>
		<linearGradient id="g33" x1="249.7" y1="236.4" x2="249.7" y2="403" gradientUnits="userSpaceOnUse">
			<stop offset="0" stop-color="#8980eb"/>
			<stop offset="1" stop-color="#705ab8"/>
		</linearGradient>
		<linearGradient id="g34" x1="230.8" y1="45.5" x2="230.8" y2="115.5" gradientUnits="userSpaceOnUse">
			<stop offset="0" stop-color="#bfd7ff"/>
			<stop offset="1" stop-color="#000000"/>
		</linearGradient>
		<linearGradient id="g35" x1="192.5" y1="375.1" x2="192.5" y2="297.6" gradientUnits="userSpaceOnUse">
			<stop offset="0" stop-color="#bfd7ff"/>
			<stop offset="1" stop-color="#000000"/>
		</linearGradient>
		<linearGradient id="g36" x1="192.5" y1="341.4" x2="192.5" y2="281.1" gradientUnits="userSpaceOnUse">
			<stop offset="0" stop-color="#ffffff"/>
			<stop offset="1" stop-color="#fff7c4"/>
		</linearGradient>
		<linearGradient id="g37" x1="176.3" y1="165.2" x2="176.3" y2="72.1" gradientUnits="userSpaceOnUse">
			<stop offset="0" stop-color="#8980eb"/>
			<stop offset="1" stop-color="#705ab8"/>
		</linearGradient>
		<radialGradient id="g38" cx="141.4" cy="353.7" r="28.9" gradientUnits="userSpaceOnUse">
			<stop offset="0" stop-color="#8980eb"/>
			<stop offset=".9" stop-color="#000000"/>
		</radialGradient>
		<linearGradient id="g39" x1="297.1" y1="234.5" x2="297.1" y2="149.4" gradientUnits="userSpaceOnUse">
			<stop offset="0" stop-color="#8980eb"/>
			<stop offset="1" stop-color="#705ab8"/>
		</linearGradient>
		<linearGradient id="g40" x1="463.8" y1="212.4" x2="463.8" y2="295.8" gradientUnits="userSpaceOnUse">
			<stop offset="0" stop-color="#bfd7ff"/>
			<stop offset="1" stop-color="#000000"/>
		</linearGradient>
		<linearGradient id="g41" x1="96.3" y1="212.4" x2="96.3" y2="295" gradientUnits="userSpaceOnUse">
			<stop offset="0" stop-color="#bfd7ff"/>
			<stop offset="1" stop-color="#000000"/>
		</linearGradient>
		<linearGradient id="g42" x1="-71" y1="234.5" x2="-71" y2="149.4" gradientUnits="userSpaceOnUse">
			<stop offset="0" stop-color="#8980eb"/>
			<stop offset="1" stop-color="#705ab8"/>
		</linearGradient>
		<linearGradient id="g43" x1="142.1" y1="447.2" x2="142.1" y2="321.5" gradientUnits="userSpaceOnUse">
			<stop offset="0" stop-color="#705ab8"/>
			<stop offset="1" stop-color="#181d3b"/>
		</linearGradient>
		<linearGradient id="g44" x1="239.1" y1="447.2" x2="239.1" y2="321.5" gradientUnits="userSpaceOnUse">
			<stop offset="0" stop-color="#705ab8"/>
			<stop offset="1" stop-color="#181d3b"/>
		</linearGradient>
	</defs>
	<style>
		.s0 { fill: url(#g1) } 
		.s1 { opacity: .5;mix-blend-mode: multiply;fill: url(#g2) } 
		.s2 { fill: url(#g3) } 
		.s3 { opacity: .5;mix-blend-mode: multiply;fill: url(#g4) } 
		.s4 { opacity: .5;mix-blend-mode: multiply;fill: url(#g5) } 
		.s5 { fill: url(#g6) } 
		.s6 { opacity: .5;mix-blend-mode: multiply;fill: url(#g7) } 
		.s7 { opacity: .5;mix-blend-mode: multiply;fill: url(#g8) } 
		.s8 { fill: url(#g9) } 
		.s9 { opacity: .5;mix-blend-mode: multiply;fill: url(#g10) } 
		.s10 { opacity: .5;mix-blend-mode: color-dodge;fill: url(#g11) } 
		.s11 { opacity: .5;mix-blend-mode: multiply;fill: url(#g12) } 
		.s12 { fill: url(#g13) } 
		.s13 { opacity: .5;mix-blend-mode: multiply;fill: url(#g14) } 
		.s14 { opacity: .5;mix-blend-mode: color-dodge;fill: url(#g15) } 
		.s15 { opacity: .5;mix-blend-mode: multiply;fill: url(#g16) } 
		.s16 { fill: url(#g17) } 
		.s17 { opacity: .5;mix-blend-mode: multiply;fill: url(#g18) } 
		.s18 { opacity: .5;mix-blend-mode: color-dodge;fill: url(#g19) } 
		.s19 { opacity: .5;mix-blend-mode: multiply;fill: url(#g20) } 
		.s20 { fill: url(#g21) } 
		.s21 { opacity: .5;mix-blend-mode: multiply;fill: url(#g22) } 
		.s22 { opacity: .5;mix-blend-mode: color-dodge;fill: url(#g23) } 
		.s23 { opacity: .5;mix-blend-mode: multiply;fill: url(#g24) } 
		.s24 { fill: url(#g25) } 
		.s25 { opacity: .5;mix-blend-mode: multiply;fill: url(#g26) } 
		.s26 { opacity: .5;mix-blend-mode: color-dodge;fill: url(#g27) } 
		.s27 { opacity: .5;mix-blend-mode: multiply;fill: url(#g28) } 
		.s28 { fill: url(#g29) } 
		.s29 { opacity: .5;mix-blend-mode: multiply;fill: url(#g30) } 
		.s30 { opacity: .5;mix-blend-mode: color-dodge;fill: url(#g31) } 
		.s31 { opacity: .5;mix-blend-mode: multiply;fill: url(#g32) } 
		.s32 { opacity: .5;mix-blend-mode: multiply;fill: url(#g33) } 
		.s33 { opacity: .5;mix-blend-mode: color-dodge;fill: url(#g34) } 
		.s34 { fill: #736fa8 } 
		.s35 { opacity: .5;mix-blend-mode: color-dodge;fill: url(#g35) } 
		.s36 { fill: url(#g36) } 
		.s37 { opacity: .5;mix-blend-mode: multiply;fill: url(#g37) } 
		.s38 { fill: #ffffff } 
		.s39 { opacity: .8;mix-blend-mode: color-dodge;fill: url(#g38) } 
		.s40 { opacity: .5;mix-blend-mode: multiply;fill: url(#g39) } 
		.s41 { opacity: .5;mix-blend-mode: color-dodge;fill: url(#g40) } 
		.s42 { opacity: .5;mix-blend-mode: color-dodge;fill: url(#g41) } 
		.s43 { opacity: .5;mix-blend-mode: multiply;fill: url(#g42) } 
		.s44 { fill: url(#g43) } 
		.s45 { fill: url(#g44) } 
	</style>
	<path id="Layer" fill-rule="evenodd" class="s0" d="m400.1 288.7c-1.7 4-53 18.2-73.3 23.6-5.8 6.5-12.2 12.7-19 18.3-5 18.1-20.5 72-24.7 73.7-5.1 2.1-71-33.6-74.9-35.7q-4.1 0.1-8.1 0.1-4.1 0-8.1-0.1c-3.8 2.1-69.7 37.8-74.8 35.7-4.2-1.7-19.7-55.6-24.8-73.7-6.8-5.6-13.2-11.8-18.9-18.3-20.4-5.4-71.7-19.6-73.3-23.6-0.4-0.8 0.1-7.9 0-8.2-1.8-4.1 22.4-48.1 32.4-65.9 0-0.3-1.1-10 0-19.8-10-17.8-32.7-60-32.4-65.9 0-0.3-0.4-7.5 0-8.3 1.6-4 52.9-18.1 73.3-23.6 5.7-6.5 12.1-12.6 18.9-18.2 5.1-18.2 20.6-71.9 24.8-73.7 5.1-2.2 71 33.7 74.8 35.7q4-0.2 8.1-0.2 4 0 8.1 0.2c3.9-2 69.8-37.9 74.9-35.7 4.2 1.8 19.7 55.5 24.7 73.7 6.8 5.6 13.2 11.7 19 18.2 20.3 5.5 71.6 19.6 73.3 23.6 0.4 0.8 0 8 0 8.3 0.1 4.6-22.4 48.1-32.4 65.9 0.7 9.9 0 19.5 0 19.8 10 17.8 34.2 61.8 32.4 65.9-0.2 0.3 0.4 7.4 0 8.2zm-73.4-84c0-68.4-56.6-123.7-126.6-123.7-70 0-126.6 55.3-126.6 123.7 0 68.4 56.6 123.6 126.6 123.6 70 0 126.6-55.2 126.6-123.6z"/>
	<path id="Layer" class="s1" d="m171.2 366.4q0.9 0.2 1.7 0.3c-5 3.6-10.2 6.5-15.4 9.1q0 0-0.2 0-4.5 2.2-8.5 3.8-0.1 0.1-0.3 0.1c-13.4 5.5-24.3 7.5-24.8 7.5q0 0-0.1 0c-6.9-13.2-11.3-26.3-13.9-36.5q0 0 0-0.2-0.1-0.2-0.1-0.3c-0.9-3.1-1.5-5.9-2-8.4q0.7 0.3 1.4 0.8 1.1 0.7 2.1 1.4 1 0.5 1.9 1.1c17 10 36 17.3 56.3 21z"/>
	<path id="Layer" class="s2" d="m170.4 366.3c-8.9 5.7-26.1 15.3-45.3 18 0 0-8-12.3-14-40.3q1 0.5 1.9 1.1c17 10 36 17.3 56.3 21z"/>
	<path id="Layer" class="s3" d="m171.2 366.4c-2.8 2.4-7.7 6.2-13.7 9.4q0 0-0.2 0c-2.4 1.3-5.3 2.6-8.5 3.8q-0.1 0.1-0.3 0.1c-7.1 2.8-15.8 5.5-24.8 7.5q0 0-0.1 0c-0.5-0.9-8.5-14.9-13.9-36.5q0 0 0-0.2-0.1-0.2-0.1-0.3c-0.5-2.4-0.6-5.1-0.6-7.6q1.1 0.7 2.1 1.4 1 0.5 1.9 1.1c3.3 8 8.5 19.3 15.1 27 0 0 19.1 3.2 41.2-6z"/>
	<path id="Layer" class="s4" d="m292.6 341.8q-0.7 3.7-1.9 8.4 0 0.1-0.2 0.3 0 0.2 0 0.2c-2.6 10.2-6.9 23.3-13.9 36.5q0 0-0.1 0c-0.4 0-11.3-2-24.8-7.5q-0.1 0-0.2-0.1-4.3-1.6-8.7-3.8c-5.2-2.6-10.4-5.5-15.5-9.1q0.9-0.1 1.9-0.3l1.7-0.3c20.3-3.7 39.3-11 56.4-21q0.8-0.6 1.8-1.1 1.1-0.7 2.2-1.4 0.7-0.5 1.3-0.8z"/>
	<path id="Layer" class="s5" d="m289.1 344c-5.9 28-13.9 40.3-13.9 40.3-19.2-2.7-36.4-12.3-45.3-18l1-0.2c20.3-3.7 39.3-11 56.4-21q0.8-0.6 1.8-1.1z"/>
	<path id="Layer" class="s6" d="m290.7 350.2q0 0.1-0.2 0.3 0 0.2 0 0.2c-5.4 21.6-13.4 35.6-13.9 36.5q0 0-0.1 0c-8.9-2-17.7-4.8-24.8-7.5q-0.1 0-0.2-0.1c-3.3-1.2-6.2-2.5-8.6-3.8q-0.1 0-0.1 0c-6-3.2-10.9-7-13.6-9.4l1.7-0.3c22.2 9.2 41.3 6 41.3 6 6.7-7.7 11.9-19 15.1-27q0.8-0.6 1.8-1.1 1.1-0.7 2.2-1.4c0 2.5-0.1 5.2-0.6 7.6z"/>
	<path id="Layer" class="s7" d="m171.2 43.1q0.9-0.1 1.7-0.2c-5-3.6-10.2-6.6-15.4-9.1q0 0-0.2 0-4.5-2.1-8.5-3.9-0.1 0-0.3-0.1c-13.4-5.3-24.3-7.3-24.8-7.4q0 0-0.1 0c-6.9 13-11.3 26.3-13.9 36.5q0 0 0 0.2-0.1 0.1-0.1 0.3c-0.9 3.1-1.5 5.9-2 8.4q0.7-0.5 1.4-0.8 1.1-0.7 2.1-1.4 1-0.6 1.9-1.1c17-10.1 36-17.3 56.3-21z"/>
	<path id="Layer" class="s8" d="m170.4 43.3c-8.9-5.7-26.1-15.3-45.3-18 0 0-8 12.3-14 40.3q1-0.6 1.9-1.1c17-10.1 36-17.3 56.3-21z"/>
	<path id="Layer" class="s9" d="m171.2 43.1c-2.8-2.3-7.7-6.1-13.7-9.3q0 0-0.2 0c-2.4-1.3-5.3-2.6-8.5-3.9q-0.1 0-0.3-0.1c-7.1-2.7-15.8-5.3-24.8-7.4q0 0-0.1 0c-0.5 0.8-8.5 14.9-13.9 36.5q0 0 0 0.2-0.1 0.1-0.1 0.3c-0.5 2.3-0.6 5-0.6 7.6q1.1-0.7 2.1-1.4 1-0.6 1.9-1.1c3.3-8.1 8.5-19.5 15.1-27 0 0 19.1-3.2 41.2 6z"/>
	<path id="Layer" class="s10" d="m153.5 20.5c-16.7-5.8-34.5-11.4-34.5-11.4-5.5 8.3-17.1 37.6-17.6 38.9 6.1-20.3 13.1-41.9 15.8-42.9 2.4-1 19.2 6.9 36.3 15.4z"/>
	<path id="Layer" class="s11" d="m229.2 43.1q-0.9-0.1-1.9-0.2c5.1-3.6 10.4-6.6 15.6-9.1q4.5-2.1 8.7-3.9 0.1 0 0.3-0.1c13.4-5.3 24.2-7.3 24.7-7.4 7 13 11.3 26.3 13.9 36.5q0.2 0 0.2 0.2 0 0.1 0 0.3c0.8 3.1 1.4 5.9 2 8.4q-0.7-0.5-1.4-0.8-1.1-0.7-2.2-1.4-0.9-0.6-1.8-1.1c-17.1-10.1-36.1-17.3-56.2-21z"/>
	<path id="Layer" class="s12" d="m229.9 43.3c8.9-5.7 26.2-15.3 45.3-18 0 0 8.1 12.3 13.9 40.3q-0.9-0.6-1.8-1.1c-17.1-10.1-36.1-17.3-56.2-21z"/>
	<path id="Layer" class="s13" d="m229.2 43.1c2.7-2.3 7.6-6.1 13.7-9.3q3.9-2 8.7-3.9 0.1 0 0.3-0.1c7.1-2.7 15.8-5.3 24.7-7.4 0.5 0.8 8.5 14.9 13.9 36.5q0.2 0 0.2 0.2 0 0.1 0 0.3c0.6 2.3 0.7 5 0.6 7.6q-1.1-0.7-2.2-1.4-0.9-0.6-1.8-1.1c-3.2-8.1-8.4-19.5-15.1-27 0 0-19.1-3.2-41.1 6z"/>
	<path id="Layer" class="s14" d="m246.8 20.5c16.8-5.8 34.5-11.4 34.5-11.4 5.4 8.3 17.1 37.6 17.6 38.9-6-20.3-13.1-41.9-15.7-42.9-2.6-1-19.2 6.9-36.4 15.4z"/>
	<path id="Layer" class="s15" d="m336.9 109.7q-0.5-0.7-1-1.4c6 1 11.9 2.5 17.4 4.3q0.1 0 0.1 0 4.7 1.5 9 3.3 0.1 0 0.2 0.1c13.3 5.4 22.5 11.5 23 11.8q0 0 0 0c-4.7 14.1-11.1 26.4-16.6 35.5q0 0.1-0.1 0.1 0 0.2-0.1 0.4c-1.7 2.7-3.3 5.2-4.7 7.2q-0.2-0.8-0.4-1.5-0.3-1.3-0.5-2.5-0.3-1-0.6-2c-4.7-18.8-12.9-37.2-24.7-53.7z"/>
	<path id="Layer" class="s16" d="m337.3 110.3c10.5 2.2 29.6 7.4 45.1 18.6 0 0-3.1 14.1-19.2 38.1q-0.3-1-0.6-2c-4.7-18.8-12.9-37.2-24.7-53.7z"/>
	<path id="Layer" class="s17" d="m336.9 109.7c3.7 0.3 9.9 1 16.4 2.9q0.1 0 0.1 0c2.7 0.8 5.7 1.9 9 3.3q0.1 0 0.2 0.1c7 3 15.1 7.1 23 11.8q0 0 0 0c-0.3 1-4.9 16.4-16.6 35.5q0 0.1-0.1 0.1 0 0.2-0.1 0.4c-1.4 2-3.3 4-5.1 5.7q-0.3-1.3-0.5-2.5-0.3-1-0.6-2c3.6-8 8.1-19.6 8.9-29.5 0 0-11.2-15.4-33.6-24.2z"/>
	<path id="Layer" class="s18" d="m365 107.7c15.1 6.7 30.5 14.4 30.5 14.4-1.8 8.8-13.6 35.7-14.2 36.9 9.6-17.5 19.2-36.1 18.1-38.5-0.9-2.3-17.3-7.6-34.3-12.8q0 0-0.1 0z"/>
	<path id="Layer" class="s19" d="m336.9 299.5q-0.5 0.7-1 1.4c6-1 11.9-2.5 17.4-4.2q0.1 0 0.1 0 4.7-1.7 9-3.4 0.1 0 0.2-0.1c13.3-5.4 22.5-11.4 23-11.7q0 0 0-0.1c-4.7-14-11.1-26.3-16.6-35.6q0 0-0.1 0 0-0.2-0.1-0.3c-1.7-2.9-3.3-5.2-4.7-7.3q-0.2 0.8-0.4 1.5-0.3 1.3-0.5 2.5-0.3 1-0.6 2c-4.7 18.9-12.9 37.2-24.7 53.7z"/>
	<path id="Layer" class="s20" d="m337.3 298.9c10.5-2.2 29.6-7.4 45.1-18.6 0 0-3.1-14.1-19.2-38.1q-0.3 1-0.6 2c-4.7 18.9-12.9 37.2-24.7 53.7z"/>
	<path id="Layer" class="s21" d="m336.9 299.5c3.7-0.3 9.9-1 16.4-2.8q0.1 0 0.1 0c2.7-0.9 5.7-2 9-3.4q0.1 0 0.2-0.1c7-2.9 15.1-7.1 23-11.7q0 0 0-0.1c-0.3-0.9-4.9-16.4-16.6-35.6q0 0-0.1 0 0-0.2-0.1-0.3c-1.4-2.1-3.3-4.1-5.1-5.8q-0.3 1.3-0.5 2.5-0.3 1-0.6 2c3.6 8.1 8.1 19.6 8.9 29.5 0 0-11.2 15.5-33.6 24.2z"/>
	<path id="Layer" class="s22" d="m365 301.5c15.1-6.6 30.5-14.3 30.5-14.3-1.8-8.9-13.6-35.7-14.2-36.9 9.6 17.4 19.2 36 18.1 38.4-0.9 2.3-17.3 7.6-34.3 12.8q0 0-0.1 0z"/>
	<path id="Layer" class="s23" d="m62.6 109.7q0.5-0.7 1-1.4c-6.1 1-12.1 2.5-17.5 4.3q0 0-0.1 0-4.7 1.5-8.8 3.3-0.1 0-0.2 0.1c-13.5 5.4-22.7 11.5-23.1 11.8q0 0 0 0c4.5 14.1 11.1 26.4 16.5 35.5q0.1 0.1 0.1 0.1 0.2 0.2 0.2 0.4c1.8 2.7 3.3 5.2 4.7 7.2q0.2-0.8 0.3-1.5 0.2-1.3 0.6-2.5 0.3-1 0.5-2c4.7-18.8 13-37.2 24.7-53.7z"/>
	<path id="Layer" class="s24" d="m62.1 110.3c-10.4 2.2-29.5 7.4-45.1 18.6 0 0 3.3 14.1 19.3 38.1q0.3-1 0.5-2c4.7-18.8 13-37.2 24.7-53.7z"/>
	<path id="Layer" class="s25" d="m62.6 109.7c-3.8 0.3-9.9 1-16.5 2.9q0 0-0.1 0c-2.6 0.8-5.7 1.9-8.8 3.3q-0.1 0-0.2 0.1c-7.2 3-15.1 7.1-23.1 11.8q0 0 0 0c0.4 1 4.9 16.4 16.5 35.5q0.1 0.1 0.1 0.1 0.2 0.2 0.2 0.4c1.3 2 3.2 4 5 5.7q0.2-1.3 0.6-2.5 0.3-1 0.5-2c-3.6-8-8.1-19.6-8.8-29.5 0 0 11.2-15.4 33.5-24.2z"/>
	<path id="Layer" class="s26" d="m34.4 107.7c-15.1 6.7-30.5 14.4-30.5 14.4 2 8.8 13.8 36.7 14.3 38-9.1-16.6-18.8-38.7-18.1-39.6 1.4-1.9 17.3-7.6 34.3-12.8z"/>
	<path id="Layer" class="s27" d="m62.6 299.5q0.5 0.7 1 1.4c-6.1-1-12.1-2.5-17.5-4.2q0 0-0.1 0-4.7-1.7-8.8-3.4-0.1 0-0.2-0.1c-13.5-5.4-22.7-11.4-23.1-11.7q0 0 0-0.1c4.5-14 11.1-26.3 16.5-35.6q0.1 0 0.1 0 0.2-0.2 0.2-0.3c1.8-2.9 3.3-5.2 4.7-7.3q0.2 0.8 0.3 1.5 0.2 1.3 0.6 2.5 0.3 1 0.5 2c4.7 18.9 13 37.2 24.7 53.7z"/>
	<path id="Layer" class="s28" d="m62.1 298.9c-10.4-2.2-29.5-7.4-45.1-18.6 0 0 3.3-14.1 19.3-38.1q0.3 1 0.5 2c4.7 18.9 13 37.2 24.7 53.7z"/>
	<path id="Layer" class="s29" d="m62.6 299.5c-3.8-0.3-9.9-1-16.5-2.8q0 0-0.1 0c-2.6-0.9-5.7-2-8.8-3.4q-0.1 0-0.2-0.1c-7.2-2.9-15.1-7.1-23.1-11.7q0 0 0-0.1c0.4-0.9 4.9-16.4 16.5-35.6q0.1 0 0.1 0 0.2-0.2 0.2-0.3c1.3-2.1 3.2-4.1 5-5.8q0.2 1.3 0.6 2.5 0.3 1 0.5 2c-3.6 8.1-8.1 19.6-8.8 29.5 0 0 11.2 15.5 33.5 24.2z"/>
	<path id="Layer" class="s30" d="m34.4 301.5c-15.1-6.6-30.5-14.3-30.5-14.3 2-8.9 13.7-35.7 14.2-36.9-9.4 17.4-19.1 36-18 38.4 0.9 2.3 17.3 7.6 34.3 12.8z"/>
	<path id="Layer" class="s31" d="m356.2 265.1c-24.5 60.6-85.3 103.6-156.1 103.6-67 0-124.9-38.4-151.8-93.9 61.9 55.8 187.7 107.7 307.9-9.7z"/>
	<path id="Layer" class="s32" d="m346.3 307.1c-7.7 2-14.6 4-19.5 5.2-5.8 6.5-12.2 12.7-19 18.3-1.4 5.2-3.7 13.3-6.4 22.3-19.7 13.7-42.6 24.6-65.1 30.6-14.2-7.4-26.5-14.1-28.1-14.9q-4.1 0.1-8.1 0.1-4.1 0-8.1-0.1c-1.6 0.8-14.2 7.7-28.6 15.1-22.7-5.5-45.2-15.9-64.2-29.5-2.8-9.6-5.2-18.3-6.8-23.6-6.8-5.6-13.2-11.8-18.9-18.3-4.2-1-9.7-2.5-15.9-4.3-5.3-10.5-8.7-21.7-9.3-33.2 44.6 72 194.1 157.8 307.9-9.7 2.2 13.7-1.7 28.1-9.9 42z"/>
	<path id="Layer" class="s33" d="m200.1 40.6c-75.9 0-140.1 49.3-160.9 117 27.6-59.5 89.9-87.9 160.9-87.9 77.6 0 142 36.4 164.9 104.5-14.5-76.1-82.8-133.6-164.9-133.6z"/>
	<path id="Layer" fill-rule="evenodd" class="s34" d="m200.1 339.6c-76.4 0-138.2-60.3-138.2-134.9 0-74.6 61.8-135 138.2-135 76.4 0 138.2 60.4 138.2 135 0 74.6-61.8 134.9-138.2 134.9zm126.6-135c0-68.4-56.6-123.7-126.6-123.7-70 0-126.6 55.3-126.6 123.7 0 68.4 56.6 123.7 126.6 123.7 70 0 126.6-55.3 126.6-123.7z"/>
	<path id="Layer" class="s35" d="m88.9 284.7c0 0 37 43.6 111.2 43.6 74.1 0 111.2-43.6 111.2-43.6 0 0-36.1 56.9-111.2 56.9-75 0-111.2-56.9-111.2-56.9z"/>
	<path id="Layer" class="s36" d="m88.9 284.7c0 0 37 54.9 111.2 54.9 74.3 0 111.2-54.9 111.2-54.9 0 0-36.1 56.9-111.2 56.9-75 0-111.2-56.9-111.2-56.9z"/>
	<path id="Layer" class="s37" d="m333.1 167.9c-3.3-1.8-8.2-4.8-15.6-9.6-18.7-45.4-64.3-77.4-117.4-77.4-54.7 0-101.4 34-119 81.7-6.7 6.8-12.6 12.3-16.2 14.6 12.9-61.5 68.5-107.5 135.2-107.5 63.2 0 116.6 41.5 133 98.2z"/>
	<path id="Layer" class="s38" d="m200.1 56.4c-5.4 6.8 38.3 18.1 43.5 13.3 5.3-4.9 0.4-12.1-9.5-13.3-9.9-1.3-29.6-5.5-34 0z"/>
	<path id="Layer" class="s38" d="m190.4 341.3c-3.2-5.8 31.2-11.6 36-7.4 5 4.2-3.6 5.9-3.6 5.9z"/>
	<path id="Layer" class="s39" d="m169.9 361.1c-2.7 10.2-17.8 15-33.5 11-15.8-4-26.3-15.6-23.6-25.8 2.7-10.1 17.7-14.9 33.6-10.9 15.6 4 26.2 15.6 23.5 25.7z"/>
	<path id="Layer" class="s40" d="m400.1 128.9c0.1 4.6-22.4 48.1-32.4 65.9l-0.8-10.6c0 0 28.5-43.2 32.5-63.7l0.9 1.8c0 2.3-0.2 6.3-0.2 6.6z"/>
	<path id="Layer" class="s41" d="m400.1 288.7q-0.2 0.4-0.5 0.6-0.2-0.2-0.2-0.6c-6.8-24.3-32.5-63.5-32.5-63.5l0.8-10.6c10 17.8 34.2 61.8 32.4 65.9-0.2 0.3 0.4 7.4 0 8.2z"/>
	<path id="Layer" class="s42" d="m32.6 214.6v12.2c0 0-19.9 27.8-32.5 61.8-0.3-1.3 0.2-7.8 0.1-8.1-1.8-4.1 22.4-48.1 32.4-65.9z"/>
	<path id="Layer" class="s43" d="m32.6 181.9v12.9c-10-17.8-32.5-60-32.4-65.9 0-0.3-0.4-7.1-0.1-8.3 14.5 39.6 32.5 61.3 32.5 61.3z"/>
	<path id="Layer" class="s44" d="m184.7 368l7.3 0.6c-3.8 2.1-69.7 37.8-74.8 35.7-1.3-0.5-3.4-5.5-6.1-12.6 0.4 0.7 5 9.9 7.4 9.9 2.6 0 66.2-33.6 66.2-33.6z"/>
	<path id="Layer" class="s45" d="m289.1 391.7c-2.6 7.2-4.8 12.1-6 12.6-5.1 2.1-71-33.6-74.9-35.7l9.4-0.8c0 0 44.4 27.3 62.5 32.7 4.5 1.4 8.7-7.9 9-8.8z"/>
</svg>