<svg version="1.2" xmlns="http://www.w3.org/2000/svg" viewBox="0 0 400 410" width="400" height="410">
	<title>frame1</title>
	<defs>
		<linearGradient id="g1" x1="360.2" y1="45.9" x2="360.2" y2="406" gradientUnits="userSpaceOnUse">
			<stop offset="0" stop-color="#cd6d22"/>
			<stop offset="1" stop-color="#c74d3e"/>
		</linearGradient>
		<linearGradient id="g2" x1="178.7" y1="384.7" x2="178.7" y2="287.2" gradientUnits="userSpaceOnUse">
			<stop offset="0" stop-color="#961f63"/>
			<stop offset="1" stop-color="#ea7052"/>
		</linearGradient>
		<radialGradient id="g3" cx="202.1" cy="101.8" r="171.6" gradientUnits="userSpaceOnUse">
			<stop offset="0" stop-color="#ffa41a"/>
			<stop offset="1" stop-color="#ff8836"/>
		</radialGradient>
		<radialGradient id="g4" cx="70.9" cy="121.6" r="26.9" gradientUnits="userSpaceOnUse">
			<stop offset="0" stop-color="#ffa41a"/>
			<stop offset="1" stop-color="#ff8836"/>
		</radialGradient>
		<radialGradient id="g5" cx="43.5" cy="203.1" r="16.9" gradientUnits="userSpaceOnUse">
			<stop offset="0" stop-color="#ffa41a"/>
			<stop offset="1" stop-color="#ff8836"/>
		</radialGradient>
		<radialGradient id="g6" cx="58.2" cy="277" r="19.9" gradientUnits="userSpaceOnUse">
			<stop offset="0" stop-color="#ffa41a"/>
			<stop offset="1" stop-color="#ff8836"/>
		</radialGradient>
		<radialGradient id="g7" cx="210.1" cy="358.2" r="59.7" gradientUnits="userSpaceOnUse">
			<stop offset="0" stop-color="#ffa41a"/>
			<stop offset="1" stop-color="#ff8836"/>
		</radialGradient>
		<radialGradient id="g8" cx="342.4" cy="272.8" r="15.5" gradientUnits="userSpaceOnUse">
			<stop offset="0" stop-color="#ffa41a"/>
			<stop offset="1" stop-color="#ff8836"/>
		</radialGradient>
		<radialGradient id="g9" cx="357.9" cy="199" r="15.3" gradientUnits="userSpaceOnUse">
			<stop offset="0" stop-color="#ffa41a"/>
			<stop offset="1" stop-color="#ff8836"/>
		</radialGradient>
		<radialGradient id="g10" cx="331.7" cy="114.6" r="19.9" gradientUnits="userSpaceOnUse">
			<stop offset="0" stop-color="#ffa41a"/>
			<stop offset="1" stop-color="#ff8836"/>
		</radialGradient>
		<radialGradient id="g11" cx="200.9" cy="53.5" r="73.7" gradientUnits="userSpaceOnUse">
			<stop offset="0" stop-color="#ffa41a"/>
			<stop offset="1" stop-color="#ff8836"/>
		</radialGradient>
		<radialGradient id="g12" cx="200" cy="319.9" r="114.8" gradientUnits="userSpaceOnUse">
			<stop offset="0" stop-color="#ffa41a"/>
			<stop offset="1" stop-color="#ff8836"/>
		</radialGradient>
		<radialGradient id="g13" cx="200" cy="319.9" r="114.8" gradientUnits="userSpaceOnUse">
			<stop offset="0" stop-color="#ffa41a"/>
			<stop offset="1" stop-color="#ff8836"/>
		</radialGradient>
		<linearGradient id="g14" x1="222" y1="72.6" x2="222" y2="172.1" gradientUnits="userSpaceOnUse">
			<stop offset="0" stop-color="#961f63"/>
			<stop offset="1" stop-color="#ea7052"/>
		</linearGradient>
		<radialGradient id="g15" cx="209.3" cy="344.8" r="19.6" gradientUnits="userSpaceOnUse">
			<stop offset="0" stop-color="#ffa41a"/>
			<stop offset="1" stop-color="#ff8836"/>
		</radialGradient>
		<linearGradient id="g16" x1="82.8" y1="273.1" x2="82.8" y2="276.3" gradientUnits="userSpaceOnUse">
			<stop offset="0" stop-color="#961f63"/>
			<stop offset="1" stop-color="#ea7052"/>
		</linearGradient>
		<linearGradient id="g17" x1="63.7" y1="200.2" x2="63.7" y2="202.5" gradientUnits="userSpaceOnUse">
			<stop offset="0" stop-color="#961f63"/>
			<stop offset="1" stop-color="#ea7052"/>
		</linearGradient>
		<linearGradient id="g18" x1="85.5" y1="118.1" x2="99.6" y2="118.1" gradientUnits="userSpaceOnUse">
			<stop offset="0" stop-color="#961f63"/>
			<stop offset="1" stop-color="#ea7052"/>
		</linearGradient>
		<linearGradient id="g19" x1="298" y1="113.2" x2="309.7" y2="113.2" gradientUnits="userSpaceOnUse">
			<stop offset="0" stop-color="#961f63"/>
			<stop offset="1" stop-color="#ea7052"/>
		</linearGradient>
		<linearGradient id="g20" x1="330.5" y1="194.4" x2="342.6" y2="194.4" gradientUnits="userSpaceOnUse">
			<stop offset="0" stop-color="#961f63"/>
			<stop offset="1" stop-color="#ea7052"/>
		</linearGradient>
		<linearGradient id="g21" x1="311.1" y1="269.5" x2="327.3" y2="269.5" gradientUnits="userSpaceOnUse">
			<stop offset="0" stop-color="#961f63"/>
			<stop offset="1" stop-color="#ea7052"/>
		</linearGradient>
	</defs>
	<style>
		.s0 { fill: url(#g1) } 
		.s1 { opacity: .5;mix-blend-mode: multiply;fill: url(#g2) } 
		.s2 { opacity: .5;mix-blend-mode: screen;fill: url(#g3) } 
		.s3 { fill: #7c1338 } 
		.s4 { mix-blend-mode: soft-light;fill: url(#g4) } 
		.s5 { mix-blend-mode: soft-light;fill: url(#g5) } 
		.s6 { mix-blend-mode: soft-light;fill: url(#g6) } 
		.s7 { mix-blend-mode: soft-light;fill: url(#g7) } 
		.s8 { mix-blend-mode: soft-light;fill: url(#g8) } 
		.s9 { mix-blend-mode: soft-light;fill: url(#g9) } 
		.s10 { mix-blend-mode: soft-light;fill: url(#g10) } 
		.s11 { mix-blend-mode: soft-light;fill: url(#g11) } 
		.s12 { opacity: .5;mix-blend-mode: color-dodge;fill: url(#g12) } 
		.s13 { opacity: .5;mix-blend-mode: screen;fill: url(#g13) } 
		.s14 { opacity: .5;mix-blend-mode: multiply;fill: url(#g14) } 
		.s15 { opacity: .5;mix-blend-mode: screen;fill: url(#g15) } 
		.s16 { opacity: .5;mix-blend-mode: multiply;fill: url(#g16) } 
		.s17 { opacity: .5;mix-blend-mode: multiply;fill: url(#g17) } 
		.s18 { opacity: .5;mix-blend-mode: multiply;fill: url(#g18) } 
		.s19 { opacity: .5;mix-blend-mode: multiply;fill: url(#g19) } 
		.s20 { opacity: .5;mix-blend-mode: multiply;fill: url(#g20) } 
		.s21 { opacity: .5;mix-blend-mode: multiply;fill: url(#g21) } 
	</style>
	<path id="Layer" fill-rule="evenodd" class="s0" d="m330.8 319.1c-6 6.9-12.6 13.2-19.6 19.1-5.2 19.3-98.9 42.3-102.9 40.2q-4.2 0.1-8.3 0.1-4.1 0-8.3-0.1c-4 2.1-97.6-20.9-102.9-40.2-7-5.9-13.6-12.2-19.5-19.1-21.1-5.8-52.6-84.6-42.3-103.4 0-0.3-1.1-10.5 0-20.8-10.3-18.8 21.2-97.6 42.3-103.4 5.9-6.9 12.5-13.3 19.5-19.1 5.3-19.4 98.9-42.4 102.9-40.3q4.2-0.1 8.3-0.1 4.1 0 8.3 0.1c4-2.1 97.7 20.9 102.9 40.3 7 5.8 13.6 12.2 19.6 19.1 21 5.8 52.5 84.6 42.2 103.4 0.8 10.5 0 20.5 0 20.8 10.3 18.8-21.2 97.6-42.2 103.4zm-0.1-113.8c0-72.2-58.4-130.6-130.7-130.6-72.2 0-130.6 58.4-130.6 130.6 0 72.2 58.4 130.5 130.6 130.5 72.3 0 130.7-58.3 130.7-130.5z"/>
	<path id="Layer" class="s1" d="m364.9 269.1q0 0.1 0 0.1c-9.2 23.8-23.2 46.9-34.1 49.9-6 6.8-12.6 13.2-19.6 19.1-5.2 19.3-98.9 42.3-102.9 40.2q-4.2 0.1-8.3 0.1-4.1 0-8.3-0.1c-4 2.1-97.6-20.9-102.9-40.2-7-5.9-13.6-12.3-19.5-19.1-9.3-2.5-20.5-19.2-29.3-38.7 63.8 58.9 200.9 112.7 324.9-11.3z"/>
	<path id="Layer" class="s2" d="m330.8 91.5c-6-6.9-12.6-13.3-19.6-19.1-5.2-19.4-98.9-42.4-102.9-40.3q-4.2-0.1-8.3-0.1-4.1 0-8.3 0.1c-4-2.1-97.6 20.9-102.9 40.3-7 5.8-13.6 12.2-19.5 19.1-13.1 3.6-30.2 35.3-38.9 63.2q0.7 1.2 1.3 2.3c28.4-62.7 95-94.3 168.3-94.3 80 0 149.8 36.8 173.7 108.7-5.5-30.3-27.1-75.6-42.9-79.9z"/>
	<path id="Layer" class="s3" d="m46.4 117.3c29.4 3.6 58-1 58-1q-1.9 1.9-3.4 3.9l-57 1.4c0.9-1.4 2.4-4.3 2.4-4.3z"/>
	<path id="Layer" class="s3" d="m351.5 113.4l-57.2 1.5q-0.8-0.8-1.6-1.6l58.1-0.9q0.3 0.5 0.7 1z"/>
	<path id="Layer" class="s3" d="m26.7 200.1l42.8-0.7q0 1.4 0 2.6l-42.9 0.6q0-1.2 0.1-2.5z"/>
	<path id="Layer" class="s3" d="m373 194.9q0.1 1.5 0.2 2.9l-42.7 0.6q-0.1-1.6-0.3-3.3l43-0.7q-0.1 0.2-0.2 0.5z"/>
	<path id="Layer" class="s3" d="m87.3 271.3q1.4 2.4 2.9 4.8c-18.6 0.2-36.1 0.5-51.9 0.7q-1-2.2-1.9-4.4c16 4.2 31.1 1.7 50.9-1.1z"/>
	<path id="Layer" class="s3" d="m366.1 265.8q-1.1 3.1-2.3 6.1c-16.4 0.2-33.8 0.5-51.9 0.8q1.8-2.9 3.4-5.9c15.4 4.5 29.2 5.3 50.8-1z"/>
	<path id="Layer" class="s3" d="m294.5 352.5c-2.5 1.2-5.2 2.5-8 3.7l-170.3 1.2q-4.2-1.8-8.2-3.7c0 0 71.5 1.4 93.2 1.3 24.8-0.2 93.3-2.5 93.3-2.5z"/>
	<path id="Layer" class="s3" d="m285.3 53.8c-55.8-0.7-115.7-1.4-165.8-2.1 3.3-1.2 6.7-2.6 10.2-3.8 0 0 59.3 3 78.1 3 16.3 0 62.5-3 62.5-3 5.2 1.9 10.3 3.8 15 5.9z"/>
	<path id="Layer" class="s4" d="m44 121.6l53.9-1.4c0 0-34.7 5.5-53.9 1.4z"/>
	<path id="Layer" class="s5" d="m26.6 202.6l33.8-0.5c0 0-18.9 3.9-33.8 0.5z"/>
	<path id="Layer" class="s6" d="m38.3 276.8l39.7-0.6c0 0-24.6 3.3-39.7 0.6z"/>
	<path id="Layer" class="s7" d="m150.6 357.4l119.3-1.1c0 0-59.8 7.7-119.3 1.1z"/>
	<path id="Layer" class="s8" d="m327 272.7l30.8-0.7c0 0-17.3 3.5-30.8 0.7z"/>
	<path id="Layer" class="s9" d="m342.6 198.3l30.6-0.5c0 0-7.7 4.5-30.6 0.5z"/>
	<path id="Layer" class="s10" d="m351.5 113.4l-39.6 1.1c0 0 24.9 4 39.6-1.1z"/>
	<path id="Layer" class="s11" d="m127.3 51.8l147.2 2c0 0-63.7 4.1-147.2-2z"/>
	<path id="Layer" fill-rule="evenodd" class="s3" d="m200 347.9c-78.9 0-142.7-63.7-142.7-142.6 0-78.9 63.8-142.6 142.7-142.6 78.8 0 142.6 63.7 142.6 142.6 0 78.9-63.8 142.6-142.6 142.6zm130.7-142.7c0-72.2-58.4-130.5-130.7-130.5-72.2 0-130.6 58.3-130.6 130.5 0 72.3 58.4 130.6 130.6 130.6 72.3 0 130.7-58.3 130.7-130.6z"/>
	<path id="Layer" class="s12" d="m85.3 289.9c0 0 38.1 45.9 114.7 45.9 76.6 0 114.7-45.9 114.7-45.9 0 0-37.2 60-114.7 60-77.5 0-114.7-60-114.7-60z"/>
	<path id="Layer" class="s13" d="m85.3 289.9c0 0 38.1 58 114.7 58 76.6 0 114.7-58 114.7-58 0 0-37.2 60-114.7 60-77.5 0-114.7-60-114.7-60z"/>
	<path id="Layer" class="s14" d="m337.3 166.4c-3.3-1.9-8.5-5-16.1-10-19.4-48-66.3-81.7-121.2-81.7-56.4 0-104.6 35.7-122.8 86-7 7.3-13.1 13.2-16.8 15.7 13.3-64.9 70.7-113.7 139.6-113.7 65.4 0 120.4 43.9 137.3 103.7z"/>
	<path id="Layer" class="s15" d="m189.9 349.6c-3.2-6.2 32.3-12.3 37.4-7.8 5 4.4-3.9 6.3-3.9 6.3z"/>
	<path id="Layer" class="s16" d="m74.4 272.7l14.5 1.4 1.3 2-13.7 0.3z"/>
	<path id="Layer" class="s17" d="m57.5 199.9l12 0.7v1.4l-12.2 0.6z"/>
	<path id="Layer" class="s18" d="m87.2 118.1l12.4 3.5-1.7 2.2-12.4-3z"/>
	<path id="Layer" class="s19" d="m308.3 113.2l-10.3 5.8 1.7 1.9 10-6.7z"/>
	<path id="Layer" class="s20" d="m342.3 194.4l-11.6 2-0.2 2 12.1-0.1z"/>
	<path id="Layer" class="s21" d="m327.3 269.5l-13.8 0.5-2.4 4.1 14.5-1.3z"/>
	<path id="Layer" class="s3" d="m30.4 201.1c2.7-8.1 13.6-6.7 19 0z"/>
	<path id="Layer" class="s3" d="m364.9 269.1c8.3-16.2-20.3-2.1-17.2 1z"/>
</svg>