<svg version="1.2" xmlns="http://www.w3.org/2000/svg" viewBox="0 0 400 410" width="400" height="410">
	<title>frame3</title>
	<defs>
		<linearGradient id="g1" x1="-9.3" y1="359.7" x2="-9.3" y2="-78.1" gradientUnits="userSpaceOnUse">
			<stop offset="0" stop-color="#e5552f"/>
			<stop offset=".5" stop-color="#f77f5c"/>
			<stop offset="1" stop-color="#f7a66c"/>
		</linearGradient>
		<linearGradient id="g2" x1="186.2" y1="325.4" x2="148.1" y2="411.4" gradientUnits="userSpaceOnUse">
			<stop offset="0" stop-color="#e84e1a"/>
			<stop offset=".5" stop-color="#d74348"/>
			<stop offset="1" stop-color="#c62c15"/>
		</linearGradient>
		<linearGradient id="g3" x1="126.3" y1="388.5" x2="126.3" y2="364.1" gradientUnits="userSpaceOnUse">
			<stop offset="0" stop-color="#f7632e"/>
			<stop offset="1" stop-color="#f7b57e"/>
		</linearGradient>
		<linearGradient id="g4" x1="108.9" y1="346.2" x2="171.1" y2="346.2" gradientUnits="userSpaceOnUse">
			<stop offset="0" stop-color="#b01b03"/>
			<stop offset="1" stop-color="#f7ffff"/>
		</linearGradient>
		<linearGradient id="g5" x1="257.6" y1="300.4" x2="301.6" y2="405.4" gradientUnits="userSpaceOnUse">
			<stop offset="0" stop-color="#e84e1a"/>
			<stop offset=".5" stop-color="#d74348"/>
			<stop offset="1" stop-color="#c62c15"/>
		</linearGradient>
		<linearGradient id="g6" x1="244.9" y1="388.5" x2="244.9" y2="364.1" gradientUnits="userSpaceOnUse">
			<stop offset="0" stop-color="#f7632e"/>
			<stop offset="1" stop-color="#f7b57e"/>
		</linearGradient>
		<linearGradient id="g7" x1="229" y1="346.2" x2="291.1" y2="346.2" gradientUnits="userSpaceOnUse">
			<stop offset="0" stop-color="#b01b03"/>
			<stop offset="1" stop-color="#f7ffff"/>
		</linearGradient>
		<linearGradient id="g8" x1="161.3" y1="28.6" x2="189.8" y2="91.2" gradientUnits="userSpaceOnUse">
			<stop offset="0" stop-color="#e84e1a"/>
			<stop offset=".5" stop-color="#d74348"/>
			<stop offset="1" stop-color="#c62c15"/>
		</linearGradient>
		<linearGradient id="g9" x1="147" y1="1.4" x2="172.3" y2="65.2" gradientUnits="userSpaceOnUse">
			<stop offset="0" stop-color="#e5552f"/>
			<stop offset=".5" stop-color="#f77f5c"/>
			<stop offset="1" stop-color="#f7a66c"/>
		</linearGradient>
		<linearGradient id="g10" x1="108.9" y1="18.6" x2="171.1" y2="18.6" gradientUnits="userSpaceOnUse">
			<stop offset="0" stop-color="#b01b03"/>
			<stop offset="1" stop-color="#f7ffff"/>
		</linearGradient>
		<linearGradient id="g11" x1="238.7" y1="55.2" x2="210.3" y2="-7.3" gradientUnits="userSpaceOnUse">
			<stop offset="0" stop-color="#e84e1a"/>
			<stop offset=".5" stop-color="#d74348"/>
			<stop offset="1" stop-color="#c62c15"/>
		</linearGradient>
		<linearGradient id="g12" x1="252.9" y1="83.1" x2="227.8" y2="19.4" gradientUnits="userSpaceOnUse">
			<stop offset="0" stop-color="#e5552f"/>
			<stop offset=".5" stop-color="#f77f5c"/>
			<stop offset="1" stop-color="#f7a66c"/>
		</linearGradient>
		<linearGradient id="g13" x1="229" y1="18.6" x2="291.1" y2="18.6" gradientUnits="userSpaceOnUse">
			<stop offset="0" stop-color="#b01b03"/>
			<stop offset="1" stop-color="#f7ffff"/>
		</linearGradient>
		<linearGradient id="g14" x1="312.3" y1="124.7" x2="339.1" y2="52.8" gradientUnits="userSpaceOnUse">
			<stop offset="0" stop-color="#e84e1a"/>
			<stop offset=".5" stop-color="#d74348"/>
			<stop offset="1" stop-color="#c62c15"/>
		</linearGradient>
		<linearGradient id="g15" x1="301.1" y1="158.3" x2="333.1" y2="83.9" gradientUnits="userSpaceOnUse">
			<stop offset="0" stop-color="#e5552f"/>
			<stop offset=".5" stop-color="#f77f5c"/>
			<stop offset="1" stop-color="#f7a66c"/>
		</linearGradient>
		<linearGradient id="g16" x1="336.7" y1="108.1" x2="385.3" y2="108.1" gradientUnits="userSpaceOnUse">
			<stop offset="0" stop-color="#b01b03"/>
			<stop offset="1" stop-color="#f7ffff"/>
		</linearGradient>
		<linearGradient id="g17" x1="347.9" y1="314.4" x2="283.7" y2="290.3" gradientUnits="userSpaceOnUse">
			<stop offset="0" stop-color="#e84e1a"/>
			<stop offset=".5" stop-color="#d74348"/>
			<stop offset="1" stop-color="#c62c15"/>
		</linearGradient>
		<linearGradient id="g18" x1="378.2" y1="325.6" x2="310.9" y2="296.4" gradientUnits="userSpaceOnUse">
			<stop offset="0" stop-color="#e5552f"/>
			<stop offset=".5" stop-color="#f77f5c"/>
			<stop offset="1" stop-color="#f7a66c"/>
		</linearGradient>
		<linearGradient id="g19" x1="336.7" y1="240.9" x2="385.3" y2="240.9" gradientUnits="userSpaceOnUse">
			<stop offset="0" stop-color="#b01b03"/>
			<stop offset="1" stop-color="#f7ffff"/>
		</linearGradient>
		<linearGradient id="g20" x1="51.3" y1="95.7" x2="115.4" y2="119.8" gradientUnits="userSpaceOnUse">
			<stop offset="0" stop-color="#e84e1a"/>
			<stop offset=".5" stop-color="#d74348"/>
			<stop offset="1" stop-color="#c62c15"/>
		</linearGradient>
		<linearGradient id="g21" x1="21.1" y1="84.6" x2="88.3" y2="113.7" gradientUnits="userSpaceOnUse">
			<stop offset="0" stop-color="#e5552f"/>
			<stop offset=".5" stop-color="#f77f5c"/>
			<stop offset="1" stop-color="#f7a66c"/>
		</linearGradient>
		<linearGradient id="g22" x1="13.9" y1="108.1" x2="62.5" y2="108.1" gradientUnits="userSpaceOnUse">
			<stop offset="0" stop-color="#b01b03"/>
			<stop offset="1" stop-color="#f7ffff"/>
		</linearGradient>
		<linearGradient id="g23" x1="86.9" y1="285.3" x2="60" y2="357.4" gradientUnits="userSpaceOnUse">
			<stop offset="0" stop-color="#e84e1a"/>
			<stop offset=".5" stop-color="#d74348"/>
			<stop offset="1" stop-color="#c62c15"/>
		</linearGradient>
		<linearGradient id="g24" x1="98.1" y1="251.9" x2="66.1" y2="326.2" gradientUnits="userSpaceOnUse">
			<stop offset="0" stop-color="#e5552f"/>
			<stop offset=".5" stop-color="#f77f5c"/>
			<stop offset="1" stop-color="#f7a66c"/>
		</linearGradient>
		<linearGradient id="g25" x1="13.9" y1="240.9" x2="62.5" y2="240.9" gradientUnits="userSpaceOnUse">
			<stop offset="0" stop-color="#b01b03"/>
			<stop offset="1" stop-color="#f7ffff"/>
		</linearGradient>
		<linearGradient id="g26" x1="62" y1="519.6" x2="62" y2="70.1" gradientUnits="userSpaceOnUse">
			<stop offset="0" stop-color="#f36134"/>
			<stop offset="1" stop-color="#c40721"/>
		</linearGradient>
		<linearGradient id="g27" x1="192.4" y1="344.9" x2="192.4" y2="283.3" gradientUnits="userSpaceOnUse">
			<stop offset="0" stop-color="#f7ffeb"/>
			<stop offset="1" stop-color="#f7fcb0"/>
		</linearGradient>
		<radialGradient id="g28" cx="141.2" cy="357.6" r="29" gradientUnits="userSpaceOnUse">
			<stop offset="0" stop-color="#df5a29"/>
			<stop offset="1" stop-color="#020500"/>
		</radialGradient>
		<linearGradient id="g29" x1="303.2" y1="332.5" x2="303.2" y2="215" gradientUnits="userSpaceOnUse">
			<stop offset="0" stop-color="#e5552f"/>
			<stop offset=".5" stop-color="#f77f5c"/>
			<stop offset="1" stop-color="#f7a66c"/>
		</linearGradient>
		<linearGradient id="g30" x1="-63.6" y1="332.5" x2="-63.6" y2="215" gradientUnits="userSpaceOnUse">
			<stop offset="0" stop-color="#e5552f"/>
			<stop offset=".5" stop-color="#f77f5c"/>
			<stop offset="1" stop-color="#f7a66c"/>
		</linearGradient>
	</defs>
	<style>
		.s0 { fill: url(#g1) } 
		.s1 { fill: url(#g2) } 
		.s2 { fill: url(#g3) } 
		.s3 { opacity: .5;mix-blend-mode: multiply;fill: url(#g4) } 
		.s4 { fill: url(#g5) } 
		.s5 { fill: url(#g6) } 
		.s6 { opacity: .5;mix-blend-mode: multiply;fill: url(#g7) } 
		.s7 { fill: url(#g8) } 
		.s8 { fill: url(#g9) } 
		.s9 { opacity: .5;mix-blend-mode: multiply;fill: url(#g10) } 
		.s10 { mix-blend-mode: soft-light;fill: #f7ffff } 
		.s11 { fill: url(#g11) } 
		.s12 { fill: url(#g12) } 
		.s13 { opacity: .5;mix-blend-mode: multiply;fill: url(#g13) } 
		.s14 { fill: url(#g14) } 
		.s15 { fill: url(#g15) } 
		.s16 { opacity: .5;mix-blend-mode: multiply;fill: url(#g16) } 
		.s17 { fill: url(#g17) } 
		.s18 { fill: url(#g18) } 
		.s19 { opacity: .5;mix-blend-mode: multiply;fill: url(#g19) } 
		.s20 { fill: url(#g20) } 
		.s21 { fill: url(#g21) } 
		.s22 { opacity: .5;mix-blend-mode: multiply;fill: url(#g22) } 
		.s23 { fill: url(#g23) } 
		.s24 { fill: url(#g24) } 
		.s25 { opacity: .5;mix-blend-mode: multiply;fill: url(#g25) } 
		.s26 { opacity: .5;mix-blend-mode: multiply;fill: #c10065 } 
		.s27 { fill: url(#g26) } 
		.s28 { fill: url(#g27) } 
		.s29 { opacity: .2;mix-blend-mode: multiply;fill: #d01bdc } 
		.s30 { fill: #f7ffff } 
		.s31 { opacity: .8;mix-blend-mode: color-dodge;fill: url(#g28) } 
		.s32 { fill: url(#g29) } 
		.s33 { fill: url(#g30) } 
	</style>
	<path id="Layer" fill-rule="evenodd" class="s0" d="m399.8 291.1c-1.7 4.1-52.9 18.6-73.2 24.2-5.9 6.6-12.2 12.8-19 18.5-5.1 18.7-20.5 73.6-24.7 75.5-5 2.1-70.9-34.4-74.9-36.6q-3.9 0.2-8 0.2-4.1 0-8.1-0.2c-3.8 2.2-69.7 38.7-74.8 36.6-4.2-1.9-19.6-56.8-24.8-75.5-6.7-5.7-13-11.9-18.8-18.5-20.5-5.6-71.6-20.1-73.3-24.2-0.4-0.8 0.1-8.1 0-8.5-1.8-4.1 22.4-49.1 32.4-67.4 0-0.2-1.1-10.1 0-20.2-10-18.2-32.6-61.3-32.4-67.4 0-0.4-0.4-7.6 0-8.5 1.7-4 52.8-18.5 73.3-24.1 5.8-6.7 12.1-12.8 18.8-18.5 5.2-18.7 20.6-73.7 24.8-75.4 5.1-2.2 71 34.3 74.8 36.5q4-0.2 8.1-0.2 4.1 0 8 0.2c4-2.2 69.9-38.7 74.9-36.5 4.2 1.7 19.6 56.7 24.7 75.4 6.8 5.7 13.1 11.8 19 18.5 20.3 5.6 71.5 20.1 73.2 24.1 0.4 0.9 0 8.1 0 8.5 0.1 4.7-22.4 49.2-32.4 67.4 0.7 10.1 0 20 0 20.2 10 18.3 34.2 63.3 32.4 67.4-0.1 0.4 0.4 7.7 0 8.5zm-73.4-86c0-69.9-56.5-126.3-126.4-126.3-69.9 0-126.4 56.4-126.4 126.3 0 69.9 56.5 126.4 126.4 126.4 69.9 0 126.4-56.5 126.4-126.4z"/>
	<path id="Layer" class="s1" d="m171.1 370.5q0.8 0.1 1.7 0.3c-5 3.6-10.3 6.7-15.4 9.2q-0.1 0-0.1 0.1c-3 1.4-5.9 2.7-8.7 3.9q-0.1 0.1-0.3 0.1c-13.3 5.5-24.1 7.6-24.7 7.7-7-13.4-11.3-27-14-37.4q0-0.1 0-0.2-0.1-0.1-0.1-0.4c-0.7-3.1-1.5-6-2-8.5q0.7 0.4 1.4 0.9 1.1 0.7 2.2 1.4 0.9 0.5 1.9 1.1c16.9 10.3 35.9 17.7 56.1 21.4z"/>
	<path id="Layer" class="s2" d="m170.3 370.4c-9 5.9-26.2 15.5-45.3 18.4 0 0-8-12.5-13.9-41.2q0.9 0.5 1.9 1.1c16.9 10.3 35.9 17.7 56.1 21.4z"/>
	<path id="Layer" class="s3" d="m171.1 370.5c-2.8 2.4-7.7 6.3-13.7 9.5q-0.1 0-0.1 0.1c-2.5 1.2-5.5 2.6-8.7 3.9q-0.1 0.1-0.3 0.1c-7.1 2.8-15.8 5.5-24.7 7.7-0.5-0.9-8.5-15.4-14-37.4q0-0.1 0-0.2-0.1-0.1-0.1-0.4c-0.5-2.3-0.7-5.1-0.6-7.6q1.1 0.7 2.2 1.4 0.9 0.5 1.9 1.1c3.1 8.3 8.3 19.8 15 27.6 0 0 19.1 3.3 41.1-6.2z"/>
	<path id="Layer" class="s4" d="m292.4 345.3c-0.5 2.5-1.1 5.4-1.9 8.5q-0.1 0.3-0.1 0.4-0.1 0.1-0.1 0.2c-2.6 10.4-7 24-13.9 37.4-0.6-0.1-11.4-2.2-24.8-7.7q-0.2 0-0.2-0.1c-2.9-1.2-5.8-2.5-8.8-4-5.1-2.5-10.4-5.6-15.5-9.2q0.9-0.2 1.9-0.3l1.8-0.4c20.3-3.7 39.3-11.1 56.3-21.4q0.9-0.6 1.7-1.1 1.2-0.7 2.3-1.4 0.6-0.5 1.3-0.9z"/>
	<path id="Layer" class="s5" d="m288.8 347.6c-5.8 28.7-13.8 41.2-13.8 41.2-19.2-2.9-36.4-12.5-45.3-18.4l1.1-0.3c20.3-3.7 39.3-11.1 56.3-21.4q0.9-0.6 1.7-1.1z"/>
	<path id="Layer" class="s6" d="m290.5 353.8q-0.1 0.3-0.1 0.4-0.1 0.1-0.1 0.2c-5.4 22-13.4 36.5-13.9 37.4-9-2.2-17.7-4.9-24.8-7.7q-0.2 0-0.2-0.1c-3.3-1.3-6.2-2.7-8.6-3.9q-0.1-0.1-0.2-0.1c-6-3.2-10.9-7.1-13.6-9.5l1.8-0.4c22 9.5 41.2 6.2 41.2 6.2 6.7-7.8 11.8-19.3 15.1-27.6q0.9-0.6 1.7-1.1 1.2-0.7 2.3-1.4c0 2.5-0.1 5.3-0.6 7.6z"/>
	<path id="Layer" class="s7" d="m171.1 40q0.8-0.2 1.7-0.4c-5-3.6-10.3-6.7-15.4-9.2q-0.1 0-0.1 0-4.5-2.3-8.7-3.9-0.1 0-0.3-0.1c-13.3-5.6-24.1-7.7-24.7-7.8-7 13.6-11.3 27-14 37.5q0 0 0 0.1-0.1 0.2-0.1 0.4c-0.7 3.2-1.5 6.1-2 8.6q0.7-0.5 1.4-0.9 1.1-0.7 2.2-1.4 0.9-0.6 1.9-1.2c16.9-10.2 35.9-17.6 56.1-21.4z"/>
	<path id="Layer" class="s8" d="m170.3 40.1c-9-5.8-26.2-15.6-45.3-18.5 0 0-8 12.6-13.9 41.3q0.9-0.6 1.9-1.2c16.9-10.2 35.9-17.6 56.1-21.4z"/>
	<path id="Layer" class="s9" d="m171.1 40c-2.8-2.5-7.7-6.3-13.7-9.6q-0.1 0-0.1 0c-2.5-1.3-5.5-2.6-8.7-3.9q-0.1 0-0.3-0.1c-7.1-2.8-15.8-5.6-24.7-7.8-0.5 1-8.5 15.5-14 37.5q0 0 0 0.1-0.1 0.2-0.1 0.4c-0.5 2.3-0.7 5.1-0.6 7.7q1.1-0.7 2.2-1.4 0.9-0.6 1.9-1.2c3.1-8.2 8.3-19.8 15-27.5 0 0 19.1-3.3 41.1 6.1z"/>
	<path id="Layer" class="s10" d="m153.4 16.9c-16.7-6.2-34.5-11.7-34.5-11.7-5.4 8.4-17.1 38.4-17.6 39.8 6.1-20.9 13.2-42.9 15.8-43.9 2.4-1.1 19.2 7 36.2 15.8q0.1 0 0.1 0z"/>
	<path id="Layer" class="s11" d="m229 40q-0.9-0.2-1.8-0.4c5-3.6 10.3-6.7 15.5-9.2q0.1 0 0.1 0 4.4-2.3 8.6-3.9 0.1 0 0.2-0.1c13.4-5.6 24.2-7.7 24.8-7.8q0.1 0 0.1 0c6.9 13.6 11.3 27 13.9 37.5q0 0 0 0.1 0.1 0.2 0.1 0.4c0.8 3.2 1.5 6.1 1.9 8.6q-0.6-0.5-1.3-0.9-1-0.7-2.2-1.4-0.9-0.6-1.8-1.2c-17-10.2-36-17.6-56.2-21.4z"/>
	<path id="Layer" class="s12" d="m229.8 40.1c8.9-5.8 26-15.6 45.3-18.5 0 0 7.9 12.6 13.8 41.3q-0.9-0.6-1.8-1.2c-17-10.2-36-17.6-56.2-21.4z"/>
	<path id="Layer" class="s13" d="m229 40c2.8-2.5 7.6-6.3 13.7-9.6q0.1 0 0.1 0 3.6-1.9 8.6-3.9 0.1 0 0.2-0.1c7.2-2.8 15.8-5.6 24.8-7.8q0.1 0 0.1 0c0.5 1 8.4 15.5 13.9 37.5q0 0 0 0.1 0.1 0.2 0.1 0.4c0.5 2.3 0.7 5.1 0.6 7.7q-1-0.7-2.2-1.4-0.9-0.6-1.8-1.2c-3.2-8.2-8.4-19.8-15-27.5 0 0-19.2-3.3-41.2 6.1z"/>
	<path id="Layer" class="s10" d="m246.6 16.9c16.8-6.2 34.5-11.7 34.5-11.7 5.4 8.4 17 38.4 17.6 39.8-6.1-20.9-13.1-42.9-15.7-43.9-2.5-1.1-19.3 7-36.4 15.8z"/>
	<path id="Layer" class="s14" d="m336.7 108.1q-0.6-0.7-1.1-1.5c6.1 0.9 12 2.5 17.5 4.4q0.1 0 0.1 0.1c3.1 0.9 6.1 2.1 8.8 3.2q0.2 0.1 0.3 0.2c13.4 5.5 22.5 11.6 23 12-4.6 14.5-11 27-16.6 36.3q0 0.1 0 0.1-0.1 0.2-0.3 0.5c-1.6 2.7-3.2 5.2-4.6 7.3q-0.2-0.8-0.4-1.6-0.2-1.2-0.5-2.5-0.3-1-0.5-2c-4.8-19.4-13-38-24.7-54.9z"/>
	<path id="Layer" class="s15" d="m337.1 108.7c10.4 2.2 29.5 7.4 45.1 18.9 0 0-3.2 14.6-19.3 39q-0.3-1-0.5-2c-4.8-19.4-13-38-24.7-54.9z"/>
	<path id="Layer" class="s16" d="m336.7 108.1c3.6 0.2 9.8 0.8 16.4 2.9q0.1 0 0.1 0.1c2.6 0.7 5.7 1.9 8.8 3.2q0.2 0.1 0.3 0.2c7 3 15.1 7.2 23 12-0.3 1-4.9 16.8-16.6 36.3q0 0.1 0 0.1-0.1 0.2-0.3 0.5c-1.2 1.9-3.1 4-5 5.7q-0.2-1.2-0.5-2.5-0.3-1-0.5-2c3.6-8.2 8-20 8.8-30.2 0 0-11.2-15.9-33.5-24.7z"/>
	<path id="Layer" class="s10" d="m364.8 106.1c15 6.7 30.4 14.5 30.4 14.5-1.9 9.1-13.6 36.5-14.1 37.8 9.4-17.8 19-36.9 18-39.3-0.9-2.3-17.2-7.8-34.3-13z"/>
	<path id="Layer" class="s17" d="m336.7 302q-0.6 0.8-1.1 1.5c6.1-1 12-2.5 17.5-4.4q0.1 0 0.1 0c3.1-1 6.1-2.2 8.8-3.3q0.2-0.1 0.3-0.1c13.4-5.6 22.5-11.8 23-12q0 0 0-0.1c-4.6-14.4-11-27-16.6-36.3q0 0 0-0.1-0.1-0.2-0.3-0.4c-1.6-2.8-3.2-5.2-4.6-7.4q-0.2 0.7-0.4 1.5-0.2 1.4-0.5 2.6-0.3 1-0.5 2.1c-4.8 19.3-13 37.9-24.7 54.9z"/>
	<path id="Layer" class="s18" d="m337.1 301.4c10.4-2.1 29.5-7.4 45.1-18.9 0 0-3.2-14.5-19.3-39q-0.3 1-0.5 2.1c-4.8 19.3-13 37.9-24.7 54.9z"/>
	<path id="Layer" class="s19" d="m336.7 302c3.6-0.2 9.8-0.9 16.4-2.9q0.1 0 0.1 0c2.6-0.8 5.7-1.9 8.8-3.3q0.2-0.1 0.3-0.1c7-3.1 15.1-7.3 23-12q0 0 0-0.1c-0.3-1-4.9-16.9-16.6-36.3q0 0 0-0.1-0.1-0.2-0.3-0.4c-1.2-2-3.1-4.1-5-5.9q-0.2 1.4-0.5 2.6-0.3 1-0.5 2.1c3.6 8.1 8 20 8.8 30.2 0 0-11.2 15.8-33.5 24.7z"/>
	<path id="Layer" class="s10" d="m364.8 304.1c15-6.8 30.4-14.6 30.4-14.6-1.9-9.1-13.6-36.5-14.1-37.8 9.4 17.8 19 36.9 18 39.3-0.9 2.3-17.2 7.9-34.3 13.1z"/>
	<path id="Layer" class="s20" d="m62.5 108.1q0.5-0.7 1.1-1.5c-6.1 0.9-12.1 2.5-17.5 4.4q0 0-0.1 0.1c-3.1 0.9-6.1 2.1-8.9 3.2q0 0.1-0.2 0.2c-13.4 5.5-22.5 11.6-23 12 4.6 14.5 11 27 16.6 36.3q0 0.1 0.1 0.1 0 0.2 0.1 0.5c1.7 2.7 3.3 5.2 4.7 7.3q0.2-0.8 0.3-1.6 0.3-1.2 0.7-2.5 0.1-1 0.4-2c4.7-19.4 13-38 24.6-54.9z"/>
	<path id="Layer" class="s21" d="m62.1 108.7c-10.5 2.2-29.5 7.4-45.1 18.9 0 0 3.2 14.6 19.4 39q0.1-1 0.4-2c4.7-19.4 13-38 24.6-54.9z"/>
	<path id="Layer" class="s22" d="m62.5 108.1c-3.7 0.2-9.8 0.8-16.4 2.9q0 0-0.1 0.1c-2.6 0.7-5.6 1.9-8.9 3.2q0 0.1-0.2 0.2c-7 3-15.1 7.2-23 12 0.2 1 4.9 16.8 16.6 36.3q0 0.1 0.1 0.1 0 0.2 0.1 0.5c1.4 1.9 3.2 4 5 5.7q0.3-1.2 0.7-2.5 0.1-1 0.4-2c-3.6-8.2-8.1-20-8.9-30.2 0 0 11.3-15.9 33.5-24.7z"/>
	<path id="Layer" class="s10" d="m34.4 106.1c-15.1 6.7-30.4 14.5-30.4 14.5 1.8 9.1 13.6 36.5 14.1 37.8-9.5-17.8-19-36.9-18-39.3 1-2.3 17.3-7.8 34.2-13q0.1 0 0.1 0z"/>
	<path id="Layer" class="s23" d="m62.5 302q0.5 0.8 1.1 1.5c-6.1-1-12.1-2.5-17.5-4.4q0 0-0.1 0c-3.1-1-6.1-2.2-8.9-3.3q0-0.1-0.2-0.1c-13.4-5.6-22.5-11.8-23-12q0 0 0-0.1c4.6-14.4 11-27 16.6-36.3q0 0 0.1-0.1 0-0.2 0.1-0.4c1.7-2.8 3.3-5.2 4.7-7.4q0.2 0.7 0.3 1.5 0.3 1.4 0.7 2.6 0.1 1 0.4 2.1c4.7 19.3 13 37.9 24.6 54.9z"/>
	<path id="Layer" class="s24" d="m62.1 301.4c-10.5-2.1-29.5-7.4-45.1-18.9 0 0 3.2-14.5 19.4-39q0.1 1 0.4 2.1c4.7 19.3 13 37.9 24.6 54.9z"/>
	<path id="Layer" class="s25" d="m62.5 302c-3.7-0.2-9.8-0.9-16.4-2.9q0 0-0.1 0c-2.6-0.8-5.6-1.9-8.9-3.3q0-0.1-0.2-0.1c-7-3.1-15.1-7.3-23-12q0 0 0-0.1c0.2-1 4.9-16.9 16.6-36.3q0 0 0.1-0.1 0-0.2 0.1-0.4c1.4-2 3.2-4.1 5-5.9q0.3 1.4 0.7 2.6 0.1 1 0.4 2.1c-3.6 8.1-8.1 20-8.9 30.2 0 0 11.3 15.8 33.5 24.7z"/>
	<path id="Layer" class="s10" d="m34.4 304.1c-15.1-6.8-30.4-14.6-30.4-14.6 1.8-9.1 13.6-36.5 14.1-37.8-9.5 17.8-19 36.9-18 39.3 1 2.3 17.3 7.9 34.2 13.1q0.1 0 0.1 0z"/>
	<path id="Layer" class="s26" d="m356 266.8c-24.6 62.2-85.2 106-156 106-67 0-124.8-39.3-151.6-96 61.8 57 187.4 110.2 307.6-10z"/>
	<path id="Layer" class="s26" d="m346 309.7c-7.6 2.2-14.4 4.2-19.4 5.6-5.9 6.6-12.2 12.8-19 18.5-1.5 5.3-3.8 13.7-6.4 22.9-19.7 13.9-42.5 25.1-65.1 31.2-14.1-7.5-26.4-14.3-28.1-15.2q-3.9 0.2-8 0.2-4.1 0-8.1-0.2c-1.6 0.9-14.3 7.9-28.7 15.5-22.7-5.7-45.1-16.3-64-30.3-2.8-9.6-5.3-18.5-6.9-24.1-6.7-5.7-13-11.9-18.8-18.5-4.2-1.3-9.8-2.8-15.9-4.5-5.4-10.8-8.7-22.2-9.2-34 44.5 73.7 193.9 161.3 307.6-10 2.1 14.2-1.8 28.8-10 42.9z"/>
	<path id="Layer" class="s10" d="m200 37.4c-75.9 0-140 50.4-160.8 119.6 27.5-60.7 89.8-89.9 160.8-89.9 77.3 0 141.7 37.2 164.8 106.8-14.6-77.7-82.8-136.5-164.8-136.5z"/>
	<path id="Layer" fill-rule="evenodd" class="s27" d="m200 343.1c-76.3 0-138-61.7-138-138 0-76.3 61.7-138 138-138 76.3 0 138 61.7 138 138 0 76.3-61.7 138-138 138zm126.4-138c0-69.9-56.5-126.4-126.4-126.4-69.9 0-126.4 56.5-126.4 126.4 0 69.9 56.5 126.4 126.4 126.4 69.9 0 126.4-56.5 126.4-126.4z"/>
	<path id="Layer" class="s10" d="m88.9 287c0 0 37 44.5 111.1 44.5 74.1 0 111-44.5 111-44.5 0 0-36 58.1-111 58.1-75 0-111.1-58.1-111.1-58.1z"/>
	<path id="Layer" class="s28" d="m88.9 287c0 0 37 56.1 111.1 56.1 74.1 0 111-56.1 111-56.1 0 0-36 58.1-111 58.1-75 0-111.1-58.1-111.1-58.1z"/>
	<path id="Layer" class="s29" d="m332.8 167.6c-3.3-1.9-8.2-4.9-15.5-9.9-18.8-46.3-64.2-79-117.3-79-54.7 0-101.3 34.7-118.9 83.3-6.7 7-12.6 12.6-16.3 15 13-62.7 68.5-109.9 135.2-109.9 63.2 0 116.5 42.5 132.8 100.5z"/>
	<path id="Layer" class="s30" d="m200 53.4c-5.5 7.1 38.3 18.7 43.5 13.7 5.3-5 0.3-12.4-9.5-13.7-9.9-1.2-29.7-5.5-34 0z"/>
	<path id="Layer" class="s30" d="m190.2 344.8c-3.2-5.9 31.3-11.9 36.1-7.6 5 4.4-3.7 6.1-3.7 6.1z"/>
	<path id="Layer" class="s31" d="m169.7 365.1c-2.7 10.4-17.7 15.4-33.4 11.2-15.8-4.1-26.3-15.9-23.5-26.3 2.7-10.3 17.6-15.3 33.4-11.2 15.7 4.1 26.3 15.9 23.5 26.3z"/>
	<path id="Layer" class="s32" d="m399.8 291.1q-0.1 0.3-0.5 0.6-0.1-0.3-0.2-0.7c-6.8-24.8-32.3-65-32.3-65l0.6-10.8c10 18.3 34.2 63.3 32.4 67.4-0.1 0.4 0.4 7.7 0 8.5z"/>
	<path id="Layer" class="s33" d="m32.6 215.2v12.5c0 0-19.9 28.4-32.5 63.3-0.3-1.4 0.2-8 0.1-8.4-1.8-4.1 22.4-49.1 32.4-67.4z"/>
</svg>