<svg version="1.2" xmlns="http://www.w3.org/2000/svg" viewBox="0 0 555 550" width="555" height="550"><defs><linearGradient id="P" gradientUnits="userSpaceOnUse"/><linearGradient id="g1" x1="451.6" y1="149.4" x2="451.6" y2="735.7" href="#P"><stop stop-color="#ca6022"/><stop offset="1" stop-color="#ffa933"/></linearGradient><linearGradient id="g2" x1="230.8" y1="360.4" x2="331.8" y2="360.4" href="#P"><stop stop-color="#ed8a1d"/><stop offset="1" stop-color="#b41e2d"/></linearGradient><linearGradient id="g3" x1="276.7" y1="230.6" x2="302.6" y2="169.1" href="#P"><stop stop-color="#ca6b34"/><stop offset=".6" stop-color="#ffbd2b"/><stop offset="1" stop-color="#ffa933"/></linearGradient><linearGradient id="g4" x1="341.3" y1="221.6" x2="292.6" y2="222.9" href="#P"><stop stop-color="#ebbd38"/><stop offset="1"/></linearGradient><linearGradient id="g5" x1="208.6" y1="240.3" x2="207" y2="203.3" href="#P"><stop stop-color="#ca6b34"/><stop offset=".7" stop-color="#ffa933"/><stop offset="1" stop-color="#ffbd2b"/></linearGradient><linearGradient id="g6" x1="268.9" y1="199" x2="257.9" y2="254.9" href="#P"><stop stop-color="#b41e2d"/><stop offset="1" stop-color="#b41e2d"/></linearGradient><linearGradient id="g7" x1="263.5" y1="304" x2="168" y2="330" href="#P"><stop stop-color="#ca6b34"/><stop offset=".6" stop-color="#ffbd2b"/><stop offset="1" stop-color="#ffa933"/></linearGradient><linearGradient id="g8" x1="181.1" y1="287.2" x2="230.5" y2="316.2" href="#P"><stop stop-color="#f27a13"/><stop offset="1" stop-color="#b41e2d"/></linearGradient><linearGradient id="g9" x1="255" y1="390.2" x2="255" y2="349.4" href="#P"><stop stop-color="#ca6b34"/><stop offset=".7" stop-color="#ffa933"/><stop offset="1" stop-color="#ffbd2b"/></linearGradient><linearGradient id="g10" x1="243.8" y1="385.9" x2="245" y2="352.8" href="#P"><stop stop-color="#b41e2d"/><stop offset="1" stop-color="#b41e2d"/></linearGradient><linearGradient id="g11" x1="328" y1="307" x2="349.2" y2="264" href="#P"><stop stop-color="#ca6b34"/><stop offset=".6" stop-color="#ffbd2b"/><stop offset="1" stop-color="#ffa933"/></linearGradient><linearGradient id="g12" x1="347.7" y1="322.6" x2="334.1" y2="273.7" href="#P"><stop stop-color="#ebbd38"/><stop offset="1"/></linearGradient><linearGradient id="g13" x1="159.6" y1="678.6" x2="159.6" y2="-155" href="#P"><stop stop-color="#ca6b34"/><stop offset=".7" stop-color="#ffa933"/><stop offset="1" stop-color="#ffbd2b"/></linearGradient><linearGradient id="g14" x1="146.7" y1="235" x2="279.2" y2="235" href="#P"><stop stop-color="#fff"/><stop offset=".4" stop-color="#ed8a1d"/><stop offset="1" stop-color="#b41e2d"/></linearGradient><linearGradient id="g15" x1="279.2" y1="235" x2="407" y2="235" href="#P"><stop stop-color="#fff"/><stop offset=".4" stop-color="#ed8a1d"/><stop offset="1" stop-color="#b41e2d"/></linearGradient><linearGradient id="g16" x1="360.4" y1="328.3" x2="274.9" y2="462.6" href="#P"><stop stop-color="#f27a13"/><stop offset="1" stop-color="#b41e2d"/></linearGradient><linearGradient id="g17" x1="332.6" y1="388" x2="283" y2="388" href="#P"><stop stop-color="#f27a13"/><stop offset="1" stop-color="#b41e2d"/></linearGradient><linearGradient id="g18" x1="504.4" y1="144.9" x2="504.4" y2="289" href="#P"><stop stop-color="#ebbd38"/><stop offset="1"/></linearGradient><linearGradient id="g19" x1="389" y1="332.1" x2="276.9" y2="204.3" href="#P"><stop stop-color="#bfd7ff"/><stop offset="1"/></linearGradient><linearGradient id="g20" x1="249.6" y1="240.6" x2="419.7" y2="203.1" href="#P"><stop stop-color="#ebbd38"/><stop offset="1"/></linearGradient><linearGradient id="g21" x1="221.5" y1="144.9" x2="221.5" y2="289" href="#P"><stop stop-color="#ebbd38"/><stop offset="1"/></linearGradient><linearGradient id="g22" x1="126.6" y1="373.5" x2="126.6" y2="256.4" href="#P"><stop stop-color="#fff"/><stop offset=".4" stop-color="#ed8a1d"/><stop offset="1" stop-color="#b41e2d"/></linearGradient><linearGradient id="g23" x1="251.5" y1="366.5" x2="251.5" y2="248.2" href="#P"><stop stop-color="#fff"/><stop offset=".4" stop-color="#ed8a1d"/><stop offset="1" stop-color="#b41e2d"/></linearGradient><linearGradient id="g24" x1="233.8" y1="474.2" x2="233.8" y2="269.4" href="#P"><stop stop-color="#fff"/><stop offset=".4" stop-color="#ed8a1d"/><stop offset="1" stop-color="#b41e2d"/></linearGradient><linearGradient id="g25" x1="233" y1="230.5" x2="184" y2="230.5" href="#P"><stop stop-color="#eb861e"/><stop offset=".4" stop-color="#ed8a1d"/><stop offset="1" stop-color="#b41e2d"/></linearGradient><linearGradient id="g26" x1="349.3" y1="229.8" x2="303.4" y2="229.8" href="#P"><stop stop-color="#eb861e"/><stop offset=".4" stop-color="#ed8a1d"/><stop offset="1" stop-color="#b41e2d"/></linearGradient><linearGradient id="g27" x1="289.9" y1="348" x2="289.9" y2="378.3" href="#P"><stop stop-color="#fff"/><stop offset=".4" stop-color="#ed8a1d"/><stop offset="1" stop-color="#b41e2d"/></linearGradient><linearGradient id="g28" x1="147.2" y1="235" x2="404.6" y2="235" href="#P"><stop stop-color="#fff"/><stop offset=".4" stop-color="#ed8a1d"/><stop offset="1" stop-color="#b41e2d"/></linearGradient><linearGradient id="g29" x1="260" y1="312.5" x2="260" y2="272.4" href="#P"><stop stop-color="#eb861e"/><stop offset=".4" stop-color="#ed8a1d"/><stop offset="1" stop-color="#b41e2d"/></linearGradient><linearGradient id="g30" x1="243.2" y1="302.8" x2="243.7" y2="238" href="#P"><stop stop-color="#ca6b34"/><stop offset=".5" stop-color="#ffa933"/><stop offset="1" stop-color="#ffbd2b"/></linearGradient><linearGradient id="g31" x1="297.4" y1="283.3" x2="271.6" y2="311.1" href="#P"><stop stop-color="#fff"/><stop offset=".4" stop-color="#ed8a1d"/><stop offset="1" stop-color="#b41e2d"/></linearGradient><linearGradient id="g32" x1="304.5" y1="253" x2="304.5" y2="283.1" href="#P"><stop stop-color="#ca6b34"/><stop offset=".7" stop-color="#ffa933"/><stop offset="1" stop-color="#ffbd2b"/></linearGradient><linearGradient id="g33" x1="297.5" y1="266" x2="297.3" y2="313.5" href="#P"><stop stop-color="#ffa933"/><stop offset="1" stop-color="#ffef9b"/></linearGradient><linearGradient id="g34" x1="261.4" y1="251.9" x2="298.4" y2="251.9" href="#P"><stop stop-color="#d16509"/><stop offset="1" stop-color="#8d2c1b"/></linearGradient><linearGradient id="g35" x1="293.3" y1="267.1" x2="284.2" y2="280" href="#P"><stop stop-color="#de3c14"/><stop offset="1" stop-color="#db0f0f"/></linearGradient><linearGradient id="g36" x1="264.9" y1="286.2" x2="291.1" y2="259.3" href="#P"><stop stop-color="#b51818"/><stop offset="1" stop-color="#f22f22"/></linearGradient><linearGradient id="g37" x1="275.6" y1="242.2" x2="303.6" y2="261" href="#P"><stop stop-color="#b51818"/><stop offset="1" stop-color="#f22f22"/></linearGradient><linearGradient id="g38" x1="267.3" y1="286.6" x2="257" y2="276.2" href="#P"><stop stop-color="#b51818"/><stop offset="1" stop-color="#f22f22"/></linearGradient><linearGradient id="g39" x1="257.4" y1="261.4" x2="276.9" y2="245.3" href="#P"><stop stop-color="#b51818"/><stop offset="1" stop-color="#f22f22"/></linearGradient><linearGradient id="g40" x1="289.1" y1="253.7" x2="289.1" y2="253.7" href="#P"><stop stop-color="#fff"/><stop offset="1" stop-color="#fff7c4"/></linearGradient><linearGradient id="g41" x1="280" y1="271.4" x2="280" y2="271.4" href="#P"><stop stop-color="#fff"/><stop offset="1" stop-color="#fff7c4"/></linearGradient><linearGradient id="g42" x1="241.3" y1="184.6" x2="241.3" y2="-10.1" href="#P"><stop stop-color="#ca6b34"/><stop offset=".7" stop-color="#ffa933"/><stop offset="1" stop-color="#ffbd2b"/></linearGradient><linearGradient id="g43" x1="243.1" y1="137.1" x2="243.1" y2="39.9" href="#P"><stop stop-color="#fff"/><stop offset=".4" stop-color="#ed8a1d"/><stop offset="1" stop-color="#b41e2d"/></linearGradient><linearGradient id="g44" x1="310.1" y1="-47.2" x2="310.1" y2="120.4" href="#P"><stop stop-color="#ca6b34"/><stop offset=".7" stop-color="#ffa933"/><stop offset="1" stop-color="#ffbd2b"/></linearGradient><linearGradient id="g45" x1="240" y1="123.8" x2="240" y2="26.8" href="#P"><stop stop-color="#fff"/><stop offset=".4" stop-color="#ed8a1d"/><stop offset="1" stop-color="#b41e2d"/></linearGradient><linearGradient id="g46" x1="301.7" y1="3.2" x2="290.7" y2="65.6" href="#P"><stop stop-color="#ebbd38"/><stop offset="1"/></linearGradient><linearGradient id="g47" x1="301.9" y1="48.4" x2="301.9" y2="11.8" href="#P"><stop stop-color="#fff"/><stop offset="1" stop-color="#fff7c4"/></linearGradient><radialGradient id="g48" cx="286.5" cy="81.9" r="51.3" href="#P"><stop stop-color="#f4a940"/><stop offset="1"/></radialGradient><linearGradient id="g49" x1="184.6" y1="393.1" x2="-10.1" y2="393.1" href="#P"><stop stop-color="#ca6b34"/><stop offset=".7" stop-color="#ffa933"/><stop offset="1" stop-color="#ffbd2b"/></linearGradient><linearGradient id="g50" x1="137.1" y1="367.9" x2="39.9" y2="367.9" href="#P"><stop stop-color="#fff"/><stop offset=".4" stop-color="#ed8a1d"/><stop offset="1" stop-color="#b41e2d"/></linearGradient><linearGradient id="g51" x1="-47.2" y1="191.2" x2="120.4" y2="191.2" href="#P"><stop stop-color="#ca6b34"/><stop offset=".7" stop-color="#ffa933"/><stop offset="1" stop-color="#ffbd2b"/></linearGradient><linearGradient id="g52" x1="123.8" y1="363.4" x2="26.8" y2="363.4" href="#P"><stop stop-color="#fff"/><stop offset=".4" stop-color="#ed8a1d"/><stop offset="1" stop-color="#b41e2d"/></linearGradient><linearGradient id="g53" x1="10.4" y1="211.6" x2="72.7" y2="222.7" href="#P"><stop stop-color="#ebbd38"/><stop offset="1"/></linearGradient><linearGradient id="g54" x1="48.4" y1="257" x2="11.8" y2="257" href="#P"><stop stop-color="#fff"/><stop offset="1" stop-color="#fff7c4"/></linearGradient><radialGradient id="g55" cx="81.9" cy="267.2" r="61.9" href="#P"><stop stop-color="#f4a940"/><stop offset="1"/></radialGradient><linearGradient id="g56" x1="609.8" y1="393.1" x2="415.2" y2="393.1" href="#P"><stop stop-color="#ca6b34"/><stop offset=".7" stop-color="#ffa933"/><stop offset="1" stop-color="#ffbd2b"/></linearGradient><linearGradient id="g57" x1="544.6" y1="367.9" x2="447.3" y2="367.9" href="#P"><stop stop-color="#fff"/><stop offset=".4" stop-color="#ed8a1d"/><stop offset="1" stop-color="#b41e2d"/></linearGradient><linearGradient id="g58" x1="354.3" y1="191.2" x2="521.9" y2="191.2" href="#P"><stop stop-color="#ca6b34"/><stop offset=".7" stop-color="#ffa933"/><stop offset="1" stop-color="#ffbd2b"/></linearGradient><linearGradient id="g59" x1="531.2" y1="363.4" x2="434.3" y2="363.4" href="#P"><stop stop-color="#fff"/><stop offset=".4" stop-color="#ed8a1d"/><stop offset="1" stop-color="#b41e2d"/></linearGradient><linearGradient id="g60" x1="528.5" y1="211.6" x2="590.8" y2="222.7" href="#P"><stop stop-color="#ebbd38"/><stop offset="1"/></linearGradient><linearGradient id="g61" x1="551.6" y1="257" x2="515" y2="257" href="#P"><stop stop-color="#fff"/><stop offset="1" stop-color="#fff7c4"/></linearGradient><radialGradient id="g62" cx="473.1" cy="267.2" r="61.9" href="#P"><stop stop-color="#f4a940"/><stop offset="1"/></radialGradient><linearGradient id="g63" x1="241.3" y1="539.3" x2="241.3" y2="436" href="#P"><stop stop-color="#ca6b34"/><stop offset=".7" stop-color="#ffa933"/><stop offset="1" stop-color="#ffbd2b"/></linearGradient><linearGradient id="g64" x1="310.1" y1="475.8" x2="310.1" y2="556.6" href="#P"><stop stop-color="#ca6b34"/><stop offset=".7" stop-color="#ffa933"/><stop offset="1" stop-color="#ffbd2b"/></linearGradient><linearGradient id="g65" x1="240" y1="530.1" x2="240" y2="467.6" href="#P"><stop stop-color="#fff"/><stop offset=".4" stop-color="#ed8a1d"/><stop offset="1" stop-color="#b41e2d"/></linearGradient><linearGradient id="g66" x1="122.8" y1="32.8" x2="180" y2="32.8" href="#P"><stop stop-color="#ca6b34"/><stop offset=".7" stop-color="#ffa933"/><stop offset="1" stop-color="#ffbd2b"/></linearGradient><linearGradient id="g67" x1="73.4" y1="180.8" x2="48.8" y2="41.9" href="#P"><stop stop-color="#fff"/><stop offset=".4" stop-color="#ed8a1d"/><stop offset="1" stop-color="#b41e2d"/></linearGradient><linearGradient id="g68" x1="95.4" y1="70.9" x2="111.8" y2="45" href="#P"><stop stop-color="#f27a13"/><stop offset="1" stop-color="#b41e2d"/></linearGradient><linearGradient id="g69" x1="155.3" y1="47.2" x2="165.1" y2="48.8" href="#P"><stop stop-color="#ebbd38"/><stop offset="1"/></linearGradient><linearGradient id="g70" x1="153.9" y1="88.2" x2="129.7" y2="61.6" href="#P"><stop stop-color="#ebbd38"/><stop offset="1"/></linearGradient><linearGradient id="g71" x1="145.7" y1="147.1" x2="107.1" y2="135.2" href="#P"><stop stop-color="#fff"/><stop offset=".4" stop-color="#ed8a1d"/><stop offset="1" stop-color="#b41e2d"/></linearGradient><linearGradient id="g72" x1="85.3" y1="195" x2="51.6" y2="99.3" href="#P"><stop stop-color="#fff"/><stop offset=".4" stop-color="#ed8a1d"/><stop offset="1" stop-color="#b41e2d"/></linearGradient><linearGradient id="g73" x1="43.1" y1="119.6" x2="142.4" y2="119.6" href="#P"><stop stop-color="#ca6b34"/><stop offset=".7" stop-color="#ffa933"/><stop offset="1" stop-color="#ffbd2b"/></linearGradient><linearGradient id="g74" x1="130.2" y1="230.7" x2="28.6" y2="128.4" href="#P"><stop stop-color="#fff"/><stop offset=".4" stop-color="#ed8a1d"/><stop offset="1" stop-color="#b41e2d"/></linearGradient><linearGradient id="g75" x1="106.9" y1="150.6" x2="109.5" y2="135.4" href="#P"><stop stop-color="#f27a13"/><stop offset="1" stop-color="#b41e2d"/></linearGradient><linearGradient id="g76" x1="117.1" y1="152.8" x2="118.8" y2="143.4" href="#P"><stop stop-color="#ebbd38"/><stop offset="1"/></linearGradient><linearGradient id="g77" x1="89.4" y1="139" x2="53.8" y2="150.3" href="#P"><stop stop-color="#ebbd38"/><stop offset="1"/></linearGradient><linearGradient id="g78" x1="148.7" y1="156.4" x2="108.8" y2="192.1" href="#P"><stop stop-color="#fff"/><stop offset=".4" stop-color="#ed8a1d"/><stop offset="1" stop-color="#b41e2d"/></linearGradient><linearGradient id="g79" x1="93.6" y1="100.4" x2="118.8" y2="125.9" href="#P"><stop stop-color="#fff"/><stop offset=".4" stop-color="#ed8a1d"/><stop offset="1" stop-color="#b41e2d"/></linearGradient><linearGradient id="g80" x1="86.2" y1="175.8" x2="48" y2="101.6" href="#P"><stop stop-color="#ca6b34"/><stop offset=".7" stop-color="#ffa933"/><stop offset="1" stop-color="#ffbd2b"/></linearGradient><linearGradient id="g81" x1="144" y1="76.5" x2="156.5" y2="139.2" href="#P"><stop stop-color="#fff"/><stop offset=".4" stop-color="#ed8a1d"/><stop offset="1" stop-color="#b41e2d"/></linearGradient><linearGradient id="g82" x1="88.7" y1="108.6" x2="132" y2="79.1" href="#P"><stop stop-color="#f27a13"/><stop offset="1" stop-color="#b41e2d"/></linearGradient><linearGradient id="g83" x1="93.3" y1="114.3" x2="132.9" y2="87.3" href="#P"><stop stop-color="#ebbd38"/><stop offset="1"/></linearGradient><linearGradient id="g84" x1="116.4" y1="77.8" x2="74.2" y2="74.9" href="#P"><stop stop-color="#ebbd38"/><stop offset="1"/></linearGradient><linearGradient id="g85" x1="375" y1="32.8" x2="432.2" y2="32.8" href="#P"><stop stop-color="#ca6b34"/><stop offset=".7" stop-color="#ffa933"/><stop offset="1" stop-color="#ffbd2b"/></linearGradient><linearGradient id="g86" x1="413" y1="-46.4" x2="514.4" y2="57.6" href="#P"><stop stop-color="#fff"/><stop offset=".4" stop-color="#ed8a1d"/><stop offset="1" stop-color="#b41e2d"/></linearGradient><linearGradient id="g87" x1="459.5" y1="76.4" x2="461.2" y2="124.9" href="#P"><stop stop-color="#f27a13"/><stop offset="1" stop-color="#b41e2d"/></linearGradient><linearGradient id="g88" x1="602.2" y1="106" x2="599.1" y2="148.8" href="#P"><stop stop-color="#ebbd38"/><stop offset="1"/></linearGradient><linearGradient id="g89" x1="355.5" y1="49.7" x2="379.7" y2="23.1" href="#P"><stop stop-color="#ebbd38"/><stop offset="1"/></linearGradient><linearGradient id="g90" x1="388.8" y1="82.4" x2="427.4" y2="70.5" href="#P"><stop stop-color="#fff"/><stop offset=".4" stop-color="#ed8a1d"/><stop offset="1" stop-color="#b41e2d"/></linearGradient><linearGradient id="g91" x1="409.8" y1="5.1" x2="478.5" y2="55.6" href="#P"><stop stop-color="#fff"/><stop offset=".4" stop-color="#ed8a1d"/><stop offset="1" stop-color="#b41e2d"/></linearGradient><linearGradient id="g92" x1="412.6" y1="119.6" x2="511.8" y2="119.6" href="#P"><stop stop-color="#ca6b34"/><stop offset=".7" stop-color="#ffa933"/><stop offset="1" stop-color="#ffbd2b"/></linearGradient><linearGradient id="g93" x1="473.5" y1="89.4" x2="489.2" y2="183" href="#P"><stop stop-color="#fff"/><stop offset=".4" stop-color="#ed8a1d"/><stop offset="1" stop-color="#b41e2d"/></linearGradient><linearGradient id="g94" x1="461.1" y1="152.5" x2="411.3" y2="149.3" href="#P"><stop stop-color="#f27a13"/><stop offset="1" stop-color="#b41e2d"/></linearGradient><linearGradient id="g95" x1="455.2" y1="152" x2="412.5" y2="149.2" href="#P"><stop stop-color="#ebbd38"/><stop offset="1"/></linearGradient><linearGradient id="g96" x1="472.8" y1="117.7" x2="508.4" y2="129" href="#P"><stop stop-color="#ebbd38"/><stop offset="1"/></linearGradient><linearGradient id="g97" x1="426.1" y1="133.6" x2="466" y2="169.4" href="#P"><stop stop-color="#fff"/><stop offset=".4" stop-color="#ed8a1d"/><stop offset="1" stop-color="#b41e2d"/></linearGradient><linearGradient id="g98" x1="443.4" y1="152.7" x2="440.1" y2="133" href="#P"><stop stop-color="#fff"/><stop offset=".4" stop-color="#ed8a1d"/><stop offset="1" stop-color="#b41e2d"/></linearGradient><linearGradient id="g99" x1="413.5" y1="187" x2="407.5" y2="101.9" href="#P"><stop stop-color="#ca6b34"/><stop offset=".7" stop-color="#ffa933"/><stop offset="1" stop-color="#ffbd2b"/></linearGradient><linearGradient id="g100" x1="412" y1="121.2" x2="407" y2="63.2" href="#P"><stop stop-color="#fff"/><stop offset=".4" stop-color="#ed8a1d"/><stop offset="1" stop-color="#b41e2d"/></linearGradient><linearGradient id="g101" x1="468.2" y1="122.8" x2="427.3" y2="159.8" href="#P"><stop stop-color="#f27a13"/><stop offset="1" stop-color="#b41e2d"/></linearGradient><linearGradient id="g102" x1="462.7" y1="124.9" x2="426.8" y2="157.3" href="#P"><stop stop-color="#ebbd38"/><stop offset="1"/></linearGradient><linearGradient id="g103" x1="437.2" y1="64.3" x2="479.5" y2="61.4" href="#P"><stop stop-color="#ebbd38"/><stop offset="1"/></linearGradient><linearGradient id="g104" x1="122.8" y1="416.9" x2="180" y2="416.9" href="#P"><stop stop-color="#ca6b34"/><stop offset=".7" stop-color="#ffa933"/><stop offset="1" stop-color="#ffbd2b"/></linearGradient><linearGradient id="g105" x1="142" y1="595.5" x2="40.6" y2="491.6" href="#P"><stop stop-color="#fff"/><stop offset=".4" stop-color="#ed8a1d"/><stop offset="1" stop-color="#b41e2d"/></linearGradient><linearGradient id="g106" x1="95.5" y1="472.8" x2="93.8" y2="424.3" href="#P"><stop stop-color="#f27a13"/><stop offset="1" stop-color="#b41e2d"/></linearGradient><linearGradient id="g107" x1="-47.2" y1="443.2" x2="-44.1" y2="400.3" href="#P"><stop stop-color="#ebbd38"/><stop offset="1"/></linearGradient><linearGradient id="g108" x1="199.5" y1="499.5" x2="175.3" y2="526.1" href="#P"><stop stop-color="#ebbd38"/><stop offset="1"/></linearGradient><linearGradient id="g109" x1="166.2" y1="466.7" x2="127.6" y2="478.6" href="#P"><stop stop-color="#fff"/><stop offset=".4" stop-color="#ed8a1d"/><stop offset="1" stop-color="#b41e2d"/></linearGradient><linearGradient id="g110" x1="145.2" y1="544.1" x2="76.4" y2="493.5" href="#P"><stop stop-color="#fff"/><stop offset=".4" stop-color="#ed8a1d"/><stop offset="1" stop-color="#b41e2d"/></linearGradient><linearGradient id="g111" x1="43.1" y1="372.6" x2="142.4" y2="372.6" href="#P"><stop stop-color="#ca6b34"/><stop offset=".7" stop-color="#ffa933"/><stop offset="1" stop-color="#ffbd2b"/></linearGradient><linearGradient id="g112" x1="81.5" y1="459.8" x2="65.8" y2="366.2" href="#P"><stop stop-color="#fff"/><stop offset=".4" stop-color="#ed8a1d"/><stop offset="1" stop-color="#b41e2d"/></linearGradient><linearGradient id="g113" x1="93.8" y1="396.6" x2="143.7" y2="399.9" href="#P"><stop stop-color="#f27a13"/><stop offset="1" stop-color="#b41e2d"/></linearGradient><linearGradient id="g114" x1="99.8" y1="397.2" x2="142.5" y2="400" href="#P"><stop stop-color="#ebbd38"/><stop offset="1"/></linearGradient><linearGradient id="g115" x1="82.2" y1="431.4" x2="46.6" y2="420.1" href="#P"><stop stop-color="#ebbd38"/><stop offset="1"/></linearGradient><linearGradient id="g116" x1="128.9" y1="415.5" x2="89" y2="379.7" href="#P"><stop stop-color="#fff"/><stop offset=".4" stop-color="#ed8a1d"/><stop offset="1" stop-color="#b41e2d"/></linearGradient><linearGradient id="g117" x1="111.6" y1="396.4" x2="114.9" y2="416.2" href="#P"><stop stop-color="#fff"/><stop offset=".4" stop-color="#ed8a1d"/><stop offset="1" stop-color="#b41e2d"/></linearGradient><linearGradient id="g118" x1="127.9" y1="524.5" x2="26.8" y2="461.3" href="#P"><stop stop-color="#ca6b34"/><stop offset=".7" stop-color="#ffa933"/><stop offset="1" stop-color="#ffbd2b"/></linearGradient><linearGradient id="g119" x1="143" y1="428" x2="148" y2="485.9" href="#P"><stop stop-color="#fff"/><stop offset=".4" stop-color="#ed8a1d"/><stop offset="1" stop-color="#b41e2d"/></linearGradient><linearGradient id="g120" x1="86.8" y1="426.3" x2="127.7" y2="389.3" href="#P"><stop stop-color="#f27a13"/><stop offset="1" stop-color="#b41e2d"/></linearGradient><linearGradient id="g121" x1="92.3" y1="424.2" x2="128.2" y2="391.9" href="#P"><stop stop-color="#ebbd38"/><stop offset="1"/></linearGradient><linearGradient id="g122" x1="117.8" y1="484.8" x2="75.5" y2="487.8" href="#P"><stop stop-color="#ebbd38"/><stop offset="1"/></linearGradient><linearGradient id="g123" x1="375" y1="416.9" x2="432.2" y2="416.9" href="#P"><stop stop-color="#ca6b34"/><stop offset=".7" stop-color="#ffa933"/><stop offset="1" stop-color="#ffbd2b"/></linearGradient><linearGradient id="g124" x1="481.6" y1="368.3" x2="506.2" y2="507.3" href="#P"><stop stop-color="#fff"/><stop offset=".4" stop-color="#ed8a1d"/><stop offset="1" stop-color="#b41e2d"/></linearGradient><linearGradient id="g125" x1="459.6" y1="478.2" x2="443.2" y2="504.2" href="#P"><stop stop-color="#f27a13"/><stop offset="1" stop-color="#b41e2d"/></linearGradient><linearGradient id="g126" x1="399.7" y1="502" x2="389.9" y2="500.3" href="#P"><stop stop-color="#ebbd38"/><stop offset="1"/></linearGradient><linearGradient id="g127" x1="401.1" y1="461" x2="425.3" y2="487.6" href="#P"><stop stop-color="#ebbd38"/><stop offset="1"/></linearGradient><linearGradient id="g128" x1="409.3" y1="402.1" x2="447.9" y2="413.9" href="#P"><stop stop-color="#fff"/><stop offset=".4" stop-color="#ed8a1d"/><stop offset="1" stop-color="#b41e2d"/></linearGradient><linearGradient id="g129" x1="469.7" y1="354.2" x2="503.4" y2="449.8" href="#P"><stop stop-color="#fff"/><stop offset=".4" stop-color="#ed8a1d"/><stop offset="1" stop-color="#b41e2d"/></linearGradient><linearGradient id="g130" x1="412.6" y1="372.6" x2="511.8" y2="372.6" href="#P"><stop stop-color="#ca6b34"/><stop offset=".7" stop-color="#ffa933"/><stop offset="1" stop-color="#ffbd2b"/></linearGradient><linearGradient id="g131" x1="424.8" y1="318.4" x2="526.4" y2="420.7" href="#P"><stop stop-color="#fff"/><stop offset=".4" stop-color="#ed8a1d"/><stop offset="1" stop-color="#b41e2d"/></linearGradient><linearGradient id="g132" x1="448.1" y1="398.5" x2="445.5" y2="413.7" href="#P"><stop stop-color="#f27a13"/><stop offset="1" stop-color="#b41e2d"/></linearGradient><linearGradient id="g133" x1="437.9" y1="396.4" x2="436.2" y2="405.8" href="#P"><stop stop-color="#ebbd38"/><stop offset="1"/></linearGradient><linearGradient id="g134" x1="465.6" y1="410.1" x2="501.2" y2="398.8" href="#P"><stop stop-color="#ebbd38"/><stop offset="1"/></linearGradient><linearGradient id="g135" x1="406.3" y1="392.8" x2="446.2" y2="357" href="#P"><stop stop-color="#fff"/><stop offset=".4" stop-color="#ed8a1d"/><stop offset="1" stop-color="#b41e2d"/></linearGradient><linearGradient id="g136" x1="461.4" y1="448.7" x2="436.2" y2="423.2" href="#P"><stop stop-color="#fff"/><stop offset=".4" stop-color="#ed8a1d"/><stop offset="1" stop-color="#b41e2d"/></linearGradient><linearGradient id="g137" x1="371.5" y1="472" x2="434.5" y2="366.7" href="#P"><stop stop-color="#ca6b34"/><stop offset=".7" stop-color="#ffa933"/><stop offset="1" stop-color="#ffbd2b"/></linearGradient><linearGradient id="g138" x1="411" y1="472.7" x2="398.5" y2="410" href="#P"><stop stop-color="#fff"/><stop offset=".4" stop-color="#ed8a1d"/><stop offset="1" stop-color="#b41e2d"/></linearGradient><linearGradient id="g139" x1="466.3" y1="440.6" x2="423" y2="470" href="#P"><stop stop-color="#f27a13"/><stop offset="1" stop-color="#b41e2d"/></linearGradient><linearGradient id="g140" x1="461.7" y1="434.9" x2="422.1" y2="461.8" href="#P"><stop stop-color="#ebbd38"/><stop offset="1"/></linearGradient><linearGradient id="g141" x1="438.5" y1="471.3" x2="480.8" y2="474.2" href="#P"><stop stop-color="#ebbd38"/><stop offset="1"/></linearGradient><linearGradient id="g142" x1="39.2" y1="514.8" x2="39.2" y2="66.2" href="#P"><stop stop-color="#ca6b34"/><stop offset=".7" stop-color="#ffa933"/><stop offset="1" stop-color="#ffbd2b"/></linearGradient><linearGradient id="g143" x1="261.6" y1="411.9" x2="218.3" y2="509.7" href="#P"><stop stop-color="#ca6b34"/><stop offset=".6" stop-color="#ffbd2b"/><stop offset="1" stop-color="#ffa933"/></linearGradient><linearGradient id="g144" x1="193.5" y1="484.2" x2="193.5" y2="410.7" href="#P"><stop stop-color="#ca6b34"/><stop offset=".7" stop-color="#ffbd2b"/><stop offset="1" stop-color="#ffa933"/></linearGradient><linearGradient id="g145" x1="167" y1="484.3" x2="206.8" y2="399.7" href="#P"><stop stop-color="#fff"/><stop offset=".4" stop-color="#ed8a1d"/><stop offset="1" stop-color="#b41e2d"/></linearGradient><linearGradient id="g146" x1="342.8" y1="383.4" x2="392.9" y2="502.8" href="#P"><stop stop-color="#ca6b34"/><stop offset=".6" stop-color="#ffbd2b"/><stop offset="1" stop-color="#ffa933"/></linearGradient><linearGradient id="g147" x1="328.4" y1="484.2" x2="328.4" y2="410.7" href="#P"><stop stop-color="#ca6b34"/><stop offset=".7" stop-color="#ffbd2b"/><stop offset="1" stop-color="#ffa933"/></linearGradient><linearGradient id="g148" x1="330.4" y1="499" x2="301.2" y2="411.5" href="#P"><stop stop-color="#fff"/><stop offset=".4" stop-color="#ed8a1d"/><stop offset="1" stop-color="#b41e2d"/></linearGradient><linearGradient id="g149" x1="233.3" y1="74.2" x2="265.7" y2="145.4" href="#P"><stop stop-color="#ca6b34"/><stop offset=".6" stop-color="#ffbd2b"/><stop offset="1" stop-color="#ffa933"/></linearGradient><linearGradient id="g150" x1="217.1" y1="43.3" x2="245.8" y2="115.8" href="#P"><stop stop-color="#ca6b34"/><stop offset=".7" stop-color="#ffa933"/><stop offset="1" stop-color="#ffbd2b"/></linearGradient><linearGradient id="g151" x1="211.8" y1="158.5" x2="158" y2="50.8" href="#P"><stop stop-color="#fff"/><stop offset=".4" stop-color="#ed8a1d"/><stop offset="1" stop-color="#b41e2d"/></linearGradient><linearGradient id="g152" x1="200.8" y1="-3.2" x2="238.5" y2="105.4" href="#P"><stop stop-color="#ebbd38"/><stop offset="1"/></linearGradient><linearGradient id="g153" x1="321.4" y1="104.5" x2="289" y2="33.3" href="#P"><stop stop-color="#ca6b34"/><stop offset=".6" stop-color="#ffbd2b"/><stop offset="1" stop-color="#ffa933"/></linearGradient><linearGradient id="g154" x1="337.6" y1="136.2" x2="308.9" y2="63.8" href="#P"><stop stop-color="#ca6b34"/><stop offset=".7" stop-color="#ffa933"/><stop offset="1" stop-color="#ffbd2b"/></linearGradient><linearGradient id="g155" x1="342.9" y1="19.2" x2="396.7" y2="126.9" href="#P"><stop stop-color="#fff"/><stop offset=".4" stop-color="#ed8a1d"/><stop offset="1" stop-color="#b41e2d"/></linearGradient><linearGradient id="g156" x1="353.8" y1="138.8" x2="316.2" y2="30.2" href="#P"><stop stop-color="#ebbd38"/><stop offset="1"/></linearGradient><linearGradient id="g157" x1="405" y1="183.6" x2="435.6" y2="101.7" href="#P"><stop stop-color="#ca6b34"/><stop offset=".6" stop-color="#ffbd2b"/><stop offset="1" stop-color="#ffa933"/></linearGradient><linearGradient id="g158" x1="392.3" y1="221.7" x2="428.7" y2="137.1" href="#P"><stop stop-color="#ca6b34"/><stop offset=".7" stop-color="#ffa933"/><stop offset="1" stop-color="#ffbd2b"/></linearGradient><linearGradient id="g159" x1="531.5" y1="151.5" x2="491" y2="273.5" href="#P"><stop stop-color="#fff"/><stop offset=".4" stop-color="#ed8a1d"/><stop offset="1" stop-color="#b41e2d"/></linearGradient><linearGradient id="g160" x1="408.3" y1="232.8" x2="460.9" y2="121.4" href="#P"><stop stop-color="#ebbd38"/><stop offset="1"/></linearGradient><linearGradient id="g161" x1="445.6" y1="399.3" x2="372.6" y2="371.8" href="#P"><stop stop-color="#ca6b34"/><stop offset=".6" stop-color="#ffbd2b"/><stop offset="1" stop-color="#ffa933"/></linearGradient><linearGradient id="g162" x1="480" y1="412" x2="403.4" y2="378.8" href="#P"><stop stop-color="#ca6b34"/><stop offset=".7" stop-color="#ffa933"/><stop offset="1" stop-color="#ffbd2b"/></linearGradient><linearGradient id="g163" x1="417.8" y1="286.8" x2="526.8" y2="323.4" href="#P"><stop stop-color="#fff"/><stop offset=".4" stop-color="#ed8a1d"/><stop offset="1" stop-color="#b41e2d"/></linearGradient><linearGradient id="g164" x1="517.9" y1="426" x2="423.4" y2="379" href="#P"><stop stop-color="#ebbd38"/><stop offset="1"/></linearGradient><linearGradient id="g165" x1="108.2" y1="150.5" x2="181.1" y2="178" href="#P"><stop stop-color="#ca6b34"/><stop offset=".6" stop-color="#ffbd2b"/><stop offset="1" stop-color="#ffa933"/></linearGradient><linearGradient id="g166" x1="73.8" y1="137.8" x2="150.3" y2="171" href="#P"><stop stop-color="#ca6b34"/><stop offset=".7" stop-color="#ffa933"/><stop offset="1" stop-color="#ffbd2b"/></linearGradient><linearGradient id="g167" x1="135.9" y1="263" x2="26.9" y2="226.5" href="#P"><stop stop-color="#fff"/><stop offset=".4" stop-color="#ed8a1d"/><stop offset="1" stop-color="#b41e2d"/></linearGradient><linearGradient id="g168" x1="36.1" y1="122.8" x2="131.7" y2="170.3" href="#P"><stop stop-color="#ebbd38"/><stop offset="1"/></linearGradient><linearGradient id="g169" x1="148.7" y1="366.3" x2="118.1" y2="448.2" href="#P"><stop stop-color="#ca6b34"/><stop offset=".6" stop-color="#ffbd2b"/><stop offset="1" stop-color="#ffa933"/></linearGradient><linearGradient id="g170" x1="161.4" y1="328.2" x2="125" y2="412.7" href="#P"><stop stop-color="#ca6b34"/><stop offset=".7" stop-color="#ffa933"/><stop offset="1" stop-color="#ffbd2b"/></linearGradient><linearGradient id="g171" x1="22.2" y1="398.4" x2="62.7" y2="276.3" href="#P"><stop stop-color="#fff"/><stop offset=".4" stop-color="#ed8a1d"/><stop offset="1" stop-color="#b41e2d"/></linearGradient><linearGradient id="g172" x1="145.4" y1="317.1" x2="92.8" y2="428.4" href="#P"><stop stop-color="#ebbd38"/><stop offset="1"/></linearGradient><linearGradient id="g173" x1="306.4" y1="316.2" x2="306.4" y2="485.3" href="#P"><stop stop-color="#fff"/><stop offset=".4" stop-color="#ed8a1d"/><stop offset="1" stop-color="#b41e2d"/></linearGradient><linearGradient id="g174" x1="333.7" y1="311.9" x2="333.7" y2="505.7" href="#P"><stop stop-color="#fff"/><stop offset=".4" stop-color="#ed8a1d"/><stop offset="1" stop-color="#b41e2d"/></linearGradient><linearGradient id="g175" x1="312.2" y1="89.9" x2="312.2" y2="171.3" href="#P"><stop stop-color="#ebbd38"/><stop offset="1"/></linearGradient><linearGradient id="g176" x1="434.3" y1="109.1" x2="434.3" y2="459.2" href="#P"><stop stop-color="#b0431f"/><stop offset=".6" stop-color="#ffbd2b"/><stop offset="1" stop-color="#ffa933"/></linearGradient><linearGradient id="g177" x1="268.7" y1="473.1" x2="268.7" y2="383" href="#P"><stop stop-color="#ebbd38"/><stop offset="1"/></linearGradient><linearGradient id="g178" x1="268.7" y1="434" x2="268.7" y2="364" href="#P"><stop stop-color="#fff"/><stop offset="1" stop-color="#fff7c4"/></linearGradient><linearGradient id="g179" x1="250.3" y1="229.1" x2="250.3" y2="120.8" href="#P"><stop stop-color="#fff"/><stop offset=".4" stop-color="#ed8a1d"/><stop offset="1" stop-color="#b41e2d"/></linearGradient><radialGradient id="g180" cx="307.3" cy="107.6" r="55.2" href="#P"><stop stop-color="#f4a940"/><stop offset="1"/></radialGradient><radialGradient id="g181" cx="210.5" cy="448.4" r="32.9" href="#P"><stop stop-color="#e75a29"/><stop offset="1"/></radialGradient><linearGradient id="g182" x1="387.4" y1="309.7" x2="387.4" y2="210.6" href="#P"><stop stop-color="#fff"/><stop offset=".4" stop-color="#ed8a1d"/><stop offset="1" stop-color="#b41e2d"/></linearGradient><linearGradient id="g183" x1="577" y1="284" x2="577" y2="381" href="#P"><stop stop-color="#ebbd38"/><stop offset="1"/></linearGradient><linearGradient id="g184" x1="159.3" y1="284.1" x2="159.3" y2="380.1" href="#P"><stop stop-color="#ebbd38"/><stop offset="1"/></linearGradient><linearGradient id="g185" x1="-30.9" y1="309.7" x2="-30.9" y2="210.6" href="#P"><stop stop-color="#fff"/><stop offset=".4" stop-color="#ed8a1d"/><stop offset="1" stop-color="#b41e2d"/></linearGradient><linearGradient id="g186" x1="211.3" y1="536.3" x2="211.3" y2="467.6" href="#P"><stop stop-color="#d16509"/><stop offset="1" stop-color="#8d2c1b"/></linearGradient><linearGradient id="g187" x1="321.5" y1="536.3" x2="321.5" y2="467.6" href="#P"><stop stop-color="#d16509"/><stop offset="1" stop-color="#8d2c1b"/></linearGradient><linearGradient id="g188" x1="504.6" y1="249.8" x2="505" y2="290.7" href="#P"><stop stop-color="#fff"/><stop offset=".4" stop-color="#ed8a1d"/><stop offset="1" stop-color="#b41e2d"/></linearGradient><linearGradient id="g189" x1="417.8" y1="321.6" x2="417.8" y2="250.2" href="#P"><stop stop-color="#ca6b34"/><stop offset="1" stop-color="#ffbd2b"/></linearGradient><linearGradient id="g190" x1="415.3" y1="319.3" x2="415.3" y2="267.8" href="#P"><stop stop-color="#f08d1d"/><stop offset="1" stop-color="#8d2c1b"/></linearGradient><linearGradient id="g191" x1="421.5" y1="322.9" x2="421.5" y2="286" href="#P"><stop stop-color="#f08d1d"/><stop offset="1" stop-color="#8d2c1b"/></linearGradient><radialGradient id="g192" cx="449.5" cy="279.9" r="27.3" href="#P"><stop stop-color="#d14b4b"/><stop offset=".7" stop-color="#910606"/><stop offset="1" stop-color="#9e2929"/></radialGradient><linearGradient id="g193" x1="424.9" y1="305.5" x2="424.9" y2="273" href="#P"><stop stop-color="#8b2788"/><stop offset="1" stop-color="#fff"/></linearGradient><radialGradient id="g194" cx="448.2" cy="274.8" r="17" href="#P"><stop offset=".2" stop-color="#e61c24"/><stop offset="1"/></radialGradient><linearGradient id="g195" x1="447.3" y1="258.2" x2="461.4" y2="258.2" href="#P"><stop stop-color="#fff"/><stop offset="1" stop-color="#fff7c4"/></linearGradient><linearGradient id="g196" x1="410.5" y1="281.4" x2="489" y2="281.4" href="#P"><stop stop-color="#d16509"/><stop offset="1" stop-color="#8d2c1b"/></linearGradient><linearGradient id="g197" x1="469.4" y1="250" x2="485.8" y2="250" href="#P"><stop stop-color="#ebbd38"/><stop offset="1" stop-color="#fff29e"/></linearGradient><radialGradient id="g198" cx="451.7" cy="279.9" r="62.7" href="#P"><stop offset=".1" stop-color="#e84136"/><stop offset="1"/></radialGradient><linearGradient id="g199" x1="49.8" y1="350.7" x2="49.4" y2="309.8" href="#P"><stop stop-color="#fff"/><stop offset=".4" stop-color="#ed8a1d"/><stop offset="1" stop-color="#b41e2d"/></linearGradient><linearGradient id="g200" x1="70" y1="321.6" x2="70" y2="250.2" href="#P"><stop stop-color="#ca6b34"/><stop offset="1" stop-color="#ffbd2b"/></linearGradient><linearGradient id="g201" x1="67.5" y1="319.3" x2="67.5" y2="267.8" href="#P"><stop stop-color="#f08d1d"/><stop offset="1" stop-color="#8d2c1b"/></linearGradient><linearGradient id="g202" x1="73.7" y1="322.9" x2="73.7" y2="286" href="#P"><stop stop-color="#f08d1d"/><stop offset="1" stop-color="#8d2c1b"/></linearGradient><radialGradient id="g203" cx="101.8" cy="279.9" r="27.3" href="#P"><stop stop-color="#d14b4b"/><stop offset=".7" stop-color="#910606"/><stop offset="1" stop-color="#9e2929"/></radialGradient><linearGradient id="g204" x1="77.2" y1="305.5" x2="77.2" y2="273" href="#P"><stop stop-color="#8b2788"/><stop offset="1" stop-color="#fff"/></linearGradient><radialGradient id="g205" cx="100.5" cy="274.8" r="17" href="#P"><stop offset=".2" stop-color="#e61c24"/><stop offset="1"/></radialGradient><linearGradient id="g206" x1="99.6" y1="258.2" x2="113.7" y2="258.2" href="#P"><stop stop-color="#fff"/><stop offset="1" stop-color="#fff7c4"/></linearGradient><linearGradient id="g207" x1="62.8" y1="281.4" x2="141.2" y2="281.4" href="#P"><stop stop-color="#d16509"/><stop offset="1" stop-color="#8d2c1b"/></linearGradient><linearGradient id="g208" x1="121.7" y1="250" x2="138.1" y2="250" href="#P"><stop stop-color="#ebbd38"/><stop offset="1" stop-color="#fff29e"/></linearGradient><radialGradient id="g209" cx="104" cy="279.9" r="62.7" href="#P"><stop offset=".1" stop-color="#e84136"/><stop offset="1"/></radialGradient><linearGradient id="g210" x1="239.2" y1="534.7" x2="236" y2="467.4" href="#P"><stop stop-color="#fff"/><stop offset=".4" stop-color="#ed8a1d"/><stop offset="1" stop-color="#b41e2d"/></linearGradient><linearGradient id="g211" x1="231.6" y1="531.4" x2="232.1" y2="466.6" href="#P"><stop stop-color="#ca6b34"/><stop offset=".5" stop-color="#ffa933"/><stop offset="1" stop-color="#ffbd2b"/></linearGradient><linearGradient id="g212" x1="299.9" y1="516.2" x2="276.8" y2="541.1" href="#P"><stop stop-color="#fff"/><stop offset=".4" stop-color="#ed8a1d"/><stop offset="1" stop-color="#b41e2d"/></linearGradient><linearGradient id="g213" x1="309.6" y1="481.7" x2="309.6" y2="511.8" href="#P"><stop stop-color="#ca6b34"/><stop offset=".7" stop-color="#ffa933"/><stop offset="1" stop-color="#ffbd2b"/></linearGradient><linearGradient id="g214" x1="255.4" y1="518.2" x2="255.4" y2="487.8" href="#P"><stop stop-color="#ffa933"/><stop offset="1" stop-color="#ffef9b"/></linearGradient><linearGradient id="g215" x1="284" y1="480.4" x2="284.7" y2="493.9" href="#P"><stop stop-color="#d16509"/><stop offset="1" stop-color="#8d2c1b"/></linearGradient><linearGradient id="g216" x1="292.1" y1="497.4" x2="283.9" y2="509" href="#P"><stop stop-color="#de3c14"/><stop offset="1" stop-color="#db0f0f"/></linearGradient><linearGradient id="g217" x1="262" y1="512" x2="285.2" y2="488.1" href="#P"><stop stop-color="#b51818"/><stop offset="1" stop-color="#f22f22"/></linearGradient><linearGradient id="g218" x1="275.1" y1="471.6" x2="299.2" y2="487.8" href="#P"><stop stop-color="#b51818"/><stop offset="1" stop-color="#f22f22"/></linearGradient><linearGradient id="g219" x1="265.9" y1="516" x2="256.9" y2="506.8" href="#P"><stop stop-color="#b51818"/><stop offset="1" stop-color="#f22f22"/></linearGradient><linearGradient id="g220" x1="257.5" y1="488.2" x2="274.5" y2="474.2" href="#P"><stop stop-color="#b51818"/><stop offset="1" stop-color="#f22f22"/></linearGradient><linearGradient id="g221" x1="283.6" y1="482.4" x2="283.6" y2="482.3" href="#P"><stop stop-color="#fff"/><stop offset="1" stop-color="#fff7c4"/></linearGradient><linearGradient id="g222" x1="277.1" y1="500.1" x2="277.1" y2="500" href="#P"><stop stop-color="#fff"/><stop offset="1" stop-color="#fff7c4"/></linearGradient><linearGradient id="g223" x1="93.4" y1="187.7" x2="97" y2="112.5" href="#P"><stop stop-color="#fff"/><stop offset=".4" stop-color="#ed8a1d"/><stop offset="1" stop-color="#b41e2d"/></linearGradient><linearGradient id="g224" x1="99.1" y1="177.1" x2="99.6" y2="112.4" href="#P"><stop stop-color="#ca6b34"/><stop offset=".5" stop-color="#ffa933"/><stop offset="1" stop-color="#ffbd2b"/></linearGradient><linearGradient id="g225" x1="167.4" y1="162" x2="144.2" y2="186.9" href="#P"><stop stop-color="#fff"/><stop offset=".4" stop-color="#ed8a1d"/><stop offset="1" stop-color="#b41e2d"/></linearGradient><linearGradient id="g226" x1="177" y1="127.4" x2="177" y2="157.5" href="#P"><stop stop-color="#ca6b34"/><stop offset=".7" stop-color="#ffa933"/><stop offset="1" stop-color="#ffbd2b"/></linearGradient><linearGradient id="g227" x1="122.9" y1="164" x2="122.9" y2="133.6" href="#P"><stop stop-color="#ffa933"/><stop offset="1" stop-color="#ffef9b"/></linearGradient><linearGradient id="g228" x1="151.4" y1="126.1" x2="152.1" y2="139.7" href="#P"><stop stop-color="#d16509"/><stop offset="1" stop-color="#8d2c1b"/></linearGradient><linearGradient id="g229" x1="159.6" y1="143.2" x2="151.3" y2="154.8" href="#P"><stop stop-color="#de3c14"/><stop offset="1" stop-color="#db0f0f"/></linearGradient><linearGradient id="g230" x1="129.4" y1="157.8" x2="152.6" y2="133.9" href="#P"><stop stop-color="#b51818"/><stop offset="1" stop-color="#f22f22"/></linearGradient><linearGradient id="g231" x1="142.5" y1="117.3" x2="166.7" y2="133.6" href="#P"><stop stop-color="#b51818"/><stop offset="1" stop-color="#f22f22"/></linearGradient><linearGradient id="g232" x1="133.4" y1="161.7" x2="124.3" y2="152.5" href="#P"><stop stop-color="#b51818"/><stop offset="1" stop-color="#f22f22"/></linearGradient><linearGradient id="g233" x1="125" y1="133.9" x2="142" y2="119.9" href="#P"><stop stop-color="#b51818"/><stop offset="1" stop-color="#f22f22"/></linearGradient><linearGradient id="g234" x1="151.1" y1="128.1" x2="151.1" y2="128.1" href="#P"><stop stop-color="#fff"/><stop offset="1" stop-color="#fff7c4"/></linearGradient><linearGradient id="g235" x1="144.5" y1="145.8" x2="144.5" y2="145.8" href="#P"><stop stop-color="#fff"/><stop offset="1" stop-color="#fff7c4"/></linearGradient><linearGradient id="g236" x1="460" y1="113.5" x2="456.5" y2="188.7" href="#P"><stop stop-color="#fff"/><stop offset=".4" stop-color="#ed8a1d"/><stop offset="1" stop-color="#b41e2d"/></linearGradient><linearGradient id="g237" x1="359.3" y1="177.1" x2="359.8" y2="112.4" href="#P"><stop stop-color="#ca6b34"/><stop offset=".5" stop-color="#ffa933"/><stop offset="1" stop-color="#ffbd2b"/></linearGradient><linearGradient id="g238" x1="427.6" y1="162" x2="404.5" y2="186.9" href="#P"><stop stop-color="#fff"/><stop offset=".4" stop-color="#ed8a1d"/><stop offset="1" stop-color="#b41e2d"/></linearGradient><linearGradient id="g239" x1="437.3" y1="127.4" x2="437.3" y2="157.5" href="#P"><stop stop-color="#ca6b34"/><stop offset=".7" stop-color="#ffa933"/><stop offset="1" stop-color="#ffbd2b"/></linearGradient><linearGradient id="g240" x1="383.1" y1="164" x2="383.1" y2="133.6" href="#P"><stop stop-color="#ffa933"/><stop offset="1" stop-color="#ffef9b"/></linearGradient><linearGradient id="g241" x1="411.7" y1="126.1" x2="412.4" y2="139.7" href="#P"><stop stop-color="#d16509"/><stop offset="1" stop-color="#8d2c1b"/></linearGradient><linearGradient id="g242" x1="419.8" y1="143.2" x2="411.6" y2="154.8" href="#P"><stop stop-color="#de3c14"/><stop offset="1" stop-color="#db0f0f"/></linearGradient><linearGradient id="g243" x1="389.7" y1="157.8" x2="412.9" y2="133.9" href="#P"><stop stop-color="#b51818"/><stop offset="1" stop-color="#f22f22"/></linearGradient><linearGradient id="g244" x1="402.7" y1="117.3" x2="426.9" y2="133.6" href="#P"><stop stop-color="#b51818"/><stop offset="1" stop-color="#f22f22"/></linearGradient><linearGradient id="g245" x1="393.6" y1="161.7" x2="384.6" y2="152.5" href="#P"><stop stop-color="#b51818"/><stop offset="1" stop-color="#f22f22"/></linearGradient><linearGradient id="g246" x1="385.2" y1="133.9" x2="402.2" y2="119.9" href="#P"><stop stop-color="#b51818"/><stop offset="1" stop-color="#f22f22"/></linearGradient><linearGradient id="g247" x1="411.3" y1="128.1" x2="411.3" y2="128.1" href="#P"><stop stop-color="#fff"/><stop offset="1" stop-color="#fff7c4"/></linearGradient><linearGradient id="g248" x1="404.7" y1="145.8" x2="404.7" y2="145.8" href="#P"><stop stop-color="#fff"/><stop offset="1" stop-color="#fff7c4"/></linearGradient></defs><style>.a{fill:url(#g1)}.b{opacity:.4;mix-blend-mode:soft-light;fill:#ffe800}.c{opacity:.2;mix-blend-mode:multiply;fill:url(#g2)}.d{fill:url(#g3)}.e{opacity:.5;mix-blend-mode:color-dodge;fill:url(#g4)}.f{fill:url(#g5)}.g{opacity:.5;mix-blend-mode:multiply;fill:url(#g6)}.h{fill:url(#g7)}.i{fill:url(#g8)}.j{fill:url(#g9)}.k{opacity:.5;mix-blend-mode:multiply;fill:url(#g10)}.l{fill:url(#g11)}.m{opacity:.5;mix-blend-mode:color-dodge;fill:url(#g12)}.n{fill:url(#g13)}.o{opacity:.5;mix-blend-mode:multiply;fill:url(#g14)}.p{opacity:.5;mix-blend-mode:multiply;fill:url(#g15)}.q{fill:url(#g16)}.r{fill:url(#g17)}.s{opacity:.5;mix-blend-mode:color-dodge;fill:url(#g18)}.t{opacity:.5;mix-blend-mode:color-dodge;fill:url(#g19)}.u{opacity:.5;mix-blend-mode:color-dodge;fill:url(#g20)}.v{opacity:.5;mix-blend-mode:color-dodge;fill:url(#g21)}.w{opacity:.8;mix-blend-mode:color-dodge;fill:#fff}.x{opacity:.5;mix-blend-mode:multiply;fill:url(#g22)}.y{opacity:.5;mix-blend-mode:multiply;fill:url(#g23)}.z{opacity:.5;mix-blend-mode:multiply;fill:url(#g24)}.A{opacity:.5;mix-blend-mode:multiply;fill:url(#g25)}.B{opacity:.5;mix-blend-mode:multiply;fill:url(#g26)}.C{opacity:.5;mix-blend-mode:multiply;fill:url(#g27)}.D{opacity:.5;mix-blend-mode:multiply;fill:url(#g28)}.E{opacity:.5;mix-blend-mode:multiply;fill:url(#g29)}.F{fill:url(#g30)}.G{opacity:.5;mix-blend-mode:multiply;fill:url(#g31)}.H{fill:url(#g32)}.I{fill:url(#g33)}.J{fill:url(#g34)}.K{fill:url(#g35)}.L{fill:url(#g36)}.M{fill:url(#g37)}.N{fill:url(#g38)}.O{fill:url(#g39)}.P{fill:url(#g40)}.Q{fill:url(#g41)}.R{fill:url(#g42)}.S{opacity:.5;mix-blend-mode:multiply;fill:url(#g43)}.T{fill:url(#g44)}.U{opacity:.5;mix-blend-mode:multiply;fill:url(#g45)}.V{opacity:.5;mix-blend-mode:color-dodge;fill:url(#g46)}.W{fill:url(#g47)}.X{opacity:.6;mix-blend-mode:color-dodge;fill:url(#g48)}.Y{fill:url(#g49)}.Z{opacity:.5;mix-blend-mode:multiply;fill:url(#g50)}.a0{fill:url(#g51)}.a1{opacity:.5;mix-blend-mode:multiply;fill:url(#g52)}.a2{opacity:.5;mix-blend-mode:color-dodge;fill:url(#g53)}.a3{fill:url(#g54)}.a4{opacity:.6;mix-blend-mode:color-dodge;fill:url(#g55)}.a5{fill:url(#g56)}.a6{opacity:.5;mix-blend-mode:multiply;fill:url(#g57)}.a7{fill:url(#g58)}.a8{opacity:.5;mix-blend-mode:multiply;fill:url(#g59)}.a9{opacity:.5;mix-blend-mode:color-dodge;fill:url(#g60)}.aa{fill:url(#g61)}.ab{opacity:.6;mix-blend-mode:color-dodge;fill:url(#g62)}.ac{fill:url(#g63)}.ad{fill:#ffba2c}.ae{fill:url(#g64)}.af{opacity:.5;mix-blend-mode:multiply;fill:url(#g65)}.ag{fill:url(#g66)}.ah{opacity:.5;mix-blend-mode:multiply;fill:url(#g67)}.ai{fill:url(#g68)}.aj{opacity:.5;mix-blend-mode:color-dodge;fill:url(#g69)}.ak{opacity:.5;mix-blend-mode:color-dodge;fill:url(#g70)}.al{opacity:.5;mix-blend-mode:multiply;fill:url(#g71)}.am{opacity:.5;mix-blend-mode:multiply;fill:url(#g72)}.an{fill:url(#g73)}.ao{opacity:.5;mix-blend-mode:multiply;fill:url(#g74)}.ap{fill:url(#g75)}.aq{opacity:.5;mix-blend-mode:color-dodge;fill:url(#g76)}.ar{opacity:.5;mix-blend-mode:color-dodge;fill:url(#g77)}.as{opacity:.5;mix-blend-mode:multiply;fill:url(#g78)}.at{opacity:.5;mix-blend-mode:multiply;fill:url(#g79)}.au{fill:url(#g80)}.av{opacity:.5;mix-blend-mode:multiply;fill:url(#g81)}.aw{fill:url(#g82)}.ax{opacity:.5;mix-blend-mode:color-dodge;fill:url(#g83)}.ay{opacity:.5;mix-blend-mode:color-dodge;fill:url(#g84)}.az{fill:url(#g85)}.aA{opacity:.5;mix-blend-mode:multiply;fill:url(#g86)}.aB{fill:url(#g87)}.aC{opacity:.5;mix-blend-mode:color-dodge;fill:url(#g88)}.aD{opacity:.5;mix-blend-mode:color-dodge;fill:url(#g89)}.aE{opacity:.5;mix-blend-mode:multiply;fill:url(#g90)}.aF{opacity:.5;mix-blend-mode:multiply;fill:url(#g91)}.aG{fill:url(#g92)}.aH{opacity:.5;mix-blend-mode:multiply;fill:url(#g93)}.aI{fill:url(#g94)}.aJ{opacity:.5;mix-blend-mode:color-dodge;fill:url(#g95)}.aK{opacity:.5;mix-blend-mode:color-dodge;fill:url(#g96)}.aL{opacity:.5;mix-blend-mode:multiply;fill:url(#g97)}.aM{opacity:.5;mix-blend-mode:multiply;fill:url(#g98)}.aN{fill:url(#g99)}.aO{opacity:.5;mix-blend-mode:multiply;fill:url(#g100)}.aP{fill:url(#g101)}.aQ{opacity:.5;mix-blend-mode:color-dodge;fill:url(#g102)}.aR{opacity:.5;mix-blend-mode:color-dodge;fill:url(#g103)}.aS{fill:url(#g104)}.aT{opacity:.5;mix-blend-mode:multiply;fill:url(#g105)}.aU{fill:url(#g106)}.aV{opacity:.5;mix-blend-mode:color-dodge;fill:url(#g107)}.aW{opacity:.5;mix-blend-mode:color-dodge;fill:url(#g108)}.aX{opacity:.5;mix-blend-mode:multiply;fill:url(#g109)}.aY{opacity:.5;mix-blend-mode:multiply;fill:url(#g110)}.aZ{fill:url(#g111)}.b0{opacity:.5;mix-blend-mode:multiply;fill:url(#g112)}.b1{fill:url(#g113)}.b2{opacity:.5;mix-blend-mode:color-dodge;fill:url(#g114)}.b3{opacity:.5;mix-blend-mode:color-dodge;fill:url(#g115)}.b4{opacity:.5;mix-blend-mode:multiply;fill:url(#g116)}.b5{opacity:.5;mix-blend-mode:multiply;fill:url(#g117)}.b6{fill:url(#g118)}.b7{opacity:.5;mix-blend-mode:multiply;fill:url(#g119)}.b8{fill:url(#g120)}.b9{opacity:.5;mix-blend-mode:color-dodge;fill:url(#g121)}.ba{opacity:.5;mix-blend-mode:color-dodge;fill:url(#g122)}.bb{fill:url(#g123)}.bc{opacity:.5;mix-blend-mode:multiply;fill:url(#g124)}.bd{fill:url(#g125)}.be{opacity:.5;mix-blend-mode:color-dodge;fill:url(#g126)}.bf{opacity:.5;mix-blend-mode:color-dodge;fill:url(#g127)}.bg{opacity:.5;mix-blend-mode:multiply;fill:url(#g128)}.bh{opacity:.5;mix-blend-mode:multiply;fill:url(#g129)}.bi{fill:url(#g130)}.bj{opacity:.5;mix-blend-mode:multiply;fill:url(#g131)}.bk{fill:url(#g132)}.bl{opacity:.5;mix-blend-mode:color-dodge;fill:url(#g133)}.bm{opacity:.5;mix-blend-mode:color-dodge;fill:url(#g134)}.bn{opacity:.5;mix-blend-mode:multiply;fill:url(#g135)}.bo{opacity:.5;mix-blend-mode:multiply;fill:url(#g136)}.bp{fill:url(#g137)}.bq{opacity:.5;mix-blend-mode:multiply;fill:url(#g138)}.br{fill:url(#g139)}.bs{opacity:.5;mix-blend-mode:color-dodge;fill:url(#g140)}.bt{opacity:.5;mix-blend-mode:color-dodge;fill:url(#g141)}.bu{fill:url(#g142)}.bv{fill:url(#g143)}.bw{fill:url(#g144)}.bx{opacity:.5;mix-blend-mode:multiply;fill:url(#g145)}.by{fill:url(#g146)}.bz{fill:url(#g147)}.bA{opacity:.5;mix-blend-mode:multiply;fill:url(#g148)}.bB{fill:url(#g149)}.bC{fill:url(#g150)}.bD{opacity:.5;mix-blend-mode:multiply;fill:url(#g151)}.bE{opacity:.5;mix-blend-mode:color-dodge;fill:url(#g152)}.bF{fill:url(#g153)}.bG{fill:url(#g154)}.bH{opacity:.5;mix-blend-mode:multiply;fill:url(#g155)}.bI{opacity:.5;mix-blend-mode:color-dodge;fill:url(#g156)}.bJ{fill:url(#g157)}.bK{fill:url(#g158)}.bL{opacity:.5;mix-blend-mode:multiply;fill:url(#g159)}.bM{opacity:.5;mix-blend-mode:color-dodge;fill:url(#g160)}.bN{fill:url(#g161)}.bO{fill:url(#g162)}.bP{opacity:.5;mix-blend-mode:multiply;fill:url(#g163)}.bQ{opacity:.5;mix-blend-mode:color-dodge;fill:url(#g164)}.bR{fill:url(#g165)}.bS{fill:url(#g166)}.bT{opacity:.5;mix-blend-mode:multiply;fill:url(#g167)}.bU{opacity:.5;mix-blend-mode:color-dodge;fill:url(#g168)}.bV{fill:url(#g169)}.bW{fill:url(#g170)}.bX{opacity:.5;mix-blend-mode:multiply;fill:url(#g171)}.bY{opacity:.5;mix-blend-mode:color-dodge;fill:url(#g172)}.bZ{opacity:.5;mix-blend-mode:multiply;fill:url(#g173)}.c0{opacity:.5;mix-blend-mode:multiply;fill:url(#g174)}.c1{opacity:.5;mix-blend-mode:color-dodge;fill:url(#g175)}.c2{fill:url(#g176)}.c3{opacity:.5;mix-blend-mode:color-dodge;fill:url(#g177)}.c4{fill:url(#g178)}.c5{opacity:.5;mix-blend-mode:multiply;fill:url(#g179)}.c6{fill:#fff}.c7{opacity:.6;mix-blend-mode:color-dodge;fill:url(#g180)}.c8{opacity:.6;mix-blend-mode:color-dodge;fill:url(#g181)}.c9{opacity:.5;mix-blend-mode:multiply;fill:url(#g182)}.ca{opacity:.5;mix-blend-mode:color-dodge;fill:url(#g183)}.cb{opacity:.5;mix-blend-mode:color-dodge;fill:url(#g184)}.cc{opacity:.5;mix-blend-mode:multiply;fill:url(#g185)}.cd{fill:url(#g186)}.ce{fill:url(#g187)}.cf{opacity:.5;mix-blend-mode:multiply;fill:url(#g188)}.cg{fill:url(#g189)}.ch{opacity:.7;mix-blend-mode:multiply;fill:url(#g190)}.ci{opacity:.8;mix-blend-mode:multiply;fill:url(#g191)}.cj{fill:url(#g192)}.ck{opacity:.5;mix-blend-mode:multiply;fill:url(#g193)}.cl{opacity:.3;mix-blend-mode:color-dodge;fill:url(#g194)}.cm{fill:url(#g195)}.cn{fill:url(#g196)}.co{opacity:.5;mix-blend-mode:color-dodge;fill:url(#g197)}.cp{opacity:.5;mix-blend-mode:color-dodge;fill:url(#g198)}.cq{opacity:.5;mix-blend-mode:multiply;fill:url(#g199)}.cr{fill:url(#g200)}.cs{opacity:.7;mix-blend-mode:multiply;fill:url(#g201)}.ct{opacity:.8;mix-blend-mode:multiply;fill:url(#g202)}.cu{fill:url(#g203)}.cv{opacity:.5;mix-blend-mode:multiply;fill:url(#g204)}.cw{opacity:.3;mix-blend-mode:color-dodge;fill:url(#g205)}.cx{fill:url(#g206)}.cy{fill:url(#g207)}.cz{opacity:.5;mix-blend-mode:color-dodge;fill:url(#g208)}.cA{opacity:.5;mix-blend-mode:color-dodge;fill:url(#g209)}.cB{opacity:.5;mix-blend-mode:multiply;fill:url(#g210)}.cC{fill:url(#g211)}.cD{opacity:.5;mix-blend-mode:multiply;fill:url(#g212)}.cE{fill:url(#g213)}.cF{fill:url(#g214)}.cG{fill:url(#g215)}.cH{fill:url(#g216)}.cI{fill:url(#g217)}.cJ{fill:url(#g218)}.cK{fill:url(#g219)}.cL{fill:url(#g220)}.cM{fill:url(#g221)}.cN{fill:url(#g222)}.cO{opacity:.5;mix-blend-mode:multiply;fill:url(#g223)}.cP{fill:url(#g224)}.cQ{opacity:.5;mix-blend-mode:multiply;fill:url(#g225)}.cR{fill:url(#g226)}.cS{fill:url(#g227)}.cT{fill:url(#g228)}.cU{fill:url(#g229)}.cV{fill:url(#g230)}.cW{fill:url(#g231)}.cX{fill:url(#g232)}.cY{fill:url(#g233)}.cZ{fill:url(#g234)}.d0{fill:url(#g235)}.d1{opacity:.5;mix-blend-mode:multiply;fill:url(#g236)}.d2{fill:url(#g237)}.d3{opacity:.5;mix-blend-mode:multiply;fill:url(#g238)}.d4{fill:url(#g239)}.d5{fill:url(#g240)}.d6{fill:url(#g241)}.d7{fill:url(#g242)}.d8{fill:url(#g243)}.d9{fill:url(#g244)}.da{fill:url(#g245)}.db{fill:url(#g246)}.dc{fill:url(#g247)}.dd{fill:url(#g248)}</style><path class="a" d="m279.6 449.3c-95.1 0-172-76.9-172-172 0-95.1 76.9-172 172-172 95.2 0 172 76.9 172 172 0 95.1-76.8 172-172 172z"/><path class="b" d="m179.5 288.9c21.5 27.5 28.2 84 0 71.5-28.1-12.5-50-95.1-32.3-91.1 17.7 4.1 26.2 11.8 32.3 19.6z"/><path class="c" d="m232.9 401c19.7 16.5 117.3 5 95.9-14-21.4-19.1-46.7-31.5-63.3-24.8-16.6 6.7-42.1 30.8-32.6 38.8z"/><path class="b" d="m353.4 302.4c-3.4 39.3 15 63.9 35.8 45.5 20.7-18.5 31.3-57.3 21-68.2-10.3-10.8-55.3 5.2-56.8 22.7z"/><path class="d" d="m332.9 234.4l-33.2-25.1 41.7-21.3z"/><path class="e" d="m299.7 209.3l41.7-21.3-25.2 33.8z"/><path class="f" d="m253.8 210.1l-31.8 26.9-11.7-45.3z"/><path class="g" d="m222 237l-11.7-45.3 27.5 32z"/><path class="h" d="m204.9 279l14.8 38.8-46.6-3.9z"/><path class="i" d="m219.7 317.8l-46.6-3.9 39.3-15.4z"/><path class="j" d="m256.1 344.6l41.5 0.9-21.3 41.7z"/><path class="k" d="m297.6 345.5l-21.3 41.7 0.7-42.1z"/><path class="l" d="m333.7 317.6l16.3-38.3 30.8 35.2z"/><path class="m" d="m350 279.3l30.8 35.2-38.9-16.2z"/><path class="n" d="m407.4 235l-46.7-6.8-12.8-1.9-30.4-4.4-40.2-81.4-40.2 81.4-89.9 13.1 65.1 63.4-15.4 89.6 80.4-42.3 80.4 42.3-15.3-89.6z"/><path class="o" d="m146.7 235l132.5 34.6-67.4 28.8z"/><path class="p" d="m407 235l-127.8 34.6 62.7 28.8z"/><path class="q" d="m276.9 345.7l2.3-76.1-82.8 118.4z"/><path class="r" d="m357.3 388l-78.1-118.4-2.3 76.1z"/><path class="s" d="m276.9 140.5l2.3 129.1 37.9-47.7z"/><path class="t" d="m407 235l-127.8 34.6 37.9-47.7z"/><path class="u" d="m407 235l-127.8 34.6 37.9-47.7z"/><path class="v" d="m236.6 221.9l42.6 47.7-132.5-34.6z"/><path class="w" d="m317.1 250.3c-6.7 5.6-1 9.3-1 9.3l34.4-9.3c0 0-18-13.1-33.4 0z"/><path class="x" d="m146.7 235l132.5 34.6-82 116.7-24.1-72.4 28.7-11.3z"/><path class="y" d="m407 235l-127.8 34.6 78.5 118.4 23.1-73.5-30.3-13.1z"/><path class="z" d="m196.9 388l82.3-118.4 78.5 118.4-80.4-12.7z"/><path class="b" d="m247.4 207.8c-8.6 23.8 24 40.3 28.4 33 4.4-7.3 1.6-48-3.9-53.5-5.5-5.5-21 10.8-24.5 20.5z"/><path class="b" d="m220.7 329.3c17.3 2.4 27-17.3 30.7-30.9 5.9-21.8-62.2 26.7-30.7 30.9z"/><path class="A" d="m217.7 220.4l-39.9 10.1 58.8-8.6 20.9-41.4-19 23.2-3.5 16.6z"/><path class="B" d="m297.6 181.6l19.5 40.3 55.1 7.9-36.2-12.6h-16.4l-5.8-15.1z"/><path class="C" d="m276.9 345.7l-33.8 17.7 20.3-3.3 13.5-8.5-0.5 19.4 10.6-4.6 5.1-10 36.1 16.3z"/><path class="D" d="m147.2 235l32.8 59.3-15.4 30.2 31.8 4.3-1.7 64.3 71-27 10.6 21.1 13.6-26.5 71.5 31-1.4-63.7 20.8-13.5-12-22.7 35.8-56.8-125.8 46.4z"/><path class="E" d="m248 261.7l-6.6 24.5 22.7 6 14.2 21.3 17.4-19 19.3-8.3-4-24.5-32.6 9.8z"/><path class="F" d="m310.3 269.2c-8.2 15.4-31.3 33.4-31.3 33.4 0 0-23.8-17.4-32.5-32.7 8.1-15.4 31.2-33.8 31.2-33.8 0 0 23.9 17.8 32.6 33.1z"/><path class="G" d="m246.5 269.9c8.7 15.3 32.5 32.7 32.5 32.7l1.4-8.3c-14.8-9.5-25.7-24.1-25.7-24.1 0 0-3.7-0.5-8.2-0.3z"/><path class="H" d="m280.4 294.3c0 0-19-13.1-25.7-24.1 0 0 6.1-12.8 24-25.7 0 0 18 9.7 26.9 24.7 0 0-7.7 11.7-25.2 25.1z"/><path class="I" d="m261.4 270.4c8.1 12.1 19.3 17.5 19.3 17.5 11.2-7.4 17.7-17.9 17.7-17.9-7.2-9.2-18.9-18.1-18.9-18.1-8.7 7.6-18.1 18.5-18.1 18.5z"/><path class="J" d="m261.4 270.4l37-0.4c-5.7-7.6-18.9-18.1-18.9-18.1-8.7 7.6-18.1 18.5-18.1 18.5z"/><path class="K" d="m287.2 269.9l-7.1-6.8-7.5 7 7.4 6.7z"/><path class="L" d="m295.7 269.8l-8.5 0.1-7.2 6.9 0.2 8z"/><path class="M" d="m280 255.1l0.1 8 7.1 6.8 8.5-0.1z"/><path class="N" d="m272.6 270.1l7.4 6.7 0.2 8-16.1-14.6z"/><path class="O" d="m280 255.1l0.1 8-7.5 7-8.5 0.1z"/><path class="P" d="m295.1 252.5c-0.6 1.3-6.9-4.7-6-5.5 0.9-0.7 6.7 3.9 6 5.5z"/><path class="Q" d="m283.7 266.5c-3.6-1.7-5.4 1.1-4.4 2.9 0.9 1.7 7.2 2.1 5.3-2z"/><path class="R" d="m277.3 0c0 0-66.5 32.4-116.7 129.7h116.7 116.7c-50.2-97.3-116.7-129.7-116.7-129.7z"/><path class="S" d="m277.3 17.8c0 0-64.2 49.3-91.5 111.9h91.5 91.5c-27.3-62.6-91.5-111.9-91.5-111.9z"/><path class="T" d="m191.9 129.7c0 0 36.5-69.1 84.9-106 0 0 48.4 37.9 85.7 105.7z"/><path class="U" d="m190.2 129.4c0 0 37.6-82.7 87.1-111.6 0 0 65.4 49.4 85.2 111.6 0 0-45.6-65.6-82.8-86 0 0-45.1 25.2-85 86.3z"/><path class="V" d="m326 36.9c-38.2-31.6-51.3-33.2-51.3-33.2-7.2 3.6-25.3 15.1-26.7 16 17.5-13.9 29.3-19.7 29.3-19.7 0 0 21.2 10.3 48.7 36.9z"/><path class="W" d="m298.9 13.7c-10.2 6.8 16.5 30 27.1 23.2 0 0-6.5-6.6-16-14.2-9.5-7.7-11.1-9-11.1-9z"/><path class="X" d="m286.5 143.8c-28.4 0-51.4-27.7-51.4-61.9 0-34.2 23-61.9 51.4-61.9 28.4 0 51.3 27.7 51.3 61.9 0 34.2-22.9 61.9-51.3 61.9z"/><path class="Y" d="m0 276.4c0 0 32.4 66.4 129.7 116.7v-116.7-116.8c-97.3 50.3-129.7 116.8-129.7 116.8z"/><path class="Z" d="m17.8 276.4c0 0 49.3 64.2 111.9 91.5v-91.5-91.5c-62.6 27.3-111.9 91.5-111.9 91.5z"/><path class="a0" d="m129.7 361.8c0 0-69.1-36.6-106-84.9 0 0 37.9-48.4 105.7-85.7z"/><path class="a1" d="m129.4 363.4c0 0-82.7-37.5-111.6-87 0 0 49.4-65.4 111.6-85.2 0 0-65.6 45.6-86 82.8 0 0 25.2 45.1 86.3 85z"/><path class="a2" d="m36.9 227.7c-31.6 38.2-33.2 51.3-33.2 51.3 3.6 7.2 15.1 25.3 16 26.7-13.9-17.5-19.7-29.3-19.7-29.3 0 0 10.3-21.2 36.9-48.7z"/><path class="a3" d="m13.7 254.7c6.8 10.3 30-16.5 23.2-27 0 0-6.6 6.5-14.2 16-7.7 9.5-9 11-9 11z"/><path class="a4" d="m81.9 318.5c-34.2 0-61.9-22.9-61.9-51.3 0-28.4 27.7-51.3 61.9-51.3 34.2 0 61.9 22.9 61.9 51.3 0 28.4-27.7 51.3-61.9 51.3z"/><path class="a5" d="m555 276.4c0 0-32.4 66.4-129.7 116.7v-116.7-116.8c97.3 50.3 129.7 116.8 129.7 116.8z"/><path class="a6" d="m537.2 276.4c0 0-49.3 64.2-111.9 91.5v-91.5-91.5c62.6 27.3 111.9 91.5 111.9 91.5z"/><path class="a7" d="m425.3 361.8c0 0 69.1-36.6 106-84.9 0 0-37.9-48.4-105.7-85.7z"/><path class="a8" d="m425.6 363.4c0 0 82.7-37.5 111.6-87 0 0-49.4-65.4-111.6-85.2 0 0 65.6 45.6 86 82.8 0 0-25.2 45.1-86.3 85z"/><path class="a9" d="m518.1 227.7c31.6 38.2 33.2 51.3 33.2 51.3-3.6 7.2-15.1 25.3-16 26.7 13.9-17.5 19.7-29.3 19.7-29.3 0 0-10.3-21.2-36.9-48.7z"/><path class="aa" d="m541.3 254.7c-6.8 10.3-30-16.5-23.2-27 0 0 6.6 6.5 14.2 16 7.7 9.5 9 11 9 11z"/><path class="ab" d="m473.1 318.5c-34.2 0-61.9-22.9-61.9-51.3 0-28.4 27.7-51.3 61.9-51.3 34.2 0 61.9 22.9 61.9 51.3 0 28.4-27.7 51.3-61.9 51.3z"/><path class="ac" d="m277.3 549.6c0 0-66.5-32.4-116.7-129.7h116.7 116.7c-50.2 97.3-116.7 129.7-116.7 129.7z"/><path class="ad" d="m277.3 531.8c0 0-59.5-44.4-91.5-111.9h91.5 91.5c-27.3 62.6-91.5 111.9-91.5 111.9z"/><path class="ae" d="m191.9 419.9c0 0 36.5 69.1 84.9 106 0 0 48.4-37.9 85.7-105.7z"/><path class="af" d="m190.2 420.2c0 0 8.6 46.4 87.1 111.6 0 0 65.4-49.4 85.2-111.6 0 0-45.6 24.4-82.8 44.7 0 0-31.7-4.4-85-45z"/><path class="ag" d="m122.8 85q0 0.7 0.1 1.6 0 0 0 0.1 0.3 2.2 1.1 4.8 0 0 0 0c3.7 10.8 14.5 25.9 21 34.3q0.1 0.2 0.2 0.3c1.6 2 2.9 3.7 3.7 4.7q0 0.1 0 0.1c0.8 0.9 1.2 1.4 1.2 1.4h2.2 0.7q0 0 0 0h7.6c10.1-13.6 19.3-38.1 19.4-47.8q0-1.5-0.3-2.5c-0.5-1.7-2.2-5.2-4.6-9.7-7.9-14.8-23.4-39.9-26.7-39.5-2.1 0.2-13.3 18.8-20.1 34.5-3.2 7.2-5.4 13.7-5.5 17.7z"/><path class="ah" d="m122.8 85q0 0.7 0.1 1.6 0 0 0 0.1 0.3 2.2 1.1 4.8 0 0 0 0c3.7 10.8 14.5 25.9 21 34.3q0.1 0.2 0.2 0.3c1.6 2 2.9 3.7 3.7 4.7q0 0.1 0 0.1c0.8 0.9 1.2 1.4 1.2 1.4h2.2 0.7q0 0 0 0h7.6c10.1-13.6 19.3-38.1 19.4-47.8-3.6 11.7-11.2 16.3-18.8 17.6-3.1 0.6-6.3 0.6-9.2 0.4q-0.1 0-0.1-0.1-0.8 0-1.6-0.1-0.6-0.1-1.2-0.2c-5.3-0.8-9.1-2.4-9.1-2.4 0 0-8.9-5.9-10.7-13.8-0.8-3.2 0-10.2 3-19.4 3-9.4 8.2-21.1 16.1-33.7-2.1 0.2-13.3 18.8-20.1 34.5-3.2 7.2-5.4 13.7-5.5 17.7z"/><path class="ai" d="m157.4 83.1c4.8 18.9-4.4 49.2-4.4 49.2 0 0 0.8-27.9-3.1-42.1-4-14.3 6.1-12.9 7.5-7.1z"/><path class="aj" d="m148.7 84.4c5 16.9 4.3 47.9 4.3 47.9z"/><path class="ak" d="m173.9 69.9c-6.9 5-22.4-33.4-17.7-28.6 3.6 3.7 17.7 28.6 17.7 28.6z"/><path class="al" d="m122.9 86.6q0 0 0 0.1c0.1 1.4 0.5 3 1.1 4.8q0 0 0 0c3.7 10.2 14.9 26.2 21 34.3q0.1 0.2 0.2 0.3c2 2.6 3.4 4.4 3.7 4.7q0 0.1 0 0.1c3.9 3.9 0.5-2.5-13.4-27.6-6.1-11-12.8-20.6-12.6-16.7z"/><path class="am" d="m145 125.8q0.1 0.2 0.2 0.3c2 2.6 3.4 4.4 3.7 4.7 0 0.1 1.4-18.6 0.2-28.7-2.1-16.7-4.6-31.4-8.2-33.4-3.2-1.9-6.3-2.3-8.6-2.2-2.4 0.1-4 0.8-4 0.8-3.2 7.2-5.4 13.7-5.5 17.7q0 0.7 0.1 1.6 0 0 0 0.1c0.1 1.4 0.5 3 1.1 4.8q0 0 0 0c3.7 10.8 14.5 25.9 21 34.3z"/><path class="an" d="m95 176.5q0.9 0.1 1.8 0 0 0 0.1-0.1 1.9-0.2 4.2-0.9h0.1c10.7-3.5 25.9-14.1 34.5-20.6q0.1-0.1 0.3-0.3c2.1-1.6 3.8-2.9 4.9-3.8q0 0 0 0c0.9-0.7 1.4-1.1 1.4-1.1v-2.6-0.3l0.1-7.6c-13.5-10.2-37.8-19.5-47.5-19.6q-1.5-0.1-2.5 0.2c-1.6 0.5-5.2 2.1-9.6 4.5h-0.1c-3.2 1.7-7 3.8-10.8 6-13.8 7.9-29 17.8-28.8 20.3 0.4 3.1 39.3 25.6 51.9 25.9z"/><path class="ao" d="m95 176.5q0.9 0.1 1.8 0 0 0 0.1-0.1 1.9-0.2 4.2-0.9h0.1c10.7-3.5 25.9-14.1 34.5-20.6q0.1-0.1 0.3-0.3c2.1-1.6 3.8-2.9 4.9-3.8q0 0 0 0c0.9-0.7 1.4-1.1 1.4-1.1v-2.6-0.3l0.1-7.6c-13.5-10.2-37.8-19.5-47.5-19.6 11.7 3.6 16.2 11.2 17.5 18.8 0.4 2.3 0.5 4.7 0.4 6.9q-0.1 1.2-0.2 2.3 0 0 0 0.1-0.1 0.8-0.2 1.6c-0.8 5.8-2.6 10.2-2.6 10.2 0 0-6 8.8-13.9 10.6-6.5 1.5-28-3.7-52.8-19.5 0.4 3.1 39.3 25.6 51.9 25.9z"/><path class="ap" d="m89 145.3c18.5-16.6 53.3 1.5 53.3 1.5 0 0-27.7-1.1-41.9 2.8-14.2 3.8-13.6-2.3-11.4-4.3z"/><path class="aq" d="m94.6 150.7c16.9-4.9 47.7-3.9 47.7-3.9z"/><path class="ar" d="m51.7 142.9c3.3 3 18.5-2.7 26.9-8.8 4.3-3.1 6.8-6.4 5.2-8.7l-1-1.1h-0.1l-10.8 6z"/><path class="as" d="m113.3 164c25.1-13.7 31.5-17 27.6-13.2-1.6 1.6-32.7 25.1-44.3 25.7-3.8 0.2 5.7-6.5 16.7-12.5z"/><path class="at" d="m71.9 130.3q0.2 0.1 0.5 0.2c2.2 0.9 4.3 2.1 6.2 3.6 6.1 4.7 10.4 11.2 10.4 11.2 0 0 5.8-3.7 19.3-3.4 17.9 0.4 23.4 3.4 31.9 4.8q0 0 0.1 0 0 0 0 0 0.4 0.1 0.9 0.2 0 0 0 0 0.6 0.1 1.1 0.2v-0.3l0.1-7.6c-13.5-10.2-37.8-19.5-47.5-19.6q-1.5-0.1-2.5 0.2c-1.6 0.5-5.2 2.1-9.6 4.5h-0.1c-3.2 1.7-7 3.8-10.8 6z"/><path class="au" d="m83 124.6c10.8 11.7 59 17.2 59 17.2l8.5-8.2c-2.3-18.9-13.9-45.9-21.4-53.9q-1.2-1.3-2.2-1.9c-7.1-4.1-60.6-19.4-63.7-15.6-2.2 2.6 10.2 51.9 19.8 62.4z"/><path class="av" d="m83 124.6c10.8 11.7 59 17.2 59 17.2l8.5-8.2c-2.3-18.9-13.9-45.9-21.4-53.9 14.8 29.4-20.6 43.5-20.6 43.5 0 0-7.6 2.2-18.5-5.2-6.2-4.3-20.1-23.4-26.8-55.8-2.2 2.6 10.2 51.9 19.8 62.4z"/><path class="aw" d="m103.5 97.7c24.8 6.8 40.8 41.8 40.8 41.8 0 0-20.9-23.3-35.2-31.8-14.3-8.5-8.9-10.9-5.6-10z"/><path class="ax" d="m103.6 104c17.2 9.8 40.7 35.5 40.7 35.5z"/><path class="ay" d="m116.6 73.8c-1.8 9.4-47.9-12-40.4-10.7 14.4 2.5 40.4 10.7 40.4 10.7z"/><path class="az" d="m432.2 85q0 0.7-0.1 1.6 0 0 0 0.1-0.3 2.2-1.1 4.8 0 0 0 0c-3.7 10.8-14.5 25.9-21 34.3q-0.1 0.2-0.2 0.3c-1.6 2-2.9 3.7-3.7 4.7q0 0.1-0.1 0.1c-0.7 0.9-1.1 1.4-1.1 1.4h-2.2-0.7q0 0 0 0h-7.6c-10.1-13.6-19.3-38.1-19.4-47.8q0-1.5 0.3-2.5c0.5-1.7 2.2-5.2 4.6-9.7 7.9-14.8 23.4-39.9 26.7-39.5 2.1 0.2 13.3 18.8 20.1 34.5 3.2 7.2 5.4 13.7 5.5 17.7z"/><path class="aA" d="m432.2 85q0 0.7-0.1 1.6 0 0 0 0.1-0.3 2.2-1.1 4.8 0 0 0 0c-3.7 10.8-14.5 25.9-21 34.3q-0.1 0.2-0.2 0.3c-1.6 2-2.9 3.7-3.7 4.7q0 0.1-0.1 0.1c-0.7 0.9-1.1 1.4-1.1 1.4h-2.2-0.7q0 0 0 0h-7.6c-10.1-13.6-19.3-38.1-19.4-47.8 3.6 11.7 11.2 16.3 18.8 17.6 3.1 0.6 6.3 0.6 9.2 0.4q0.1 0 0.1-0.1 0.8 0 1.6-0.1 0.6-0.1 1.2-0.2c5.3-0.8 9.1-2.4 9.1-2.4 0 0 8.9-5.9 10.7-13.8 0.8-3.2-0.1-10.2-3-19.4-3-9.4-8.2-21.1-16.1-33.7 2.1 0.2 13.3 18.8 20.1 34.5 3.2 7.2 5.4 13.7 5.5 17.7z"/><path class="aB" d="m397.6 83.1c-4.8 18.9 4.4 49.2 4.4 49.2 0 0-0.8-27.9 3.1-42.1 4-14.3-6.1-12.9-7.5-7.1z"/><path class="aC" d="m406.3 84.4c-5 16.9-4.3 47.9-4.3 47.9z"/><path class="aD" d="m381.1 69.9c6.9 5 22.4-33.4 17.7-28.6-3.6 3.7-17.7 28.6-17.7 28.6z"/><path class="aE" d="m432.1 86.6q0 0 0 0.1c-0.1 1.4-0.5 3-1.1 4.8q0 0 0 0c-3.7 10.2-14.9 26.2-21 34.3q-0.1 0.2-0.2 0.3c-2 2.6-3.4 4.4-3.7 4.7q0 0.1-0.1 0.1c-3.8 3.9-0.4-2.5 13.5-27.6 6.1-11 12.8-20.6 12.6-16.7z"/><path class="aF" d="m410 125.8q-0.1 0.2-0.2 0.3c-2 2.6-3.4 4.4-3.7 4.7 0 0.1-1.4-18.6-0.2-28.7 2.1-16.7 4.6-31.4 8.2-33.4 3.2-1.9 6.3-2.3 8.6-2.2 2.4 0.1 4 0.8 4 0.8 3.2 7.2 5.4 13.7 5.5 17.7q0 0.7-0.1 1.6 0 0 0 0.1c-0.1 1.4-0.5 3-1.1 4.8q0 0 0 0c-3.7 10.8-14.5 25.9-21 34.3z"/><path class="aG" d="m460 176.5q-0.9 0.1-1.8 0 0 0-0.1-0.1-1.9-0.2-4.2-0.9h-0.1c-10.8-3.5-25.9-14.1-34.5-20.6q-0.1-0.1-0.3-0.3c-2.1-1.6-3.8-2.9-4.9-3.8q0 0 0 0c-0.9-0.7-1.4-1.1-1.4-1.1v-2.6-0.3l-0.1-7.6c13.4-10.2 37.8-19.5 47.5-19.6q1.5-0.1 2.5 0.2c1.6 0.5 5.2 2.1 9.6 4.5h0.1c3.2 1.7 7 3.8 10.8 6 13.8 7.9 29 17.8 28.7 20.3-0.3 3.1-39.2 25.6-51.8 25.9z"/><path class="aH" d="m460 176.5q-0.9 0.1-1.8 0 0 0-0.1-0.1-1.9-0.2-4.2-0.9h-0.1c-10.8-3.5-25.9-14.1-34.5-20.6q-0.1-0.1-0.3-0.3c-2.1-1.6-3.8-2.9-4.9-3.8q0 0 0 0c-0.9-0.7-1.4-1.1-1.4-1.1v-2.6-0.3l-0.1-7.6c13.4-10.2 37.8-19.5 47.5-19.6-11.7 3.6-16.2 11.2-17.5 18.8-0.4 2.3-0.5 4.7-0.4 6.9q0.1 1.2 0.2 2.3 0 0 0 0.1 0.1 0.8 0.2 1.6c0.8 5.8 2.6 10.2 2.6 10.2 0 0 6 8.8 13.8 10.6 6.6 1.5 28.1-3.7 52.8-19.5-0.3 3.1-39.2 25.6-51.8 25.9z"/><path class="aI" d="m465.9 145.3c-18.5-16.6-53.2 1.5-53.2 1.5 0 0 27.7-1.1 41.9 2.8 14.2 3.8 13.6-2.3 11.3-4.3z"/><path class="aJ" d="m460.4 150.7c-16.9-4.9-47.7-3.9-47.7-3.9z"/><path class="aK" d="m503.3 142.9c-3.3 3-18.5-2.7-26.9-8.8-4.3-3.1-6.8-6.4-5.2-8.7l1-1.1h0.1l10.8 6z"/><path class="aL" d="m441.7 164c-25.1-13.7-31.5-17-27.6-13.2 1.6 1.6 32.6 25.1 44.3 25.7 3.8 0.2-5.7-6.5-16.7-12.5z"/><path class="aM" d="m483.1 130.3q-0.3 0.1-0.5 0.2c-2.2 0.9-4.3 2.1-6.2 3.6-6.1 4.7-10.5 11.2-10.5 11.2 0 0-5.7-3.7-19.2-3.4-17.9 0.4-23.4 3.4-31.9 4.8q-0.1 0-0.1 0 0 0-0.1 0-0.4 0.1-0.8 0.2 0 0 0 0-0.6 0.1-1.1 0.2v-0.3l-0.1-7.6c13.4-10.2 37.8-19.5 47.5-19.6q1.5-0.1 2.5 0.2c1.6 0.5 5.2 2.1 9.6 4.5h0.1c3.2 1.7 7 3.8 10.8 6z"/><path class="aN" d="m472 124.6c-10.8 11.7-59 17.2-59 17.2l-8.5-8.2c2.3-18.9 13.9-45.9 21.4-53.9q1.2-1.3 2.2-1.9c7.1-4.1 60.6-19.4 63.7-15.6 2.2 2.6-10.2 51.9-19.8 62.4z"/><path class="aO" d="m472 124.6c-10.8 11.7-59 17.2-59 17.2l-8.5-8.2c2.3-18.9 13.9-45.9 21.4-53.9-14.8 29.4 20.6 43.5 20.6 43.5 0 0 7.6 2.2 18.5-5.2 6.2-4.3 20.1-23.4 26.8-55.8 2.2 2.6-10.2 51.9-19.8 62.4z"/><path class="aP" d="m451.5 97.7c-24.9 6.8-40.8 41.8-40.8 41.8 0 0 20.9-23.3 35.2-31.8 14.3-8.5 8.9-10.9 5.6-10z"/><path class="aQ" d="m451.4 104c-17.2 9.8-40.7 35.5-40.7 35.5z"/><path class="aR" d="m438.4 73.8c1.8 9.4 47.9-12 40.4-10.7-14.5 2.5-40.4 10.7-40.4 10.7z"/><path class="aS" d="m122.8 464.1q0-0.7 0.1-1.5 0-0.1 0-0.2 0.3-2.2 1.1-4.7 0 0 0-0.1c3.7-10.8 14.5-25.8 21-34.3q0.1-0.1 0.2-0.3c1.6-2 2.9-3.6 3.7-4.7q0 0 0 0c0.8-0.9 1.2-1.4 1.2-1.4h2.2 0.7q0 0 0 0h7.6c10.1 13.5 19.3 38 19.4 47.8q0 1.5-0.3 2.5c-0.5 1.6-2.2 5.2-4.6 9.6-7.9 14.9-23.4 40-26.7 39.6-2.1-0.2-13.3-18.8-20.1-34.5-3.2-7.2-5.4-13.8-5.5-17.8z"/><path class="aT" d="m122.8 464.1q0-0.7 0.1-1.5 0-0.1 0-0.2 0.3-2.2 1.1-4.7 0 0 0-0.1c3.7-10.8 14.5-25.8 21-34.3q0.1-0.1 0.2-0.3c1.6-2 2.9-3.6 3.7-4.7q0 0 0 0c0.8-0.9 1.2-1.4 1.2-1.4h2.2 0.7q0 0 0 0h7.6c10.1 13.5 19.3 38 19.4 47.8-3.6-11.7-11.2-16.3-18.8-17.7-3.1-0.6-6.3-0.6-9.2-0.3q-0.1 0-0.1 0-0.8 0.1-1.6 0.2-0.6 0.1-1.2 0.2c-5.3 0.8-9.1 2.3-9.1 2.3 0 0-8.9 6-10.7 13.9-0.8 3.2 0 10.1 3 19.3 3 9.4 8.2 21.2 16.1 33.8-2.1-0.2-13.3-18.8-20.1-34.5-3.2-7.2-5.4-13.8-5.5-17.8z"/><path class="aU" d="m157.4 466c4.8-18.9-4.4-49.1-4.4-49.1 0 0 0.8 27.8-3.1 42.1-4 14.2 6.1 12.9 7.5 7z"/><path class="aV" d="m148.7 464.7c5-16.8 4.3-47.8 4.3-47.8z"/><path class="aW" d="m173.9 479.2c-6.9-4.9-22.4 33.4-17.7 28.6 3.6-3.7 17.7-28.6 17.7-28.6z"/><path class="aX" d="m122.9 462.6q0-0.1 0-0.2c0.1-1.3 0.5-2.9 1.1-4.7q0 0 0-0.1c3.7-10.2 14.9-26.2 21-34.3q0.1-0.1 0.2-0.3c2-2.6 3.4-4.3 3.7-4.7q0 0 0 0c3.9-3.9 0.5 2.5-13.4 27.6-6.1 11-12.8 20.5-12.6 16.7z"/><path class="aY" d="m145 423.3q0.1-0.1 0.2-0.3c2-2.6 3.4-4.3 3.7-4.7 0 0 1.4 18.6 0.2 28.8-2.1 16.6-4.6 31.3-8.2 33.4-3.2 1.8-6.3 2.2-8.6 2.1-2.4-0.1-4-0.7-4-0.7-3.2-7.2-5.4-13.8-5.5-17.8q0-0.7 0.1-1.5 0-0.1 0-0.2c0.1-1.3 0.5-2.9 1.1-4.7q0 0 0-0.1c3.7-10.8 14.5-25.8 21-34.3z"/><path class="aZ" d="m95 372.6q0.9 0 1.8 0.1 0 0 0.1 0 1.9 0.2 4.2 1h0.1c10.7 3.4 25.9 14.1 34.5 20.6q0.1 0.1 0.3 0.2c2.1 1.6 3.8 2.9 4.9 3.8q0 0 0 0.1c0.9 0.7 1.4 1.1 1.4 1.1v2.5 0.4l0.1 7.5c-13.5 10.2-37.8 19.5-47.5 19.7q-1.5 0-2.5-0.3c-1.6-0.4-5.2-2.1-9.6-4.4l-0.1-0.1c-3.2-1.7-7-3.7-10.8-5.9-13.8-7.9-29-17.8-28.8-20.4 0.4-3 39.3-25.5 51.9-25.9z"/><path class="b0" d="m95 372.6q0.9 0 1.8 0.1 0 0 0.1 0 1.9 0.2 4.2 1h0.1c10.7 3.4 25.9 14.1 34.5 20.6q0.1 0.1 0.3 0.2c2.1 1.6 3.8 2.9 4.9 3.8q0 0 0 0.1c0.9 0.7 1.4 1.1 1.4 1.1v2.5 0.4l0.1 7.5c-13.5 10.2-37.8 19.5-47.5 19.7 11.7-3.7 16.2-11.2 17.5-18.8 0.4-2.4 0.5-4.7 0.4-7q-0.1-1.1-0.2-2.2 0-0.1 0-0.1-0.1-0.8-0.2-1.6c-0.8-5.9-2.6-10.2-2.6-10.2 0 0-6-8.9-13.9-10.7-6.5-1.4-28 3.8-52.8 19.5 0.4-3 39.3-25.5 51.9-25.9z"/><path class="b1" d="m89 403.8c18.5 16.7 53.3-1.4 53.3-1.4 0 0-27.7 1-41.9-2.8-14.2-3.9-13.6 2.3-11.4 4.2z"/><path class="b2" d="m94.6 398.4c16.9 4.9 47.7 4 47.7 4z"/><path class="b3" d="m51.7 406.2c3.3-3 18.5 2.7 26.9 8.9 4.3 3.1 6.8 6.3 5.2 8.6l-1 1.2-0.1-0.1-10.8-5.9z"/><path class="b4" d="m113.3 385.2c25.1 13.6 31.5 17 27.6 13.2-1.6-1.6-32.7-25.1-44.3-25.7-3.8-0.2 5.7 6.5 16.7 12.5z"/><path class="b5" d="m71.9 418.9q0.2-0.1 0.5-0.3c2.2-0.8 4.3-2.1 6.2-3.5 6.1-4.7 10.4-11.3 10.4-11.3 0 0 5.8 3.7 19.3 3.4 17.9-0.3 23.4-3.4 31.9-4.8q0 0 0.1 0 0 0 0 0 0.4-0.1 0.9-0.1 0 0 0 0 0.6-0.1 1.1-0.3v0.4l0.1 7.5c-13.5 10.2-37.8 19.5-47.5 19.7q-1.5 0-2.5-0.3c-1.6-0.4-5.2-2.1-9.6-4.4l-0.1-0.1c-3.2-1.7-7-3.7-10.8-5.9z"/><path class="b6" d="m83 424.6c10.8-11.7 59-17.2 59-17.2l8.5 8.2c-2.3 18.9-13.9 45.9-21.4 53.9q-1.2 1.2-2.2 1.8c-7.1 4.1-60.6 19.4-63.7 15.7-2.2-2.7 10.2-52 19.8-62.4z"/><path class="b7" d="m83 424.6c10.8-11.7 59-17.2 59-17.2l8.5 8.2c-2.3 18.9-13.9 45.9-21.4 53.9 14.8-29.5-20.6-43.5-20.6-43.5 0 0-7.6-2.2-18.5 5.2-6.2 4.2-20.1 23.3-26.8 55.8-2.2-2.7 10.2-52 19.8-62.4z"/><path class="b8" d="m103.5 451.5c24.8-6.8 40.8-41.9 40.8-41.9 0 0-20.9 23.3-35.2 31.8-14.3 8.5-8.9 11-5.6 10.1z"/><path class="b9" d="m103.6 445.2c17.2-9.8 40.7-35.6 40.7-35.6z"/><path class="ba" d="m116.6 475.3c-1.8-9.3-47.9 12.1-40.4 10.8 14.4-2.5 40.4-10.8 40.4-10.8z"/><path class="bb" d="m432.2 464.1q0-0.7-0.1-1.5 0-0.1 0-0.2-0.3-2.2-1.1-4.7 0 0 0-0.1c-3.7-10.8-14.5-25.8-21-34.3q-0.1-0.1-0.2-0.3c-1.6-2-2.9-3.6-3.7-4.7q0 0-0.1 0c-0.7-0.9-1.1-1.4-1.1-1.4h-2.2-0.7q0 0 0 0h-7.6c-10.1 13.5-19.3 38-19.4 47.8q0 1.5 0.3 2.5c0.5 1.6 2.2 5.2 4.6 9.6 7.9 14.9 23.4 40 26.7 39.6 2.1-0.2 13.3-18.8 20.1-34.5 3.2-7.2 5.4-13.8 5.5-17.8z"/><path class="bc" d="m432.2 464.1q0-0.7-0.1-1.5 0-0.1 0-0.2-0.3-2.2-1.1-4.7 0 0 0-0.1c-3.7-10.8-14.5-25.8-21-34.3q-0.1-0.1-0.2-0.3c-1.6-2-2.9-3.6-3.7-4.7q0 0-0.1 0c-0.7-0.9-1.1-1.4-1.1-1.4h-2.2-0.7q0 0 0 0h-7.6c-10.1 13.5-19.3 38-19.4 47.8 3.6-11.7 11.2-16.3 18.8-17.7 3.1-0.6 6.3-0.6 9.2-0.3q0.1 0 0.1 0 0.8 0.1 1.6 0.2 0.6 0.1 1.2 0.2c5.3 0.8 9.1 2.3 9.1 2.3 0 0 8.9 6 10.7 13.9 0.8 3.2-0.1 10.1-3 19.3-3 9.4-8.2 21.2-16.1 33.8 2.1-0.2 13.3-18.8 20.1-34.5 3.2-7.2 5.4-13.8 5.5-17.8z"/><path class="bd" d="m397.6 466c-4.8-18.9 4.4-49.1 4.4-49.1 0 0-0.8 27.8 3.1 42.1 4 14.2-6.1 12.9-7.5 7z"/><path class="be" d="m406.3 464.7c-5-16.8-4.3-47.8-4.3-47.8z"/><path class="bf" d="m381.1 479.2c6.9-4.9 22.4 33.4 17.7 28.6-3.6-3.7-17.7-28.6-17.7-28.6z"/><path class="bg" d="m432.1 462.6q0-0.1 0-0.2c-0.1-1.3-0.5-2.9-1.1-4.7q0 0 0-0.1c-3.7-10.2-14.9-26.2-21-34.3q-0.1-0.1-0.2-0.3c-2-2.6-3.4-4.3-3.7-4.7q0 0-0.1 0c-3.8-3.9-0.4 2.5 13.5 27.6 6.1 11 12.8 20.5 12.6 16.7z"/><path class="bh" d="m410 423.3q-0.1-0.1-0.2-0.3c-2-2.6-3.4-4.3-3.7-4.7 0 0-1.4 18.6-0.2 28.8 2.1 16.6 4.6 31.3 8.2 33.4 3.2 1.8 6.3 2.2 8.6 2.1 2.4-0.1 4-0.7 4-0.7 3.2-7.2 5.4-13.8 5.5-17.8q0-0.7-0.1-1.5 0-0.1 0-0.2c-0.1-1.3-0.5-2.9-1.1-4.7q0 0 0-0.1c-3.7-10.8-14.5-25.8-21-34.3z"/><path class="bi" d="m460 372.6q-0.9 0-1.8 0.1 0 0-0.1 0-1.9 0.2-4.2 1h-0.1c-10.8 3.4-25.9 14.1-34.5 20.6q-0.1 0.1-0.3 0.2c-2.1 1.6-3.8 2.9-4.9 3.8q0 0 0 0.1c-0.9 0.7-1.4 1.1-1.4 1.1v2.5 0.4l-0.1 7.5c13.4 10.2 37.8 19.5 47.5 19.7q1.5 0 2.5-0.3c1.6-0.4 5.2-2.1 9.6-4.4l0.1-0.1c3.2-1.7 7-3.7 10.8-5.9 13.8-7.9 29-17.8 28.7-20.4-0.3-3-39.2-25.5-51.8-25.9z"/><path class="bj" d="m460 372.6q-0.9 0-1.8 0.1 0 0-0.1 0-1.9 0.2-4.2 1h-0.1c-10.8 3.4-25.9 14.1-34.5 20.6q-0.1 0.1-0.3 0.2c-2.1 1.6-3.8 2.9-4.9 3.8q0 0 0 0.1c-0.9 0.7-1.4 1.1-1.4 1.1v2.5 0.4l-0.1 7.5c13.4 10.2 37.8 19.5 47.5 19.7-11.7-3.7-16.2-11.2-17.5-18.8-0.4-2.4-0.5-4.7-0.4-7q0.1-1.1 0.2-2.2 0-0.1 0-0.1 0.1-0.8 0.2-1.6c0.8-5.9 2.6-10.2 2.6-10.2 0 0 6-8.9 13.8-10.7 6.6-1.4 28.1 3.8 52.8 19.5-0.3-3-39.2-25.5-51.8-25.9z"/><path class="bk" d="m465.9 403.8c-18.5 16.7-53.2-1.4-53.2-1.4 0 0 27.7 1 41.9-2.8 14.2-3.9 13.6 2.3 11.3 4.2z"/><path class="bl" d="m460.4 398.4c-16.9 4.9-47.7 4-47.7 4z"/><path class="bm" d="m503.3 406.2c-3.3-3-18.5 2.7-26.9 8.9-4.3 3.1-6.8 6.3-5.2 8.6l1 1.2 0.1-0.1 10.8-5.9z"/><path class="bn" d="m441.7 385.2c-25.1 13.6-31.5 17-27.6 13.2 1.6-1.6 32.6-25.1 44.3-25.7 3.8-0.2-5.7 6.5-16.7 12.5z"/><path class="bo" d="m483.1 418.9q-0.3-0.1-0.5-0.3c-2.2-0.8-4.3-2.1-6.2-3.5-6.1-4.7-10.5-11.3-10.5-11.3 0 0-5.7 3.7-19.2 3.4-17.9-0.3-23.4-3.4-31.9-4.8q-0.1 0-0.1 0 0 0-0.1 0-0.4-0.1-0.8-0.1 0 0 0 0-0.6-0.1-1.1-0.3v0.4l-0.1 7.5c13.4 10.2 37.8 19.5 47.5 19.7q1.5 0 2.5-0.3c1.6-0.4 5.2-2.1 9.6-4.4l0.1-0.1c3.2-1.7 7-3.7 10.8-5.9z"/><path class="bp" d="m472 424.6c-10.8-11.7-59-17.2-59-17.2l-8.5 8.2c2.3 18.9 13.9 45.9 21.4 53.9q1.2 1.2 2.2 1.8c7.1 4.1 60.6 19.4 63.7 15.7 2.2-2.7-10.2-52-19.8-62.4z"/><path class="bq" d="m472 424.6c-10.8-11.7-59-17.2-59-17.2l-8.5 8.2c2.3 18.9 13.9 45.9 21.4 53.9-14.8-29.5 20.6-43.5 20.6-43.5 0 0 7.6-2.2 18.5 5.2 6.2 4.2 20.1 23.3 26.8 55.8 2.2-2.7-10.2-52-19.8-62.4z"/><path class="br" d="m451.5 451.5c-24.9-6.8-40.8-41.9-40.8-41.9 0 0 20.9 23.3 35.2 31.8 14.3 8.5 8.9 11 5.6 10.1z"/><path class="bs" d="m451.4 445.2c-17.2-9.8-40.7-35.6-40.7-35.6z"/><path class="bt" d="m438.4 475.3c1.8-9.3 47.9 12.1 40.4 10.8-14.5-2.5-40.4-10.8-40.4-10.8z"/><path fill-rule="evenodd" class="bu" d="m504.6 372.8c-1.9 4.6-60.2 21.1-83.3 27.5-6.7 7.6-13.9 14.6-21.6 21.1-5.8 21.2-23.3 83.8-28.1 85.8-5.7 2.4-80.7-39.1-85.1-41.6q-4.6 0.2-9.2 0.2-4.6 0-9.1-0.2c-4.5 2.5-79.4 44-85.2 41.6-4.8-2-22.3-64.6-28.1-85.8-7.7-6.5-14.9-13.5-21.5-21.1-23.2-6.4-81.5-22.9-83.4-27.5-0.4-0.9 0.2-9.2 0-9.7-2-4.7 25.5-55.8 36.9-76.6 0-0.4-1.2-11.5 0-23-11.4-20.7-37.1-69.7-36.9-76.6 0-0.5-0.4-8.7 0-9.7 1.9-4.6 60.2-21 83.4-27.4 6.6-7.6 13.8-14.7 21.5-21.1 5.8-21.3 23.3-83.8 28.1-85.8 5.8-2.5 80.7 39.1 85.2 41.5q4.5-0.2 9.1-0.2 4.6 0 9.2 0.2c4.4-2.4 79.4-44 85.1-41.5 4.8 2 22.3 64.5 28.1 85.8 7.7 6.4 14.9 13.5 21.6 21.1 23.1 6.4 81.4 22.8 83.3 27.4 0.4 1 0 9.2 0 9.7 0.2 5.3-25.5 55.9-36.9 76.6 0.9 11.5 0.1 22.6 0 23 11.4 20.8 38.9 71.9 36.9 76.6-0.2 0.5 0.4 8.8 0 9.7zm-83.5-97.8c0-79.5-64.3-143.8-143.8-143.8-79.5 0-143.8 64.3-143.8 143.8 0 79.5 64.3 143.8 143.8 143.8 79.5 0 143.8-64.3 143.8-143.8z"/><path class="bv" d="m244.4 463.1q1 0.2 2 0.4c-5.7 4.1-11.7 7.6-17.6 10.5q-0.1 0-0.1 0c-3.3 1.7-6.7 3.2-9.8 4.5q-0.2 0-0.3 0.1c-15.3 6.3-27.5 8.6-28.2 8.8q0 0 0 0 0 0 0-0.1c-7.9-15.3-12.9-30.6-15.9-42.5q0-0.1 0-0.2-0.1-0.2-0.1-0.4c-0.9-3.6-1.6-6.9-2.2-9.8q0.7 0.5 1.5 1 1.2 0.8 2.5 1.6 1 0.7 2.1 1.3c19.3 11.7 40.9 20.2 63.9 24.4z"/><path class="bw" d="m243.5 463c-10.2 6.6-29.7 17.7-51.5 20.9 0 0-9.1-14.3-15.8-46.9q1 0.7 2.1 1.3c19.3 11.7 40.9 20.2 63.9 24.4z"/><path class="bx" d="m244.4 463.1c-3.2 2.8-8.7 7.2-15.6 10.9q-0.1 0-0.1 0c-2.8 1.5-6.1 3-9.8 4.5q-0.2 0-0.3 0.1c-8.1 3.2-18 6.3-28.2 8.8q0 0 0 0 0 0 0-0.1c-0.6-1-9.6-17.5-15.9-42.5q0-0.1 0-0.2-0.1-0.2-0.1-0.4c-0.6-2.7-0.7-5.9-0.7-8.8q1.2 0.8 2.5 1.6 1 0.7 2.1 1.3c3.6 9.4 9.5 22.6 17.1 31.4 0 0 21.8 3.7 46.8-7z"/><path class="by" d="m382.4 434.4c-0.5 2.9-1.3 6.2-2.2 9.8q0 0.2-0.1 0.4 0 0.1 0 0.2c-3 11.9-8 27.2-15.9 42.5q0 0.1 0 0.1 0 0 0 0c-0.6-0.2-12.9-2.6-28.2-8.8q-0.1-0.1-0.2-0.1c-3.3-1.3-6.6-2.9-10-4.5-5.9-2.9-11.9-6.4-17.6-10.5q1-0.2 2-0.4l2.2-0.4c23-4.2 44.6-12.7 63.9-24.4q1.1-0.6 2.1-1.3 1.3-0.8 2.5-1.6 0.8-0.5 1.5-1z"/><path class="bz" d="m378.4 437c-6.6 32.6-15.8 46.9-15.8 46.9-21.8-3.2-41.3-14.3-51.5-20.9q0 0 0 0l1.3-0.3c23-4.2 44.6-12.7 63.9-24.4q1.1-0.6 2.1-1.3z"/><path class="bA" d="m380.2 444.2q0 0.2-0.1 0.4 0 0.1 0 0.2c-6.2 25-15.3 41.5-15.9 42.5q0 0.1 0 0.1 0 0 0 0c-10.2-2.5-20.1-5.6-28.2-8.8q-0.1-0.1-0.2-0.1c-3.8-1.5-7.1-3-9.9-4.5q0 0-0.1 0c-6.9-3.7-12.4-8.1-15.6-10.9l2.2-0.4c25.1 10.7 46.8 7 46.8 7 7.6-8.8 13.5-22 17.1-31.4q1.1-0.6 2.1-1.3 1.3-0.8 2.5-1.6c0.1 2.9-0.1 6.1-0.7 8.8z"/><path class="bB" d="m244.4 87.1q1-0.2 2-0.3c-5.7-4.1-11.7-7.6-17.6-10.5q-0.1-0.1-0.1-0.1c-3.3-1.6-6.7-3.1-9.8-4.4q-0.2-0.1-0.3-0.2c-15.3-6.2-27.5-8.6-28.2-8.7q0 0 0 0 0 0 0 0c-7.9 15.3-12.9 30.6-15.9 42.6q0 0 0 0.1-0.1 0.2-0.1 0.5c-0.9 3.6-1.6 6.8-2.2 9.7q0.7-0.5 1.5-1 1.2-0.8 2.5-1.6 1-0.6 2.1-1.3c19.3-11.7 40.9-20.1 63.9-24.4z"/><path class="bC" d="m243.5 87.3c-10.2-6.7-29.7-17.8-51.5-21 0 0-9.1 14.3-15.8 46.9q1-0.6 2.1-1.3c19.3-11.7 40.9-20.1 63.9-24.4z"/><path class="bD" d="m244.4 87.1c-3.2-2.8-8.7-7.2-15.6-10.8q-0.1-0.1-0.1-0.1c-2.8-1.5-6.1-3-9.8-4.4q-0.2-0.1-0.3-0.2c-8.1-3.1-18-6.2-28.2-8.7q0 0 0 0 0 0 0 0c-0.6 1-9.6 17.5-15.9 42.6q0 0 0 0.1-0.1 0.2-0.1 0.5c-0.6 2.6-0.7 5.8-0.7 8.7q1.2-0.8 2.5-1.6 1-0.6 2.1-1.3c3.6-9.4 9.5-22.6 17.1-31.4 0 0 21.8-3.7 46.8 7z"/><path class="bE" d="m224.3 60.9c-19-7-39.2-13.3-39.2-13.3-6.1 9.5-19.4 43.6-20 45.2 6.9-23.7 14.9-48.7 17.9-49.9 2.8-1.2 21.9 8 41.3 18q0 0 0 0z"/><path class="bF" d="m310.3 87.1q-1-0.2-2-0.3c5.7-4.1 11.7-7.6 17.6-10.5q0-0.1 0.1-0.1c3.3-1.6 6.6-3.1 9.8-4.4q0.1-0.1 0.3-0.2c15.2-6.2 27.5-8.6 28.1-8.7q0.1 0 0.1 0 0 0 0 0c7.9 15.3 12.8 30.6 15.8 42.6q0.1 0 0.1 0.1 0 0.2 0.1 0.5c0.9 3.6 1.6 6.8 2.2 9.7q-0.8-0.5-1.5-1-1.3-0.8-2.5-1.6-1.1-0.6-2.1-1.3c-19.3-11.7-40.9-20.1-64-24.4z"/><path class="bG" d="m311.2 87.3c10.1-6.7 29.7-17.8 51.5-21 0 0 9.1 14.3 15.8 46.9q-1.1-0.6-2.1-1.3c-19.3-11.7-40.9-20.1-64-24.4z"/><path class="bH" d="m310.3 87.1c3.2-2.8 8.7-7.2 15.6-10.8q0-0.1 0.1-0.1c2.8-1.5 6.1-3 9.8-4.4q0.1-0.1 0.3-0.2c8.1-3.1 18-6.2 28.1-8.7q0.1 0 0.1 0 0 0 0 0c0.6 1 9.6 17.5 15.8 42.6q0.1 0 0.1 0.1 0 0.2 0.1 0.5c0.6 2.6 0.7 5.8 0.7 8.7q-1.3-0.8-2.5-1.6-1.1-0.6-2.1-1.3c-3.6-9.4-9.6-22.6-17.1-31.4 0 0-21.8-3.7-46.9 7z"/><path class="bI" d="m330.4 60.9c19-7 39.1-13.3 39.1-13.3 6.2 9.5 19.5 43.6 20.1 45.2-7-23.7-14.9-48.7-17.9-49.9-2.8-1.2-21.9 8-41.3 18q0 0 0 0z"/><path class="bJ" d="m432.8 164.6q-0.6-0.8-1.2-1.7c6.9 1.1 13.6 2.9 19.9 5q0 0 0.1 0c3.5 1.2 6.9 2.5 10.1 3.8q0.1 0.1 0.3 0.2c15.2 6.3 25.5 13.3 26.1 13.6q0 0 0 0 0 0 0 0.1c-5.2 16.4-12.5 30.7-18.8 41.3q-0.1 0.1-0.1 0.1-0.1 0.2-0.3 0.4c-1.9 3.2-3.7 6.1-5.3 8.5q-0.2-0.9-0.3-1.8-0.4-1.4-0.7-2.9-0.3-1.2-0.6-2.4c-5.4-21.9-14.7-43.1-28-62.4z"/><path class="bK" d="m433.3 165.3c11.9 2.5 33.5 8.4 51.3 21.6 0 0-3.7 16.5-22 44.3q-0.3-1.2-0.6-2.4c-5.4-21.9-14.7-43.1-28-62.4z"/><path class="bL" d="m432.8 164.6c4.2 0.3 11.2 1 18.7 3.3q0 0 0.1 0c3 1 6.4 2.3 10.1 3.8q0.1 0.1 0.3 0.2c7.9 3.4 17.1 8.2 26.1 13.6q0 0 0 0 0 0 0 0.1c-0.3 1.1-5.5 19.2-18.8 41.3q-0.1 0.1-0.1 0.1-0.1 0.2-0.3 0.4c-1.4 2.3-3.6 4.7-5.6 6.7q-0.4-1.4-0.7-2.9-0.3-1.2-0.6-2.4c4.1-9.2 9.2-22.7 10.1-34.3 0 0-12.8-18-38.1-28.1z"/><path class="bM" d="m464.8 162.3c17.1 7.7 34.6 16.6 34.6 16.6-2.1 10.3-15.5 41.5-16.1 42.9 10.8-20.2 21.7-41.9 20.5-44.7-1.1-2.5-19.6-8.9-39-14.8q0 0 0 0z"/><path class="bN" d="m432.8 385.3q-0.6 0.8-1.2 1.7c6.9-1.2 13.6-3 19.9-5.1q0 0 0.1 0c3.5-1.2 6.9-2.5 10.1-3.8q0.1 0 0.3-0.1c15.2-6.3 25.5-13.3 26.1-13.7q0 0 0 0 0 0 0 0c-5.2-16.4-12.5-30.8-18.8-41.3q-0.1-0.1-0.1-0.2-0.1-0.2-0.3-0.4c-1.9-3.2-3.7-6-5.3-8.4q-0.2 0.9-0.3 1.7-0.4 1.5-0.7 2.9-0.3 1.2-0.6 2.4c-5.4 22-14.7 43.2-28 62.5z"/><path class="bO" d="m433.3 384.5c11.9-2.4 33.5-8.4 51.3-21.5 0 0-3.7-16.5-22-44.4q-0.3 1.2-0.6 2.4c-5.4 22-14.7 43.2-28 62.5z"/><path class="bP" d="m432.8 385.3c4.2-0.3 11.2-1.1 18.7-3.4q0 0 0.1 0c3-0.9 6.4-2.2 10.1-3.8q0.1 0 0.3-0.1c7.9-3.4 17.1-8.2 26.1-13.7q0 0 0 0 0 0 0 0c-0.3-1.1-5.5-19.2-18.8-41.3q-0.1-0.1-0.1-0.2-0.1-0.2-0.3-0.4c-1.4-2.3-3.6-4.6-5.6-6.7q-0.4 1.5-0.7 2.9-0.3 1.2-0.6 2.4c4.1 9.2 9.2 22.8 10.1 34.4 0 0-12.8 17.9-38.1 28.1z"/><path class="bQ" d="m464.8 387.6c17.1-7.8 34.6-16.6 34.6-16.6-2.1-10.3-15.5-41.5-16.1-43 10.8 20.2 21.7 41.9 20.5 44.7-1.1 2.6-19.6 8.9-39 14.9q0 0 0 0z"/><path class="bR" d="m121 164.6q0.6-0.8 1.2-1.7c-7 1.1-13.7 2.9-19.9 5q-0.1 0-0.1 0c-3.6 1.2-7 2.5-10.1 3.8q-0.2 0.1-0.3 0.2c-15.2 6.3-25.6 13.3-26.1 13.6q-0.1 0-0.1 0 0 0 0 0.1c5.3 16.4 12.6 30.7 18.9 41.3q0 0.1 0 0.1 0.2 0.2 0.3 0.4c1.9 3.2 3.7 6.1 5.3 8.5q0.2-0.9 0.4-1.8 0.3-1.4 0.6-2.9 0.3-1.2 0.6-2.4c5.4-21.9 14.7-43.1 28-62.4z"/><path class="bS" d="m120.5 165.3c-11.9 2.5-33.6 8.4-51.3 21.6 0 0 3.6 16.5 21.9 44.3q0.3-1.2 0.6-2.4c5.4-21.9 14.7-43.1 28-62.4z"/><path class="bT" d="m121 164.6c-4.2 0.3-11.3 1-18.7 3.3q-0.1 0-0.1 0c-3.1 1-6.5 2.3-10.1 3.8q-0.2 0.1-0.3 0.2c-8 3.4-17.2 8.2-26.1 13.6q-0.1 0-0.1 0 0 0 0 0.1c0.4 1.1 5.6 19.2 18.9 41.3q0 0.1 0 0.1 0.2 0.2 0.3 0.4c1.4 2.3 3.6 4.7 5.7 6.7q0.3-1.4 0.6-2.9 0.3-1.2 0.6-2.4c-4.1-9.2-9.2-22.7-10.1-34.3 0 0 12.8-18 38.1-28.1z"/><path class="bU" d="m88.9 162.3c-17.1 7.7-34.5 16.6-34.5 16.6 2.1 10.3 15.5 42.7 16.1 44.2-10.3-19.2-21.4-44.9-20.6-46 1.7-2.2 19.7-8.9 39-14.8q0 0 0 0z"/><path class="bV" d="m121 385.3q0.6 0.8 1.2 1.7c-7-1.2-13.7-3-19.9-5.1q-0.1 0-0.1 0c-3.6-1.2-7-2.5-10.1-3.8q-0.2 0-0.3-0.1c-15.2-6.3-25.6-13.3-26.1-13.7q-0.1 0-0.1 0 0 0 0 0c5.3-16.4 12.6-30.8 18.9-41.3q0-0.1 0-0.2 0.2-0.2 0.3-0.4c1.9-3.2 3.7-6 5.3-8.4q0.2 0.9 0.4 1.7 0.3 1.5 0.6 2.9 0.3 1.2 0.6 2.4c5.4 22 14.7 43.2 28 62.5z"/><path class="bW" d="m120.5 384.5c-11.9-2.4-33.6-8.4-51.3-21.5 0 0 3.6-16.5 21.9-44.4q0.3 1.2 0.6 2.4c5.4 22 14.7 43.2 28 62.5z"/><path class="bX" d="m121 385.3c-4.2-0.3-11.3-1.1-18.7-3.4q-0.1 0-0.1 0c-3.1-0.9-6.5-2.2-10.1-3.8q-0.2 0-0.3-0.1c-8-3.4-17.2-8.2-26.1-13.7q-0.1 0-0.1 0 0 0 0 0c0.4-1.1 5.6-19.2 18.9-41.3q0-0.1 0-0.2 0.2-0.2 0.3-0.4c1.4-2.3 3.6-4.6 5.7-6.7q0.3 1.5 0.6 2.9 0.3 1.2 0.6 2.4c-4.1 9.2-9.2 22.8-10.1 34.4 0 0 12.8 17.9 38.1 28.1z"/><path class="bY" d="m88.9 387.6c-17.1-7.8-34.5-16.6-34.5-16.6 2.1-10.3 15.4-41.5 16-43-10.7 20.2-21.7 41.9-20.5 44.7 1.1 2.6 19.7 8.9 39 14.9q0 0 0 0z"/><path class="bZ" d="m454.7 345.2c-27.9 70.6-96.8 120.6-177.4 120.6-76.2 0-141.9-44.7-172.5-109.3 70.3 64.8 213.3 125.4 349.9-11.3z"/><path class="c0" d="m443.4 394c-8.6 2.5-16.4 4.7-22.1 6.3-6.6 7.6-13.9 14.6-21.6 21.1-1.6 6.1-4.3 15.5-7.3 26-22.3 15.9-48.3 28.6-74 35.5-16.1-8.5-30.1-16.3-31.9-17.3q-4.6 0.2-9.2 0.2-4.6 0-9.1-0.2c-1.9 1.1-16.3 9-32.7 17.7-25.8-6.5-51.3-18.6-72.9-34.5-3.2-11-6-21.1-7.7-27.4-7.7-6.5-14.9-13.5-21.5-21.1-4.8-1.4-11.1-3.1-18-5.1-6.2-12.2-9.9-25.2-10.6-38.7 50.7 83.8 220.6 183.6 349.9-11.3 2.5 16-2 32.7-11.3 48.8z"/><path class="c1" d="m277.3 84.2c-86.3 0-159.3 57.3-182.8 136 31.2-69 102.1-102.2 182.8-102.2 88 0 161.3 42.3 187.5 121.5-16.6-88.4-94.2-155.3-187.5-155.3z"/><path fill-rule="evenodd" class="c2" d="m277.3 432c-86.8 0-157-70.2-157-157 0-86.8 70.2-157 157-157 86.8 0 157 70.2 157 157 0 86.8-70.2 157-157 157zm143.8-157c0-79.6-64.3-143.9-143.8-143.9-79.5 0-143.8 64.3-143.8 143.9 0 79.5 64.3 143.8 143.8 143.8 79.5 0 143.8-64.3 143.8-143.8z"/><path class="c3" d="m150.9 368.2c0 0 42.1 50.6 126.4 50.6 84.3 0 126.4-50.6 126.4-50.6 0 0-41.1 66.1-126.4 66.1-85.3 0-126.4-66.1-126.4-66.1z"/><path class="c4" d="m150.9 368.2c0 0 42.1 63.8 126.4 63.8 84.3 0 126.4-63.8 126.4-63.8 0 0-41.1 66.1-126.4 66.1-85.3 0-126.4-66.1-126.4-66.1z"/><path class="c5" d="m428.4 232.3c-3.7-2.1-9.3-5.6-17.7-11.2 0 0-39.5-44.1-132.5-44.1-88 0-136.2 49-136.2 49-7.6 7.9-14.2 14.3-18.4 17.1 14.7-71.4 77.9-125.1 153.7-125.1 71.9 0 132.5 48.3 151.1 114.3z"/><path class="c6" d="m277.3 102.5c-6.2 8 43.6 21.2 49.5 15.5 6-5.7 0.4-14.1-10.8-15.5-11.3-1.4-33.8-6.4-38.7 0z"/><path class="c6" d="m266.2 433.9c-3.6-6.8 35.6-13.5 41.1-8.6 5.5 4.9-4.3 6.9-4.3 6.9z"/><path class="c7" d="m307.3 162.8c-30.5 0-55.1-24.7-55.1-55.2 0-30.5 24.6-55.2 55.1-55.2 30.6 0 55.2 24.7 55.2 55.2 0 30.5-24.6 55.2-55.2 55.2z"/><path class="c8" d="m242.9 457c-3.1 11.8-20.2 17.5-38.1 12.8-17.9-4.8-29.8-18.2-26.7-30 3.1-11.8 20.1-17.5 38-12.8 17.9 4.8 29.9 18.2 26.8 30z"/><path class="c9" d="m504.6 186.9c0.2 5.3-25.5 55.9-36.9 76.6l-0.7-12.3c0 0 32.3-50.3 36.8-74.1l1 2c0 2.8-0.2 7.4-0.2 7.8z"/><path class="ca" d="m504.6 372.8q-0.1 0.3-0.6 0.7-0.1-0.4-0.2-0.8c-7.7-28.2-36.8-73.9-36.8-73.9l0.7-12.3c11.4 20.8 38.9 71.9 36.9 76.6-0.2 0.5 0.4 8.8 0 9.7z"/><path class="cb" d="m86.9 286.5v14.2c0 0-22.6 32.3-37 71.9-0.3-1.6 0.3-9 0.1-9.5-2-4.7 25.5-55.8 36.9-76.6z"/><path class="cc" d="m86.9 248.6v14.9c-11.4-20.7-37-69.7-36.9-76.6 0-0.5-0.4-8.3 0-9.6 16.4 46 36.9 71.3 36.9 71.3z"/><path class="cd" d="m259.7 464.9l8.5 0.7c-4.5 2.5-79.4 44-85.2 41.6-1.4-0.6-3.8-6.3-6.8-14.6 0.3 0.6 5.6 11.5 8.4 11.5 2.9 0 75.1-39.2 75.1-39.2z"/><path class="ce" d="m378.4 492.6c-2.9 8.3-5.4 14-6.8 14.6-5.7 2.4-80.7-39.1-85.1-41.6l10.6-0.9c0 0 50.5 31.7 71.1 38 5.2 1.6 9.8-9.1 10.2-10.1z"/><path class="cf" d="m420 340c0 0-0.4-9.7-6.8-18.6 0 0 7.1-17.6 6.3-28.5l48.1-1.1 13.1-35.9c0 0 17.9 13.8 14.4 35.9-3.6 22.2-9.9 27.8-9.9 27.8l-5.3 1.8c0 0-5.5 13.1-22.9 18.6 0 0-11.6 10.3-37 0z"/><path class="cg" d="m416.4 262.2c-15.7 26.3 2.4 54.3 27 58.7 24.6 4.3 53.1-18.5 43.8-50.3-9.4-31.9-57.1-31.6-70.8-8.4z"/><path class="ch" d="m432.7 255.3c-13.6 7-18.9 30.9-6.9 45.6 11.9 14.8 39.7 16.5 51-4.2 12.2-22.3-9.9-59-44.1-41.4z"/><path class="ci" d="m449.5 309c-15.5 0-28-12.5-28-28 0-15.6 12.5-28.1 28-28.1 15.6 0 28.1 12.5 28.1 28.1 0 15.5-12.5 28-28.1 28z"/><path class="cj" d="m449.5 307.2c-15 0-27.2-12.2-27.2-27.3 0-15 12.2-27.2 27.2-27.2 15.1 0 27.3 12.2 27.3 27.2 0 15.1-12.2 27.3-27.3 27.3z"/><path class="ck" d="m476.8 279.9c0 15.1-12.2 27.3-27.3 27.3-15 0-27.2-12.2-27.2-27.3 0-7.3 2.8-13.9 7.6-18.8-2.4 3.6-3.8 8-3.8 12.7 0 12.7 9.9 23 22.1 23 12.2 0 22.1-10.3 22.1-23 0-7.5-3.5-14.2-8.9-18.4 9.2 4.4 15.4 13.7 15.4 24.5z"/><path class="cl" d="m448.2 291.8c-9.4 0-17-7.6-17-17 0-9.4 7.6-17 17-17 9.4 0 17 7.6 17 17 0 9.4-7.6 17-17 17z"/><path class="cm" d="m447.3 265.6c-0.3 2.9 7.9 6.3 10.3 6.3 0 0 5.4-5.1 3.4-10.1 0 0-5.9-4.7-11.2-3.3 0 0-2 3.1-2.5 7.1z"/><path class="cn" d="m443.4 320.9c-18.5-3.3-33.4-20.1-32.9-39.4 2.7 22.1 18.8 41.4 50.9 33.8 4-0.9 25.8-11 27.6-33.9 0.9 26-23.9 43.3-45.6 39.5z"/><path class="co" d="m485.8 266.8c-1.4 3.3-18.4-13.4-16.2-16.8 7 3.4 12.9 9 16.2 16.8z"/><path class="cp" d="m451.7 342.7c-34.6 0-62.7-28.1-62.7-62.8 0-34.6 28.1-62.7 62.7-62.7 34.7 0 62.8 28.1 62.8 62.7 0 34.7-28.1 62.8-62.8 62.8z"/><path class="cq" d="m134.4 340c0 0 0.4-9.7 6.7-18.6 0 0-7-17.6-6.3-28.5l-48-1.1-13.1-35.9c0 0-17.9 13.8-14.4 35.9 3.6 22.2 9.9 27.8 9.9 27.8l5.3 1.8c0 0 5.5 13.1 22.9 18.6 0 0 11.6 10.3 37 0z"/><path class="cr" d="m68.6 262.2c-15.6 26.3 2.5 54.3 27.1 58.7 24.6 4.3 53.1-18.5 43.7-50.3-9.4-31.9-57-31.6-70.8-8.4z"/><path class="cs" d="m85 255.3c-13.6 7-18.9 30.9-7 45.6 11.9 14.8 39.8 16.5 51.1-4.2 12.2-22.3-9.9-59-44.1-41.4z"/><path class="ct" d="m101.8 309c-15.5 0-28.1-12.5-28.1-28 0-15.6 12.6-28.1 28.1-28.1 15.5 0 28.1 12.5 28.1 28.1 0 15.5-12.6 28-28.1 28z"/><path class="cu" d="m101.8 307.2c-15.1 0-27.3-12.2-27.3-27.3 0-15 12.2-27.2 27.3-27.2 15.1 0 27.3 12.2 27.3 27.2 0 15.1-12.2 27.3-27.3 27.3z"/><path class="cv" d="m129.1 279.9c0 15.1-12.2 27.3-27.3 27.3-15.1 0-27.3-12.2-27.3-27.3 0-7.3 2.9-13.9 7.6-18.8-2.3 3.6-3.7 8-3.7 12.7 0 12.7 9.9 23 22.1 23 12.2 0 22.1-10.3 22.1-23 0-7.5-3.5-14.2-8.9-18.4 9.1 4.4 15.4 13.7 15.4 24.5z"/><path class="cw" d="m100.5 291.8c-9.4 0-17-7.6-17-17 0-9.4 7.6-17 17-17 9.4 0 17 7.6 17 17 0 9.4-7.6 17-17 17z"/><path class="cx" d="m99.6 265.6c-0.3 2.9 7.8 6.3 10.3 6.3 0 0 5.4-5.1 3.3-10.1 0 0-5.9-4.7-11.2-3.3 0 0-2 3.1-2.4 7.1z"/><path class="cy" d="m95.7 320.9c-18.6-3.3-33.5-20.1-32.9-39.4 2.6 22.1 18.7 41.4 50.9 33.8 3.9-0.9 25.7-11 27.5-33.9 1 26-23.8 43.3-45.5 39.5z"/><path class="cz" d="m138.1 266.8c-1.4 3.3-18.5-13.4-16.2-16.8 7 3.4 12.9 9 16.2 16.8z"/><path class="cA" d="m104 342.7c-34.7 0-62.7-28.1-62.7-62.8 0-34.6 28-62.7 62.7-62.7 34.7 0 62.7 28.1 62.7 62.7 0 34.7-28 62.8-62.7 62.8z"/><path class="cB" d="m255 464.5l2 1.9-2.5 6.7-10.1 21.5 4.4 11.5 14.3 13.4 14.3 11.8 22-18.8 6.7-14.5-8.2-26.1 0.8-6.1-1.6-1.1c0 0-20.3 3.4-42.1-0.2z"/><path class="cC" d="m301.6 497.8c-6.3 15.5-24.2 33.5-24.2 33.5 0 0-18.5-17.5-25.3-32.7 6.3-15.5 24.3-33.9 24.3-33.9 0 0 18.4 17.9 25.2 33.1z"/><path class="cD" d="m252.1 498.6c6.8 15.2 25.3 32.7 25.3 32.7l1-8.4c-11.5-9.5-20-24.1-20-24.1 0 0-2.8-0.5-6.3-0.2z"/><path class="cE" d="m278.4 522.9c0 0-14.8-13-20-24.1 0 0 4.8-12.8 18.7-25.7 0 0 13.9 9.7 20.8 24.8 0 0-5.9 11.6-19.5 25z"/><path class="cF" d="m263.6 499c6.4 12.2 15.1 17.6 15.1 17.6 8.7-7.4 13.7-18 13.7-18-5.6-9.2-14.6-18.1-14.6-18.1-6.9 7.7-14.2 18.5-14.2 18.5z"/><path class="cG" d="m263.6 499l28.8-0.4c-4.4-7.5-14.6-18.1-14.6-18.1-6.9 7.7-14.2 18.5-14.2 18.5z"/><path class="cH" d="m283.7 498.6l-5.5-6.9-5.8 7.1 5.7 6.7z"/><path class="cI" d="m290.3 498.5l-6.6 0.1-5.6 6.9 0.2 7.9z"/><path class="cJ" d="m278.1 483.8l0.1 7.9 5.5 6.9 6.6-0.1z"/><path class="cK" d="m272.4 498.8l5.7 6.7 0.2 7.9-12.6-14.5z"/><path class="cL" d="m278.1 483.8l0.1 7.9-5.8 7.1-6.7 0.1z"/><path class="cM" d="m289.8 481.2c-0.4 1.3-5.3-4.8-4.6-5.5 0.7-0.8 5.2 3.8 4.6 5.5z"/><path class="cN" d="m281 495.1c-2.8-1.7-4.2 1.2-3.5 2.9 0.8 1.7 5.6 2.2 4.2-2z"/><path class="cO" d="m142 113.2c0 0-21.3 10.9-36.4 44.4l8.1-2.3 7.3 9.3 3.6-4c0 0 7.4 17.1 16.7 27.4 0 0 13.6-13.7 19.3-22.7 5.7-8.9 11.6-22.6 11.6-22.6 0 0-4-6.6-13.4-11.9z"/><path class="cP" d="m169.1 143.6c-6.3 15.4-24.3 33.4-24.3 33.4 0 0-18.4-17.4-25.2-32.7 6.3-15.4 24.2-33.8 24.2-33.8 0 0 18.5 17.8 25.3 33.1z"/><path class="cQ" d="m119.6 144.3c6.8 15.3 25.2 32.7 25.2 32.7l1.1-8.3c-11.5-9.5-20-24.1-20-24.1 0 0-2.8-0.5-6.3-0.3z"/><path class="cR" d="m145.9 168.7c0 0-14.8-13.1-20-24.1 0 0 4.7-12.8 18.7-25.7 0 0 13.9 9.7 20.8 24.7 0 0-5.9 11.6-19.5 25.1z"/><path class="cS" d="m131.1 144.8c6.3 12.1 15.1 17.5 15.1 17.5 8.6-7.4 13.7-17.9 13.7-17.9-5.7-9.2-14.7-18.1-14.7-18.1-6.8 7.6-14.1 18.5-14.1 18.5z"/><path class="cT" d="m131.1 144.8l28.8-0.4c-4.5-7.6-14.7-18.1-14.7-18.1-6.8 7.6-14.1 18.5-14.1 18.5z"/><path class="cU" d="m151.2 144.3l-5.5-6.8-5.9 7 5.8 6.7z"/><path class="cV" d="m157.8 144.2l-6.6 0.1-5.6 6.9 0.1 8z"/><path class="cW" d="m145.6 129.5l0.1 8 5.5 6.8 6.6-0.1z"/><path class="cX" d="m139.8 144.5l5.8 6.7 0.1 8-12.5-14.6z"/><path class="cY" d="m145.6 129.5l0.1 8-5.9 7-6.6 0.1z"/><path class="cZ" d="m157.3 126.9c-0.5 1.3-5.3-4.7-4.6-5.5 0.7-0.7 5.2 3.9 4.6 5.5z"/><path class="d0" d="m148.4 140.9c-2.7-1.7-4.1 1.1-3.4 2.9 0.7 1.7 5.6 2.1 4.1-2z"/><path class="d1" d="m411.5 113.2c0 0 21.2 10.9 36.4 44.4l-8.2-2.3-7.2 9.3-3.6-4c0 0-7.5 17.1-16.7 27.4 0 0-13.7-13.7-19.3-22.7-5.7-8.9-11.6-22.6-11.6-22.6 0 0 3.9-6.6 13.3-11.9z"/><path class="d2" d="m429.3 143.6c-6.3 15.4-24.2 33.4-24.2 33.4 0 0-18.5-17.4-25.3-32.7 6.3-15.4 24.3-33.8 24.3-33.8 0 0 18.4 17.8 25.2 33.1z"/><path class="d3" d="m379.8 144.3c6.8 15.3 25.3 32.7 25.3 32.7l1-8.3c-11.5-9.5-20-24.1-20-24.1 0 0-2.8-0.5-6.3-0.3z"/><path class="d4" d="m406.1 168.7c0 0-14.8-13.1-20-24.1 0 0 4.8-12.8 18.7-25.7 0 0 13.9 9.7 20.8 24.7 0 0-5.9 11.6-19.5 25.1z"/><path class="d5" d="m391.3 144.8c6.4 12.1 15.1 17.5 15.1 17.5 8.7-7.4 13.7-17.9 13.7-17.9-5.6-9.2-14.7-18.1-14.7-18.1-6.8 7.6-14.1 18.5-14.1 18.5z"/><path class="d6" d="m391.3 144.8l28.8-0.4c-4.4-7.6-14.7-18.1-14.7-18.1-6.8 7.6-14.1 18.5-14.1 18.5z"/><path class="d7" d="m411.4 144.3l-5.5-6.8-5.8 7 5.7 6.7z"/><path class="d8" d="m418 144.2l-6.6 0.1-5.6 6.9 0.2 8z"/><path class="d9" d="m405.8 129.5l0.1 8 5.5 6.8 6.6-0.1z"/><path class="da" d="m400.1 144.5l5.7 6.7 0.2 8-12.6-14.6z"/><path class="db" d="m405.8 129.5l0.1 8-5.8 7-6.7 0.1z"/><path class="dc" d="m417.5 126.9c-0.4 1.3-5.3-4.7-4.6-5.5 0.7-0.7 5.2 3.9 4.6 5.5z"/><path class="dd" d="m408.6 140.9c-2.7-1.7-4.1 1.1-3.4 2.9 0.8 1.7 5.6 2.1 4.2-2z"/></svg>