<svg version="1.2" xmlns="http://www.w3.org/2000/svg" viewBox="0 0 450 460" width="450" height="460"><defs><linearGradient id="P" gradientUnits="userSpaceOnUse"/><linearGradient id="g1" x1="25.3" y1="395.3" x2="25.3" y2="207.2" href="#P"><stop stop-color="#a62b2b"/><stop offset="1" stop-color="#9e2d16"/></linearGradient><linearGradient id="g2" x1="303.6" y1="324" x2="149.4" y2="341.3" href="#P"><stop offset="0" stop-color="#cd6d22"/><stop offset="1" stop-color="#c74d3e"/></linearGradient><linearGradient id="g3" x1="127.3" y1="208.7" x2="226.2" y2="208.7" href="#P"><stop stop-color="#961f63"/><stop offset="1" stop-color="#ea7052"/></linearGradient><linearGradient id="g4" x1="226.2" y1="208.7" x2="321.6" y2="208.7" href="#P"><stop stop-color="#961f63"/><stop offset="1" stop-color="#ea7052"/></linearGradient><linearGradient id="g5" x1="164.4" y1="234.6" x2="226.2" y2="234.6" href="#P"><stop stop-color="#961f63"/><stop offset="1" stop-color="#ea7052"/></linearGradient><linearGradient id="g6" x1="224.4" y1="234.6" x2="284.5" y2="234.6" href="#P"><stop stop-color="#961f63"/><stop offset="1" stop-color="#ea7052"/></linearGradient><radialGradient id="g7" cx="239.5" cy="186.3" r="15" href="#P"><stop offset="0" stop-color="#ffa41a"/><stop offset="1" stop-color="#ff8836"/></radialGradient><radialGradient id="g8" cx="256.5" cy="208.9" r="31.8" href="#P"><stop offset="0" stop-color="#ffa41a"/><stop offset="1" stop-color="#ff8836"/></radialGradient><radialGradient id="g9" cx="176.7" cy="216.8" r="49.5" href="#P"><stop offset="0" stop-color="#ffa41a"/><stop offset="1" stop-color="#ff8836"/></radialGradient><radialGradient id="g10" cx="212.5" cy="193.4" r="10.4" href="#P"><stop offset="0" stop-color="#ffa41a"/><stop offset="1" stop-color="#ff8836"/></radialGradient><linearGradient id="g11" x1="164.7" y1="234.6" x2="284.5" y2="234.6" href="#P"><stop stop-color="#961f63"/><stop offset="1" stop-color="#ea7052"/></linearGradient><linearGradient id="g12" x1="127.3" y1="208.7" x2="226.2" y2="208.7" href="#P"><stop stop-color="#961f63"/><stop offset="1" stop-color="#ea7052"/></linearGradient><linearGradient id="g13" x1="226.2" y1="208.7" x2="321.6" y2="208.7" href="#P"><stop stop-color="#961f63"/><stop offset="1" stop-color="#ea7052"/></linearGradient><radialGradient id="g14" cx="191.9" cy="272.7" r="14.1" href="#P"><stop offset="0" stop-color="#ffa41a"/><stop offset="1" stop-color="#ff8836"/></radialGradient><linearGradient id="g15" x1="430.9" y1="29.6" x2="430.9" y2="492.6" href="#P"><stop offset="0" stop-color="#cd6d22"/><stop offset="1" stop-color="#c74d3e"/></linearGradient><linearGradient id="g16" x1="197.6" y1="465.2" x2="197.6" y2="339.9" href="#P"><stop stop-color="#961f63"/><stop offset="1" stop-color="#ea7052"/></linearGradient><radialGradient id="g17" cx="227.7" cy="101.4" r="220.6" href="#P"><stop offset="0" stop-color="#ffa41a"/><stop offset="1" stop-color="#ff8836"/></radialGradient><radialGradient id="g18" cx="59" cy="127" r="34.6" href="#P"><stop offset="0" stop-color="#ffa41a"/><stop offset="1" stop-color="#ff8836"/></radialGradient><radialGradient id="g19" cx="23.7" cy="231.8" r="21.7" href="#P"><stop offset="0" stop-color="#ffa41a"/><stop offset="1" stop-color="#ff8836"/></radialGradient><radialGradient id="g20" cx="42.6" cy="326.9" r="25.6" href="#P"><stop offset="0" stop-color="#ffa41a"/><stop offset="1" stop-color="#ff8836"/></radialGradient><radialGradient id="g21" cx="238.1" cy="431.2" r="76.7" href="#P"><stop offset="0" stop-color="#ffa41a"/><stop offset="1" stop-color="#ff8836"/></radialGradient><radialGradient id="g22" cx="408.1" cy="321.4" r="19.9" href="#P"><stop offset="0" stop-color="#ffa41a"/><stop offset="1" stop-color="#ff8836"/></radialGradient><radialGradient id="g23" cx="428" cy="226.4" r="19.6" href="#P"><stop offset="0" stop-color="#ffa41a"/><stop offset="1" stop-color="#ff8836"/></radialGradient><radialGradient id="g24" cx="394.3" cy="118.1" r="25.4" href="#P"><stop offset="0" stop-color="#ffa41a"/><stop offset="1" stop-color="#ff8836"/></radialGradient><radialGradient id="g25" cx="226.2" cy="39.4" r="94.6" href="#P"><stop offset="0" stop-color="#ffa41a"/><stop offset="1" stop-color="#ff8836"/></radialGradient><radialGradient id="g26" cx="225" cy="381.9" r="147.6" href="#P"><stop offset="0" stop-color="#ffa41a"/><stop offset="1" stop-color="#ff8836"/></radialGradient><radialGradient id="g27" cx="225" cy="381.9" r="147.6" href="#P"><stop offset="0" stop-color="#ffa41a"/><stop offset="1" stop-color="#ff8836"/></radialGradient><linearGradient id="g28" x1="253.4" y1="63.9" x2="253.4" y2="191.8" href="#P"><stop stop-color="#961f63"/><stop offset="1" stop-color="#ea7052"/></linearGradient><radialGradient id="g29" cx="236.9" cy="414.1" r="25.1" href="#P"><stop offset="0" stop-color="#ffa41a"/><stop offset="1" stop-color="#ff8836"/></radialGradient><radialGradient id="g30" cx="313.8" cy="64.4" r="64.4" href="#P"><stop stop-color="#e87052"/><stop offset="1"/></radialGradient><linearGradient id="g31" x1="74.2" y1="321.6" x2="74.2" y2="325.9" href="#P"><stop stop-color="#961f63"/><stop offset="1" stop-color="#ea7052"/></linearGradient><linearGradient id="g32" x1="49.8" y1="228.1" x2="49.8" y2="231" href="#P"><stop stop-color="#961f63"/><stop offset="1" stop-color="#ea7052"/></linearGradient><linearGradient id="g33" x1="77.7" y1="122.4" x2="95.9" y2="122.4" href="#P"><stop stop-color="#961f63"/><stop offset="1" stop-color="#ea7052"/></linearGradient><linearGradient id="g34" x1="351" y1="116.1" x2="366.1" y2="116.1" href="#P"><stop stop-color="#961f63"/><stop offset="1" stop-color="#ea7052"/></linearGradient><linearGradient id="g35" x1="392.7" y1="220.6" x2="408.4" y2="220.6" href="#P"><stop stop-color="#961f63"/><stop offset="1" stop-color="#ea7052"/></linearGradient><linearGradient id="g36" x1="363.6" y1="317.1" x2="388.7" y2="317.1" href="#P"><stop stop-color="#961f63"/><stop offset="1" stop-color="#ea7052"/></linearGradient><radialGradient id="g37" cx="226.6" cy="359.9" r="46.8" href="#P"><stop offset="0" stop-color="#ffa41a"/><stop offset="1" stop-color="#ff8836"/></radialGradient><radialGradient id="g38" cx="126.6" cy="155.5" r="39.9" href="#P"><stop offset="0" stop-color="#ffa41a"/><stop offset="1" stop-color="#ff8836"/></radialGradient><radialGradient id="g39" cx="344.7" cy="272.3" r="30.1" href="#P"><stop offset="0" stop-color="#ffa41a"/><stop offset="1" stop-color="#ff8836"/></radialGradient><radialGradient id="g40" cx="266.2" cy="128.3" r="77.9" href="#P"><stop offset="0" stop-color="#ffa41a"/><stop offset="1" stop-color="#ff8836"/></radialGradient><radialGradient id="g41" cx="169.9" cy="329.4" r="57.7" href="#P"><stop offset="0" stop-color="#ffa41a"/><stop offset="1" stop-color="#ff8836"/></radialGradient></defs><style>.a{fill:url(#g1)}.b{fill:#7c1338}.c{fill:url(#g2)}.d{opacity:.5;mix-blend-mode:multiply;fill:url(#g3)}.e{opacity:.5;mix-blend-mode:multiply;fill:url(#g4)}.f{opacity:.5;mix-blend-mode:multiply;fill:url(#g5)}.g{opacity:.5;mix-blend-mode:multiply;fill:url(#g6)}.h{opacity:.5;mix-blend-mode:screen;fill:url(#g7)}.i{opacity:.5;mix-blend-mode:screen;fill:url(#g8)}.j{opacity:.5;mix-blend-mode:screen;fill:url(#g9)}.k{opacity:.4;mix-blend-mode:soft-light;fill:url(#g10)}.l{opacity:.5;mix-blend-mode:multiply;fill:url(#g11)}.m{opacity:.5;mix-blend-mode:multiply;fill:url(#g12)}.n{opacity:.5;mix-blend-mode:multiply;fill:url(#g13)}.o{opacity:.4;mix-blend-mode:soft-light;fill:url(#g14)}.p{fill:url(#g15)}.q{opacity:.5;mix-blend-mode:multiply;fill:url(#g16)}.r{opacity:.5;mix-blend-mode:screen;fill:url(#g17)}.s{mix-blend-mode:soft-light;fill:url(#g18)}.t{mix-blend-mode:soft-light;fill:url(#g19)}.u{mix-blend-mode:soft-light;fill:url(#g20)}.v{mix-blend-mode:soft-light;fill:url(#g21)}.w{mix-blend-mode:soft-light;fill:url(#g22)}.x{mix-blend-mode:soft-light;fill:url(#g23)}.y{mix-blend-mode:soft-light;fill:url(#g24)}.z{mix-blend-mode:soft-light;fill:url(#g25)}.A{opacity:.5;mix-blend-mode:color-dodge;fill:url(#g26)}.B{opacity:.5;mix-blend-mode:screen;fill:url(#g27)}.C{opacity:.5;mix-blend-mode:multiply;fill:url(#g28)}.D{opacity:.5;mix-blend-mode:screen;fill:url(#g29)}.E{opacity:.6;mix-blend-mode:color-dodge;display:none;fill:url(#g30)}.F{opacity:.5;mix-blend-mode:multiply;fill:url(#g31)}.G{opacity:.5;mix-blend-mode:multiply;fill:url(#g32)}.H{opacity:.5;mix-blend-mode:multiply;fill:url(#g33)}.I{opacity:.5;mix-blend-mode:multiply;fill:url(#g34)}.J{opacity:.5;mix-blend-mode:multiply;fill:url(#g35)}.K{opacity:.5;mix-blend-mode:multiply;fill:url(#g36)}.L{opacity:.4;mix-blend-mode:soft-light;fill:url(#g37)}.M{opacity:.3;mix-blend-mode:soft-light;fill:url(#g38)}.N{opacity:.3;mix-blend-mode:soft-light;fill:url(#g39)}.O{mix-blend-mode:soft-light;fill:url(#g40)}.P{mix-blend-mode:soft-light;fill:url(#g41)}</style><path class="a" d="m226.2 435.5c-111.1 0-200.9-89.8-200.9-200.9 0-111.1 89.8-200.9 200.9-200.9 111.1 0 200.9 89.8 200.9 200.9 0 111.1-89.8 200.9-200.9 200.9z"/><path class="b" d="m57.2 228.5l60.9 2.1 31.6-0.4 76.5 7.8 71.1-5.6 31.6-7.4 12.5-0.2 51.6-1.6-0.3 2.6-59.4 0.6-40.5 10.9-66.2 2.9-74.2-7.3-34-1.1-61.3-1.4z"/><path class="b" d="m192.2 195.6l32.6-61.6 32.2 61.9 70 11.3-50 48 11.1 68.8-63.3-33-62.7 31.9 10.2-66.7-50.8-49z"/><path class="c" d="m322 208.7l-35-5.1-9.5-1.3-22.7-3.3-30-60.9-30.1 60.9-67.1 9.7 48.6 47.4-11.5 66.9 60.1-31.6 60 31.6-11.4-66.9z"/><path class="d" d="m127.3 208.7l98.9 25.9-50.4 21.5z"/><path class="e" d="m321.6 208.7l-95.4 25.9 46.8 21.5z"/><path class="f" d="m224.4 291.4l1.8-56.8-61.8 88.4z"/><path class="g" d="m284.5 323l-58.3-88.4-1.8 56.8z"/><path class="h" d="m224.4 138.1l1.8 96.5 28.3-35.6z"/><path class="i" d="m321.6 208.7l-95.4 25.9 28.3-35.6z"/><path class="j" d="m194.4 199l31.8 35.6-98.9-25.9z"/><path class="k" d="m202.2 198.9c-0.7 14.3 19 20.3 20.3 14.9 1.2-5.4-0.3-44.7-5-42.7-4.7 2.1-15.2 23.8-15.3 27.8z"/><path class="l" d="m164.7 323l61.5-88.4 58.3 88.4-62.7-11.4z"/><path class="m" d="m127.3 208.7l43.3 80 55.6-54.1z"/><path class="n" d="m321.6 208.7l-95.4 25.9 51 43.8z"/><path class="o" d="m189.1 253.6c-10.4 3.8-13.3 39.6-10.1 40.9 3.2 1.3 52.1-56.5 10.1-40.9z"/><path fill-rule="evenodd" class="p" d="m393.1 380.8c-7.7 8.9-16.1 17.2-25.1 24.7-6.8 24.8-127.2 54.5-132.3 51.7q-5.3 0.2-10.7 0.2-5.4 0-10.7-0.2c-5.2 2.8-125.5-26.9-132.3-51.7-9-7.5-17.4-15.8-25.1-24.7-27.1-7.4-67.6-108.6-54.3-132.8 0-0.4-1.4-13.5 0-26.8-13.3-24.3 27.2-125.4 54.3-132.9 7.7-8.9 16.1-17.1 25.1-24.7 6.8-24.7 127.1-54.5 132.3-51.6q5.3-0.3 10.7-0.3 5.4 0 10.7 0.3c5.1-2.9 125.5 26.9 132.3 51.6 9 7.6 17.4 15.8 25.1 24.7 27.1 7.5 67.6 108.6 54.3 132.9 0.9 13.4 0 26.4 0 26.8 13.3 24.2-27.2 125.4-54.3 132.8zm-0.1-146.2c0-92.9-75.1-167.9-168-167.9-92.9 0-168 75-168 167.9 0 92.8 75.1 167.9 168 167.9 92.9 0 168-75.1 168-167.9z"/><path class="q" d="m437 316.6q0 0 0 0c-11.9 30.8-29.7 60.3-43.9 64.2-7.7 8.9-16.1 17.2-25.1 24.7-6.8 24.8-127.2 54.5-132.3 51.7q-5.3 0.2-10.7 0.2-5.4 0-10.7-0.2c-5.1 2.8-125.5-26.9-132.3-51.7-9-7.5-17.4-15.8-25.1-24.7-11.9-3.2-26.4-24.6-37.8-49.5q0 0 0-0.1c82.2 75.7 258.4 144.9 417.9-14.6z"/><path class="r" d="m393.1 88.3c-7.7-8.9-16.1-17.1-25.1-24.7-6.8-24.7-127.2-54.5-132.3-51.6q-5.3-0.3-10.7-0.3-5.4 0-10.7 0.3c-5.1-2.9-125.5 26.8-132.3 51.6-9 7.6-17.4 15.8-25.1 24.7-16.8 4.6-38.7 45.3-49.8 81.3q0.7 1.4 1.6 2.9c36.4-80.6 122.1-121.3 216.3-121.3 102.8 0 192.7 47.4 223.3 139.9-7.1-39.1-34.9-97.2-55.2-102.8z"/><path class="b" d="m27.4 121.4c37.8 4.5 74.6-1.2 74.6-1.2q-2.2 2.4-4.3 4.9l-73.3 1.9c1-1.9 3-5.6 3-5.6z"/><path class="b" d="m419.7 116.4l-73.4 2q-1.1-1.1-2.1-2.1l74.7-1.2q0.4 0.6 0.8 1.3z"/><path class="b" d="m2.1 228l55.1-0.9q-0.1 1.6-0.1 3.3l-55.1 0.8q0-1.6 0.1-3.2z"/><path class="b" d="m447.4 221.2q0.1 1.9 0.2 3.8l-54.9 0.8q-0.1-2.2-0.2-4.3l55.2-0.9q-0.1 0.3-0.3 0.6z"/><path class="b" d="m80 319.4q1.8 3.1 3.8 6.1c-23.8 0.4-46.3 0.7-66.8 1q-1.2-2.8-2.3-5.7c20.6 5.4 40 2.1 65.3-1.4z"/><path class="b" d="m438.6 312.4q-1.4 3.9-3 7.7c-21 0.4-43.4 0.7-66.7 1.1q2.3-3.7 4.3-7.6c19.8 5.8 37.5 6.9 65.4-1.2z"/><path class="b" d="m346.4 423.8c-3.1 1.6-6.6 3.3-10.2 4.9l-218.9 1.5c-3.7-1.6-7.2-3.2-10.5-4.8 0 0 91.8 1.8 119.8 1.6 31.9-0.2 119.8-3.2 119.8-3.2z"/><path class="b" d="m334.7 39.8c-71.8-0.9-148.7-1.8-213.2-2.6 4.3-1.7 8.7-3.4 13.2-5 0 0 76.1 3.8 100.3 3.8 20.9 0 80.3-3.8 80.3-3.8 6.7 2.4 13.3 5 19.4 7.6z"/><path class="s" d="m24.4 127l69.3-1.8c0 0-44.5 6.9-69.3 1.8z"/><path class="t" d="m2 231.2l43.4-0.6c0 0-24.1 4.9-43.4 0.6z"/><path class="u" d="m17 326.5l51.2-0.7c0 0-31.6 4.3-51.2 0.7z"/><path class="v" d="m161.4 430.2l153.5-1.4c0 0-76.8 9.8-153.5 1.4z"/><path class="w" d="m388.3 321.2l39.7-1c0 0-22.4 4.5-39.7 1z"/><path class="x" d="m408.4 225.6l39.2-0.6c0 0-9.8 5.8-39.2 0.6z"/><path class="y" d="m419.7 116.4l-50.8 1.4c0 0 32 5.1 50.8-1.4z"/><path class="z" d="m131.6 37.3l189.2 2.5c0 0-81.8 5.2-189.2-2.5z"/><path fill-rule="evenodd" class="b" d="m225 417.9c-101.4 0-183.4-82-183.4-183.4 0-101.4 82-183.3 183.4-183.3 101.4 0 183.4 81.9 183.4 183.3 0 101.4-82 183.4-183.4 183.4zm168-183.4c0-92.9-75.1-167.9-168-167.9-92.9 0-168 75-168 167.9 0 92.9 75.1 168 168 168 92.9 0 168-75.1 168-168z"/><path class="A" d="m77.4 343.3c0 0 49.1 59.2 147.6 59.2 98.4 0 147.6-59.2 147.6-59.2 0 0-47.9 77.2-147.6 77.2-99.7 0-147.6-77.2-147.6-77.2z"/><path class="B" d="m77.4 343.3c0 0 49.2 74.6 147.6 74.6 98.5 0 147.6-74.6 147.6-74.6 0 0-47.9 77.2-147.6 77.2-99.7 0-147.6-77.2-147.6-77.2z"/><path class="b" d="m95.9 127l102.7-1.8 152.4-1.6 2.2 2.5-155.7 2-103.8 1.7z"/><path class="C" d="m401.5 184.6c-4.3-2.4-11-6.5-20.7-13 0 0-48.6-38.9-157.4-37.6-104.4 1.2-156.4 43.3-156.4 43.3-8.9 9.3-16.7 16.7-21.6 20 17.2-83.4 91.1-146.1 179.6-146.1 84 0 154.8 56.4 176.5 133.4z"/><path class="D" d="m212 420.1c-4.2-7.9 41.6-15.8 48.1-10 6.4 5.7-5.1 8-5.1 8z"/><path class="E" d="m313.8 128.9c-35.6 0-64.4-28.8-64.4-64.5 0-35.6 28.8-64.4 64.4-64.4 35.7 0 64.5 28.8 64.5 64.4 0 35.7-28.8 64.5-64.5 64.5z"/><path class="F" d="m63.4 321.2l18.8 1.7 1.6 2.6-17.7 0.5z"/><path class="G" d="m41.8 227.8l15.4 0.7-0.1 1.9-15.5 0.8z"/><path class="H" d="m79.9 122.4l16 4.6-2.2 2.8-16-4z"/><path class="I" d="m364.3 116.1l-13.3 7.5 2.2 2.5 12.9-8.6z"/><path class="J" d="m407.8 220.6l-14.8 2.6-0.3 2.6 15.7-0.2z"/><path class="K" d="m388.7 317.1l-23.4 9.8-1.7 2.5 22.9-8z"/><path class="b" d="m7.1 229.1c3.2-10.2 17.3-8.5 24.3 0z"/><path class="b" d="m437 316.6c10.6-20.9-26.1-2.8-22 1.4z"/><path class="b" d="m82.2 322.9l151.3 7.4-150.5-4.3z"/><path class="b" d="m365.3 326.9l-219.2-0.9c0 0 69.9 6.1 90.8 4.4 0 0 112.7-1.4 126.7-1z"/><path class="L" d="m180.7 378.4c13.1 15.7 104.9 1.8 91.3-18.7-13.5-20.6-49.1-31.6-65.4-21.1-6.1 4-31.5 33.1-25.9 39.8z"/><path class="M" d="m91.7 154.8c-29.7 31.4 83.3 11.3 74.4-3.3-9-14.6-53.9-18.3-74.4 3.3z"/><path class="N" d="m314.6 265.6c1 22.2 34.6 65 54 23.8 19.5-41.3-11.7-56.1-30.8-50.3-19 5.9-23.3 22.8-23.2 26.5z"/><path class="O" d="m344.2 126.1l-155.9 2.2c0 0 97.5 3.4 122.9 1.9 25.4-1.6 33-4.1 33-4.1z"/><path class="P" d="m112.2 326.9l115.5 3.4c0 0-52.6 5.6-115.5-3.4z"/></svg>