<svg version="1.2" xmlns="http://www.w3.org/2000/svg" viewBox="0 0 465 480" width="465" height="480"><defs><linearGradient id="P" gradientUnits="userSpaceOnUse"/><linearGradient id="g1" x1="405.7" y1="98.8" x2="405.7" y2="384.3" href="#P"><stop stop-color="#e5552f"/><stop offset=".5" stop-color="#f77f5c"/><stop offset="1" stop-color="#f7a66c"/></linearGradient><linearGradient id="g2" x1="124.2" y1="345.7" x2="124.2" y2="74.3" href="#P"><stop stop-color="#e5552f"/><stop offset=".5" stop-color="#f77f5c"/><stop offset="1" stop-color="#f7a66c"/></linearGradient><linearGradient id="g3" x1="79" y1=".2" x2="135.7" y2=".2" href="#P"><stop stop-color="#e5552f"/><stop offset=".5" stop-color="#f77f5c"/><stop offset="1" stop-color="#f7a66c"/></linearGradient><linearGradient id="g4" x1="79" y1=".2" x2="135.7" y2=".2" href="#P"><stop stop-color="#b01b03"/><stop offset="1" stop-color="#f7ffff"/></linearGradient><linearGradient id="g5" x1="51.9" y1="38.1" x2="68.1" y2="12.3" href="#P"><stop stop-color="#e84e1a"/><stop offset=".5" stop-color="#d74348"/><stop offset="1" stop-color="#c62c15"/></linearGradient><linearGradient id="g6" x1="79.1" y1="52.7" x2="106.4" y2="52.7" href="#P"><stop stop-color="#b01b03"/><stop offset="1" stop-color="#f7ffff"/></linearGradient><linearGradient id="g7" x1="0" y1="86.3" x2="98.5" y2="86.3" href="#P"><stop stop-color="#e5552f"/><stop offset=".5" stop-color="#f77f5c"/><stop offset="1" stop-color="#f7a66c"/></linearGradient><linearGradient id="g8" x1="0" y1="86.3" x2="98.5" y2="86.3" href="#P"><stop stop-color="#b01b03"/><stop offset="1" stop-color="#f7ffff"/></linearGradient><linearGradient id="g9" x1="63.2" y1="117.1" x2="65.9" y2="102" href="#P"><stop stop-color="#e84e1a"/><stop offset=".5" stop-color="#d74348"/><stop offset="1" stop-color="#c62c15"/></linearGradient><linearGradient id="g10" x1="52.2" y1="115.8" x2="98.1" y2="115.8" href="#P"><stop stop-color="#b01b03"/><stop offset="1" stop-color="#f7ffff"/></linearGradient><linearGradient id="g11" x1="42.8" y1="142.1" x2="4.9" y2="68.5" href="#P"><stop stop-color="#e5552f"/><stop offset=".5" stop-color="#f77f5c"/><stop offset="1" stop-color="#f7a66c"/></linearGradient><linearGradient id="g12" x1="19.6" y1="29.4" x2="106.5" y2="29.4" href="#P"><stop stop-color="#b01b03"/><stop offset="1" stop-color="#f7ffff"/></linearGradient><linearGradient id="g13" x1="45.2" y1="75.4" x2="88.1" y2="46.2" href="#P"><stop stop-color="#e84e1a"/><stop offset=".5" stop-color="#d74348"/><stop offset="1" stop-color="#c62c15"/></linearGradient><linearGradient id="g14" x1="329.3" y1=".2" x2="386" y2=".2" href="#P"><stop stop-color="#e5552f"/><stop offset=".5" stop-color="#f77f5c"/><stop offset="1" stop-color="#f7a66c"/></linearGradient><linearGradient id="g15" x1="329.3" y1=".2" x2="386" y2=".2" href="#P"><stop stop-color="#b01b03"/><stop offset="1" stop-color="#f7ffff"/></linearGradient><linearGradient id="g16" x1="413.1" y1="43.5" x2="414.7" y2="91.6" href="#P"><stop stop-color="#e84e1a"/><stop offset=".5" stop-color="#d74348"/><stop offset="1" stop-color="#c62c15"/></linearGradient><linearGradient id="g17" x1="358.6" y1="52.7" x2="385.9" y2="52.7" href="#P"><stop stop-color="#b01b03"/><stop offset="1" stop-color="#f7ffff"/></linearGradient><linearGradient id="g18" x1="366.5" y1="86.3" x2="465" y2="86.3" href="#P"><stop stop-color="#e5552f"/><stop offset=".5" stop-color="#f77f5c"/><stop offset="1" stop-color="#f7a66c"/></linearGradient><linearGradient id="g19" x1="366.5" y1="86.3" x2="465" y2="86.3" href="#P"><stop stop-color="#b01b03"/><stop offset="1" stop-color="#f7ffff"/></linearGradient><linearGradient id="g20" x1="414.7" y1="119" x2="365.2" y2="115.8" href="#P"><stop stop-color="#e84e1a"/><stop offset=".5" stop-color="#d74348"/><stop offset="1" stop-color="#c62c15"/></linearGradient><linearGradient id="g21" x1="366.9" y1="115.8" x2="412.8" y2="115.8" href="#P"><stop stop-color="#b01b03"/><stop offset="1" stop-color="#f7ffff"/></linearGradient><linearGradient id="g22" x1="367.5" y1="153.2" x2="361.4" y2="68.8" href="#P"><stop stop-color="#e5552f"/><stop offset=".5" stop-color="#f77f5c"/><stop offset="1" stop-color="#f7a66c"/></linearGradient><linearGradient id="g23" x1="358.5" y1="29.4" x2="445.4" y2="29.4" href="#P"><stop stop-color="#b01b03"/><stop offset="1" stop-color="#f7ffff"/></linearGradient><linearGradient id="g24" x1="421.7" y1="89.5" x2="381.1" y2="126.2" href="#P"><stop stop-color="#e84e1a"/><stop offset=".5" stop-color="#d74348"/><stop offset="1" stop-color="#c62c15"/></linearGradient><linearGradient id="g25" x1="79" y1="381.3" x2="135.7" y2="381.3" href="#P"><stop stop-color="#e5552f"/><stop offset=".5" stop-color="#f77f5c"/><stop offset="1" stop-color="#f7a66c"/></linearGradient><linearGradient id="g26" x1="79" y1="381.3" x2="135.7" y2="381.3" href="#P"><stop stop-color="#b01b03"/><stop offset="1" stop-color="#f7ffff"/></linearGradient><linearGradient id="g27" x1="51.9" y1="436.7" x2="50.3" y2="388.6" href="#P"><stop stop-color="#e84e1a"/><stop offset=".5" stop-color="#d74348"/><stop offset="1" stop-color="#c62c15"/></linearGradient><linearGradient id="g28" x1="79.1" y1="381.6" x2="106.4" y2="381.6" href="#P"><stop stop-color="#b01b03"/><stop offset="1" stop-color="#f7ffff"/></linearGradient><linearGradient id="g29" x1="0" y1="337.4" x2="98.5" y2="337.4" href="#P"><stop stop-color="#e5552f"/><stop offset=".5" stop-color="#f77f5c"/><stop offset="1" stop-color="#f7a66c"/></linearGradient><linearGradient id="g30" x1="0" y1="337.4" x2="98.5" y2="337.4" href="#P"><stop stop-color="#b01b03"/><stop offset="1" stop-color="#f7ffff"/></linearGradient><linearGradient id="g31" x1="50.3" y1="361.2" x2="99.8" y2="364.4" href="#P"><stop stop-color="#e84e1a"/><stop offset=".5" stop-color="#d74348"/><stop offset="1" stop-color="#c62c15"/></linearGradient><linearGradient id="g32" x1="52.2" y1="337.4" x2="98.1" y2="337.4" href="#P"><stop stop-color="#b01b03"/><stop offset="1" stop-color="#f7ffff"/></linearGradient><linearGradient id="g33" x1="109" y1="503.5" x2="-42.9" y2="408.6" href="#P"><stop stop-color="#e5552f"/><stop offset=".5" stop-color="#f77f5c"/><stop offset="1" stop-color="#f7a66c"/></linearGradient><linearGradient id="g34" x1="19.6" y1="371.8" x2="106.5" y2="371.8" href="#P"><stop stop-color="#b01b03"/><stop offset="1" stop-color="#f7ffff"/></linearGradient><linearGradient id="g35" x1="43.3" y1="390.6" x2="83.9" y2="354" href="#P"><stop stop-color="#e84e1a"/><stop offset=".5" stop-color="#d74348"/><stop offset="1" stop-color="#c62c15"/></linearGradient><linearGradient id="g36" x1="329.3" y1="381.3" x2="386" y2="381.3" href="#P"><stop stop-color="#e5552f"/><stop offset=".5" stop-color="#f77f5c"/><stop offset="1" stop-color="#f7a66c"/></linearGradient><linearGradient id="g37" x1="329.3" y1="381.3" x2="386" y2="381.3" href="#P"><stop stop-color="#b01b03"/><stop offset="1" stop-color="#f7ffff"/></linearGradient><linearGradient id="g38" x1="413.1" y1="442.1" x2="396.9" y2="467.9" href="#P"><stop stop-color="#e84e1a"/><stop offset=".5" stop-color="#d74348"/><stop offset="1" stop-color="#c62c15"/></linearGradient><linearGradient id="g39" x1="358.6" y1="381.6" x2="385.9" y2="381.6" href="#P"><stop stop-color="#b01b03"/><stop offset="1" stop-color="#f7ffff"/></linearGradient><linearGradient id="g40" x1="359.4" y1="382.7" x2="386" y2="382.7" href="#P"><stop stop-color="#b01b03"/><stop offset="1" stop-color="#f7ffff"/></linearGradient><linearGradient id="g41" x1="366.5" y1="337.4" x2="465" y2="337.4" href="#P"><stop stop-color="#e5552f"/><stop offset=".5" stop-color="#f77f5c"/><stop offset="1" stop-color="#f7a66c"/></linearGradient><linearGradient id="g42" x1="366.5" y1="337.4" x2="465" y2="337.4" href="#P"><stop stop-color="#b01b03"/><stop offset="1" stop-color="#f7ffff"/></linearGradient><linearGradient id="g43" x1="401.8" y1="363.1" x2="399.1" y2="378.1" href="#P"><stop stop-color="#e84e1a"/><stop offset=".5" stop-color="#d74348"/><stop offset="1" stop-color="#c62c15"/></linearGradient><linearGradient id="g44" x1="366.9" y1="337.4" x2="412.8" y2="337.4" href="#P"><stop stop-color="#b01b03"/><stop offset="1" stop-color="#f7ffff"/></linearGradient><linearGradient id="g45" x1="325.8" y1="436" x2="388.3" y2="331.5" href="#P"><stop stop-color="#e5552f"/><stop offset=".5" stop-color="#f77f5c"/><stop offset="1" stop-color="#f7a66c"/></linearGradient><linearGradient id="g46" x1="358.5" y1="371.8" x2="445.4" y2="371.8" href="#P"><stop stop-color="#b01b03"/><stop offset="1" stop-color="#f7ffff"/></linearGradient><linearGradient id="g47" x1="419.8" y1="404.8" x2="376.9" y2="434" href="#P"><stop stop-color="#e84e1a"/><stop offset=".5" stop-color="#d74348"/><stop offset="1" stop-color="#c62c15"/></linearGradient><linearGradient id="g48" x1="-3.9" y1="414.9" x2="-3.9" y2="-79.1" href="#P"><stop stop-color="#e5552f"/><stop offset=".5" stop-color="#f77f5c"/><stop offset="1" stop-color="#f7a66c"/></linearGradient><linearGradient id="g49" x1="216.7" y1="376.3" x2="173.8" y2="473.3" href="#P"><stop stop-color="#e84e1a"/><stop offset=".5" stop-color="#d74348"/><stop offset="1" stop-color="#c62c15"/></linearGradient><linearGradient id="g50" x1="149.2" y1="447.5" x2="149.2" y2="420" href="#P"><stop stop-color="#f7632e"/><stop offset="1" stop-color="#f7b57e"/></linearGradient><linearGradient id="g51" x1="129.5" y1="399.7" x2="199.6" y2="399.7" href="#P"><stop stop-color="#b01b03"/><stop offset="1" stop-color="#f7ffff"/></linearGradient><linearGradient id="g52" x1="297.3" y1="348.1" x2="347" y2="466.5" href="#P"><stop stop-color="#e84e1a"/><stop offset=".5" stop-color="#d74348"/><stop offset="1" stop-color="#c62c15"/></linearGradient><linearGradient id="g53" x1="283" y1="447.5" x2="283" y2="420" href="#P"><stop stop-color="#f7632e"/><stop offset="1" stop-color="#f7b57e"/></linearGradient><linearGradient id="g54" x1="265" y1="399.7" x2="335.1" y2="399.7" href="#P"><stop stop-color="#b01b03"/><stop offset="1" stop-color="#f7ffff"/></linearGradient><linearGradient id="g55" x1="188.7" y1="41.3" x2="220.8" y2="111.9" href="#P"><stop stop-color="#e84e1a"/><stop offset=".5" stop-color="#d74348"/><stop offset="1" stop-color="#c62c15"/></linearGradient><linearGradient id="g56" x1="172.6" y1="10.7" x2="201.1" y2="82.5" href="#P"><stop stop-color="#e5552f"/><stop offset=".5" stop-color="#f77f5c"/><stop offset="1" stop-color="#f7a66c"/></linearGradient><linearGradient id="g57" x1="129.5" y1="30.1" x2="199.6" y2="30.1" href="#P"><stop stop-color="#b01b03"/><stop offset="1" stop-color="#f7ffff"/></linearGradient><linearGradient id="g58" x1="276" y1="71.4" x2="243.9" y2=".7" href="#P"><stop stop-color="#e84e1a"/><stop offset=".5" stop-color="#d74348"/><stop offset="1" stop-color="#c62c15"/></linearGradient><linearGradient id="g59" x1="292.1" y1="102.8" x2="263.6" y2="30.9" href="#P"><stop stop-color="#e5552f"/><stop offset=".5" stop-color="#f77f5c"/><stop offset="1" stop-color="#f7a66c"/></linearGradient><linearGradient id="g60" x1="265" y1="30.1" x2="335.2" y2="30.1" href="#P"><stop stop-color="#b01b03"/><stop offset="1" stop-color="#f7ffff"/></linearGradient><linearGradient id="g61" x1="359" y1="149.8" x2="389.4" y2="68.6" href="#P"><stop stop-color="#e84e1a"/><stop offset=".5" stop-color="#d74348"/><stop offset="1" stop-color="#c62c15"/></linearGradient><linearGradient id="g62" x1="346.4" y1="187.6" x2="382.5" y2="103.7" href="#P"><stop stop-color="#e5552f"/><stop offset=".5" stop-color="#f77f5c"/><stop offset="1" stop-color="#f7a66c"/></linearGradient><linearGradient id="g63" x1="386.5" y1="131" x2="441.4" y2="131" href="#P"><stop stop-color="#b01b03"/><stop offset="1" stop-color="#f7ffff"/></linearGradient><linearGradient id="g64" x1="399.3" y1="363.8" x2="326.9" y2="336.6" href="#P"><stop stop-color="#e84e1a"/><stop offset=".5" stop-color="#d74348"/><stop offset="1" stop-color="#c62c15"/></linearGradient><linearGradient id="g65" x1="433.4" y1="376.5" x2="357.4" y2="343.5" href="#P"><stop stop-color="#e5552f"/><stop offset=".5" stop-color="#f77f5c"/><stop offset="1" stop-color="#f7a66c"/></linearGradient><linearGradient id="g66" x1="386.5" y1="280.9" x2="441.4" y2="280.9" href="#P"><stop stop-color="#b01b03"/><stop offset="1" stop-color="#f7ffff"/></linearGradient><linearGradient id="g67" x1="64.5" y1="117" x2="136.9" y2="144.3" href="#P"><stop stop-color="#e84e1a"/><stop offset=".5" stop-color="#d74348"/><stop offset="1" stop-color="#c62c15"/></linearGradient><linearGradient id="g68" x1="30.4" y1="104.4" x2="106.3" y2="137.4" href="#P"><stop stop-color="#e5552f"/><stop offset=".5" stop-color="#f77f5c"/><stop offset="1" stop-color="#f7a66c"/></linearGradient><linearGradient id="g69" x1="22.3" y1="131" x2="77.2" y2="131" href="#P"><stop stop-color="#b01b03"/><stop offset="1" stop-color="#f7ffff"/></linearGradient><linearGradient id="g70" x1="104.7" y1="331.1" x2="74.4" y2="412.3" href="#P"><stop stop-color="#e84e1a"/><stop offset=".5" stop-color="#d74348"/><stop offset="1" stop-color="#c62c15"/></linearGradient><linearGradient id="g71" x1="117.3" y1="293.3" x2="81.2" y2="377.2" href="#P"><stop stop-color="#e5552f"/><stop offset=".5" stop-color="#f77f5c"/><stop offset="1" stop-color="#f7a66c"/></linearGradient><linearGradient id="g72" x1="22.3" y1="280.9" x2="77.2" y2="280.9" href="#P"><stop stop-color="#b01b03"/><stop offset="1" stop-color="#f7ffff"/></linearGradient><linearGradient id="g73" x1="76.6" y1="595.4" x2="76.6" y2="88.1" href="#P"><stop stop-color="#f36134"/><stop offset="1" stop-color="#c40721"/></linearGradient><linearGradient id="g74" x1="223.7" y1="398.3" x2="223.7" y2="328.8" href="#P"><stop stop-color="#f7ffeb"/><stop offset="1" stop-color="#f7fcb0"/></linearGradient><radialGradient id="g75" cx="166" cy="412.5" r="32.6" href="#P"><stop offset="0" stop-color="#df5a29"/><stop offset="1" stop-color="#020500"/></radialGradient><linearGradient id="g76" x1="348.9" y1="384.2" x2="348.9" y2="251.7" href="#P"><stop stop-color="#e5552f"/><stop offset=".5" stop-color="#f77f5c"/><stop offset="1" stop-color="#f7a66c"/></linearGradient><linearGradient id="g77" x1="-65.2" y1="384.2" x2="-65.2" y2="251.7" href="#P"><stop stop-color="#e5552f"/><stop offset=".5" stop-color="#f77f5c"/><stop offset="1" stop-color="#f7a66c"/></linearGradient></defs><style>.a{fill:url(#g1)}.b{fill:url(#g2)}.c{opacity:.5;mix-blend-mode:multiply;fill:#c10065}.d{opacity:.7;mix-blend-mode:multiply;fill:#c10065}.e{mix-blend-mode:soft-light;fill:#f7ffff}.f{opacity:.8;mix-blend-mode:color-dodge;fill:#fff}.g{opacity:.4;mix-blend-mode:soft-light;fill:#f7ffff}.h{opacity:.3;mix-blend-mode:multiply;fill:#d01bdc}.i{fill:url(#g3)}.j{opacity:.5;mix-blend-mode:multiply;fill:url(#g4)}.k{fill:url(#g5)}.l{opacity:.5;mix-blend-mode:multiply;fill:url(#g6)}.m{fill:url(#g7)}.n{opacity:.5;mix-blend-mode:multiply;fill:url(#g8)}.o{fill:url(#g9)}.p{opacity:.5;mix-blend-mode:multiply;fill:url(#g10)}.q{fill:url(#g11)}.r{opacity:.5;mix-blend-mode:multiply;fill:url(#g12)}.s{fill:url(#g13)}.t{fill:url(#g14)}.u{opacity:.5;mix-blend-mode:multiply;fill:url(#g15)}.v{fill:url(#g16)}.w{opacity:.5;mix-blend-mode:multiply;fill:url(#g17)}.x{fill:url(#g18)}.y{opacity:.5;mix-blend-mode:multiply;fill:url(#g19)}.z{fill:url(#g20)}.A{opacity:.5;mix-blend-mode:multiply;fill:url(#g21)}.B{fill:url(#g22)}.C{opacity:.5;mix-blend-mode:multiply;fill:url(#g23)}.D{fill:url(#g24)}.E{fill:url(#g25)}.F{opacity:.5;mix-blend-mode:multiply;fill:url(#g26)}.G{fill:url(#g27)}.H{opacity:.5;mix-blend-mode:multiply;fill:url(#g28)}.I{fill:url(#g29)}.J{opacity:.5;mix-blend-mode:multiply;fill:url(#g30)}.K{fill:url(#g31)}.L{opacity:.5;mix-blend-mode:multiply;fill:url(#g32)}.M{fill:url(#g33)}.N{opacity:.5;mix-blend-mode:multiply;fill:url(#g34)}.O{fill:url(#g35)}.P{fill:url(#g36)}.Q{opacity:.5;mix-blend-mode:multiply;fill:url(#g37)}.R{fill:url(#g38)}.S{opacity:.5;mix-blend-mode:multiply;fill:url(#g39)}.T{opacity:.5;mix-blend-mode:multiply;fill:url(#g40)}.U{fill:url(#g41)}.V{opacity:.5;mix-blend-mode:multiply;fill:url(#g42)}.W{fill:url(#g43)}.X{opacity:.5;mix-blend-mode:multiply;fill:url(#g44)}.Y{fill:url(#g45)}.Z{opacity:.5;mix-blend-mode:multiply;fill:url(#g46)}.a0{fill:url(#g47)}.a1{fill:url(#g48)}.a2{fill:url(#g49)}.a3{fill:url(#g50)}.a4{opacity:.5;mix-blend-mode:multiply;fill:url(#g51)}.a5{fill:url(#g52)}.a6{fill:url(#g53)}.a7{opacity:.5;mix-blend-mode:multiply;fill:url(#g54)}.a8{fill:url(#g55)}.a9{fill:url(#g56)}.aa{opacity:.5;mix-blend-mode:multiply;fill:url(#g57)}.ab{fill:url(#g58)}.ac{fill:url(#g59)}.ad{opacity:.5;mix-blend-mode:multiply;fill:url(#g60)}.ae{fill:url(#g61)}.af{fill:url(#g62)}.ag{opacity:.5;mix-blend-mode:multiply;fill:url(#g63)}.ah{fill:url(#g64)}.ai{fill:url(#g65)}.aj{opacity:.5;mix-blend-mode:multiply;fill:url(#g66)}.ak{fill:url(#g67)}.al{fill:url(#g68)}.am{opacity:.5;mix-blend-mode:multiply;fill:url(#g69)}.an{fill:url(#g70)}.ao{fill:url(#g71)}.ap{opacity:.5;mix-blend-mode:multiply;fill:url(#g72)}.aq{fill:url(#g73)}.ar{fill:url(#g74)}.as{opacity:.4;mix-blend-mode:multiply;fill:#d01bdc}.at{fill:#f7ffff}.au{opacity:.8;mix-blend-mode:color-dodge;fill:url(#g75)}.av{fill:url(#g76)}.aw{fill:url(#g77)}</style><path class="a" d="m235.1 410.8c-94.4 0-170.7-76.3-170.7-170.6 0-94.4 76.3-170.7 170.7-170.7 94.4 0 170.6 76.3 170.6 170.7 0 94.3-76.2 170.6-170.6 170.6z"/><path class="b" d="m352.8 200.2l-43.1-6.2-11.8-1.7-28-4.1-37.1-75.2-37.1 75.2-83 12 60 58.5-14.1 82.7 74.2-39 74.2 39-14.2-82.7z"/><path class="c" d="m112.3 200.2l122.2 32-62.2 26.5z"/><path class="c" d="m352.4 200.2l-117.9 32 57.9 26.5z"/><path class="d" d="m232.3 302.4l2.2-70.2-76.4 109.2z"/><path class="c" d="m306.5 341.4l-72-109.2-2.2 70.2z"/><path class="e" d="m232.3 113l2.2 119.2 34.9-44z"/><path class="e" d="m352.4 200.2l-117.9 32 34.9-44z"/><path class="e" d="m352.4 200.2l-117.9 32 34.9-44z"/><path class="e" d="m195.2 188.2l39.3 44-122.2-32z"/><path class="f" d="m269.4 214.3c-6.1 5.2-0.9 8.7-0.9 8.7l31.8-8.7c0 0-16.6-12-30.9 0z"/><path class="g" d="m135.7 251.7c21.3 27.3 28 83.4 0 71-27.9-12.5-49.5-94.4-32-90.4 17.5 4 26 11.6 32 19.4z"/><path class="g" d="m188.7 362.9c19.6 16.3 116.4 5 95.2-13.9-21.3-18.9-46.4-31.2-62.8-24.6-16.5 6.6-41.8 30.6-32.4 38.5z"/><path class="g" d="m308.3 265.1c-3.4 39 14.8 63.4 35.4 45.1 20.7-18.4 31.1-56.9 20.9-67.6-10.2-10.8-54.8 5.1-56.3 22.5z"/><path class="h" d="m158.6 341.4c0 0 56.2-26.5 74.2-33.9l74.2 33.9-74.2-39z"/><path class="e" d="m176.5 190.5c9.6-2.7 20.4-4.9 38.4-41.2l-19.2 38.9z"/><path class="e" d="m248.5 144.9c0 0 18.6 38.6 40.1 46l-18.7-2.7z"/><path class="h" d="m112.3 200.2l122.2 32-67.1 57.7z"/><path class="h" d="m352.4 200.2l-117.9 32 65 65.4z"/><path class="h" d="m158.6 341.4l75.9-109.2 72.5 109.2-74.2-11.7z"/><path class="g" d="m205.1 175.2c-7.9 21.9 22.2 37.1 26.3 30.4 4-6.7 1.4-44.3-3.6-49.4-5.1-5.1-19.4 10-22.7 19z"/><path class="g" d="m180.5 287.3c16 2.2 25-16 28.3-28.6 5.5-20.1-57.3 24.7-28.3 28.6z"/><path class="i" d="m79 52q0 0.8 0.1 1.6 0 0 0 0.1 0.3 2.2 1.1 4.7 0 0.1 0 0.1c3.7 10.7 14.4 25.6 20.8 34q0.1 0.2 0.2 0.3c1.6 2 2.9 3.6 3.7 4.7q0.1 0 0.1 0c0.7 0.9 1.1 1.4 1.1 1.4h2.2 0.7q0 0 0 0h7.5c10.1-13.5 19.1-37.7 19.2-47.4q0.1-1.5-0.2-2.5c-0.5-1.6-2.2-5.1-4.6-9.6-7.8-14.7-23.2-39.6-26.5-39.2-2 0.2-13.1 18.7-20 34.2-3.1 7.2-5.3 13.7-5.4 17.6z"/><path class="j" d="m79 52q0 0.8 0.1 1.6 0 0 0 0.1 0.3 2.2 1.1 4.7 0 0.1 0 0.1c3.7 10.7 14.4 25.6 20.8 34q0.1 0.2 0.2 0.3c1.6 2 2.9 3.6 3.7 4.7q0.1 0 0.1 0c0.7 0.9 1.1 1.4 1.1 1.4h2.2 0.7q0 0 0 0h7.5c10.1-13.5 19.1-37.7 19.2-47.4-3.5 11.6-11 16.1-18.6 17.5-3.1 0.6-6.2 0.6-9.1 0.3q-0.1 0-0.1 0-0.8-0.1-1.6-0.2-0.6 0-1.2-0.1c-5.3-0.9-9-2.4-9-2.4 0 0-8.8-5.9-10.7-13.7-0.7-3.2 0.1-10.1 3-19.2 3-9.3 8.2-21 16-33.5-2 0.2-13.1 18.7-20 34.2-3.1 7.2-5.3 13.7-5.4 17.6z"/><path class="k" d="m113.4 50.2c4.7 18.7-4.4 48.7-4.4 48.7 0 0 0.8-27.6-3.1-41.7-4-14.2 6-12.8 7.5-7z"/><path class="e" d="m104.7 51.4c5 16.8 4.3 47.5 4.3 47.5z"/><path class="e" d="m129.7 37.1c-6.8 4.8-22.2-33.2-17.5-28.4 3.6 3.6 17.5 28.4 17.5 28.4z"/><path class="l" d="m79.1 53.6q0 0 0 0.1c0.1 1.4 0.5 3 1.1 4.7q0 0.1 0 0.1c3.7 10.1 14.8 26 20.8 34q0.1 0.2 0.2 0.3c2 2.6 3.4 4.3 3.7 4.7q0.1 0 0.1 0c3.8 3.9 0.4-2.5-13.4-27.4-6-10.9-12.7-20.3-12.5-16.5z"/><path class="c" d="m101 92.5q0.1 0.2 0.2 0.3c2 2.6 3.4 4.3 3.7 4.7 0.1 0 1.4-18.5 0.2-28.5-2-16.6-4.5-31.1-8.1-33.2-3.2-1.8-6.3-2.2-8.6-2.1-2.4 0.1-4 0.7-4 0.7-3.1 7.2-5.3 13.7-5.4 17.6q0 0.8 0.1 1.6 0 0 0 0.1c0.1 1.4 0.5 3 1.1 4.7q0 0.1 0 0.1c3.7 10.7 14.4 25.6 20.8 34z"/><path class="m" d="m51.5 142.8q0.8 0 1.7-0.1 0.1 0 0.1 0 1.9-0.2 4.2-0.9l0.1-0.1c10.7-3.3 25.7-13.9 34.2-20.4q0.1-0.1 0.3-0.2c2.1-1.6 3.8-2.9 4.9-3.8q0 0 0 0c0.9-0.7 1.4-1.1 1.4-1.1v-2.6-0.3l0.1-7.5c-13.4-10.1-37.5-19.3-47.1-19.5q-1.5 0-2.5 0.2c-1.6 0.5-5.2 2.2-9.6 4.5-3.3 1.7-7 3.7-10.8 6-13.7 7.8-28.8 17.6-28.5 20.1 0.3 3 39 25.4 51.5 25.7z"/><path class="n" d="m51.5 142.8q0.8 0 1.7-0.1 0.1 0 0.1 0 1.9-0.2 4.2-0.9l0.1-0.1c10.7-3.3 25.7-13.9 34.2-20.4q0.1-0.1 0.3-0.2c2.1-1.6 3.8-2.9 4.9-3.8q0 0 0 0c0.9-0.7 1.4-1.1 1.4-1.1v-2.6-0.3l0.1-7.5c-13.4-10.1-37.5-19.3-47.1-19.5 11.5 3.6 16 11.1 17.3 18.6 0.4 2.4 0.5 4.7 0.4 7q-0.1 1.1-0.2 2.2 0 0 0 0.1-0.1 0.8-0.2 1.6c-0.8 5.8-2.6 10.1-2.6 10.1 0 0-5.9 8.8-13.7 10.5-6.5 1.5-27.8-3.6-52.4-19.3 0.3 3 39 25.4 51.5 25.7z"/><path class="o" d="m45.5 111.8c18.4-16.4 52.9 1.5 52.9 1.5 0 0-27.5-1-41.6 2.8-14.1 3.8-13.5-2.3-11.3-4.3z"/><path class="e" d="m51.1 117.2c16.7-4.8 47.3-3.9 47.3-3.9z"/><path class="e" d="m8.5 109.5c3.3 2.9 18.3-2.7 26.7-8.8 4.2-3.1 6.7-6.3 5.1-8.6l-1-1.1-10.8 6z"/><path class="p" d="m69.6 130.4c24.9-13.6 31.3-16.9 27.4-13.1-1.6 1.5-32.4 24.9-44 25.5-3.8 0.1 5.7-6.5 16.6-12.4z"/><path class="c" d="m28.5 97q0.3 0 0.5 0.2c2.2 0.8 4.3 2.1 6.2 3.5 6 4.7 10.3 11.1 10.3 11.1 0 0 5.8-3.6 19.1-3.3 17.8 0.3 23.2 3.4 31.7 4.7q0 0 0 0 0.1 0.1 0.1 0.1 0.4 0 0.8 0.1 0 0 0 0 0.6 0.1 1.2 0.2v-0.3l0.1-7.5c-13.4-10.1-37.5-19.3-47.1-19.5q-1.5 0-2.5 0.2c-1.6 0.5-5.2 2.2-9.6 4.5-3.3 1.7-7 3.7-10.8 6z"/><path class="q" d="m39.6 91.3c10.7 11.6 58.4 17 58.4 17l8.5-8.1c-2.3-18.7-13.8-45.5-21.2-53.5q-1.2-1.2-2.2-1.8c-7.1-4.1-60.1-19.3-63.2-15.5-2.2 2.6 10.1 51.5 19.7 61.9z"/><path class="r" d="m39.6 91.3c10.7 11.6 58.4 17 58.4 17l8.5-8.1c-2.3-18.7-13.8-45.5-21.2-53.5 14.7 29.2-20.5 43.2-20.5 43.2 0 0-7.5 2.2-18.3-5.2-6.2-4.2-19.9-23.1-26.6-55.3-2.2 2.6 10.1 51.5 19.7 61.9z"/><path class="s" d="m59.9 64.6c24.6 6.7 40.5 41.5 40.5 41.5 0 0-20.8-23.1-35-31.5-14.2-8.5-8.8-10.9-5.5-10z"/><path class="e" d="m60 70.8c17.1 9.7 40.4 35.3 40.4 35.3z"/><path class="e" d="m72.8 40.9c-1.7 9.3-47.4-11.9-40-10.6 14.3 2.5 40 10.6 40 10.6z"/><path class="t" d="m386 52q0 0.8-0.1 1.6 0 0 0 0.1-0.3 2.2-1.1 4.7 0 0.1 0 0.1c-3.7 10.7-14.4 25.6-20.8 34q-0.1 0.2-0.2 0.3c-1.6 2-2.9 3.6-3.7 4.7q-0.1 0-0.1 0c-0.7 0.9-1.1 1.4-1.1 1.4h-2.2-0.7q0 0 0 0h-7.5c-10.1-13.5-19.1-37.7-19.2-47.4q-0.1-1.5 0.2-2.5c0.5-1.6 2.2-5.1 4.6-9.6 7.8-14.7 23.2-39.6 26.5-39.2 2 0.2 13.1 18.7 20 34.2 3.1 7.2 5.3 13.7 5.4 17.6z"/><path class="u" d="m386 52q0 0.8-0.1 1.6 0 0 0 0.1-0.3 2.2-1.1 4.7 0 0.1 0 0.1c-3.7 10.7-14.4 25.6-20.8 34q-0.1 0.2-0.2 0.3c-1.6 2-2.9 3.6-3.7 4.7q-0.1 0-0.1 0c-0.7 0.9-1.1 1.4-1.1 1.4h-2.2-0.7q0 0 0 0h-7.5c-10.1-13.5-19.1-37.7-19.2-47.4 3.5 11.6 11 16.1 18.6 17.5 3.1 0.6 6.2 0.6 9.1 0.3q0.1 0 0.1 0 0.8-0.1 1.6-0.2 0.6 0 1.2-0.1c5.3-0.9 9-2.4 9-2.4 0 0 8.8-5.9 10.7-13.7 0.7-3.2-0.1-10.1-3-19.2-3-9.3-8.2-21-16-33.5 2 0.2 13.1 18.7 20 34.2 3.1 7.2 5.3 13.7 5.4 17.6z"/><path class="v" d="m351.6 50.2c-4.7 18.7 4.4 48.7 4.4 48.7 0 0-0.8-27.6 3.1-41.7 4-14.2-6-12.8-7.5-7z"/><path class="e" d="m360.3 51.4c-5 16.8-4.3 47.5-4.3 47.5z"/><path class="e" d="m335.3 37.1c6.8 4.8 22.2-33.2 17.5-28.4-3.6 3.6-17.5 28.4-17.5 28.4z"/><path class="w" d="m385.9 53.6q0 0 0 0.1c-0.1 1.4-0.5 3-1.1 4.7q0 0.1 0 0.1c-3.7 10.1-14.8 26-20.8 34q-0.1 0.2-0.2 0.3c-2 2.6-3.4 4.3-3.7 4.7q-0.1 0-0.1 0c-3.8 3.9-0.4-2.5 13.4-27.4 6-10.9 12.7-20.3 12.5-16.5z"/><path class="c" d="m364 92.5q-0.1 0.2-0.2 0.3c-2 2.6-3.4 4.3-3.7 4.7-0.1 0-1.4-18.5-0.2-28.5 2-16.6 4.5-31.1 8.1-33.2 3.2-1.8 6.3-2.2 8.6-2.1 2.4 0.1 4 0.7 4 0.7 3.1 7.2 5.3 13.7 5.4 17.6q0 0.8-0.1 1.6 0 0 0 0.1c-0.1 1.4-0.5 3-1.1 4.7q0 0.1 0 0.1c-3.7 10.7-14.4 25.6-20.8 34z"/><path class="x" d="m413.5 142.8q-0.8 0-1.7-0.1-0.1 0-0.1 0-1.9-0.2-4.2-0.9l-0.1-0.1c-10.7-3.3-25.7-13.9-34.2-20.4q-0.1-0.1-0.3-0.2c-2.1-1.6-3.8-2.9-4.9-3.8q0 0 0 0c-0.9-0.7-1.4-1.1-1.4-1.1v-2.6-0.3l-0.1-7.5c13.4-10.1 37.5-19.3 47.1-19.5q1.5 0 2.5 0.2c1.6 0.5 5.2 2.2 9.6 4.5 3.3 1.7 7 3.7 10.8 6 13.7 7.8 28.8 17.6 28.5 20.1-0.3 3-39 25.4-51.5 25.7z"/><path class="y" d="m413.5 142.8q-0.8 0-1.7-0.1-0.1 0-0.1 0-1.9-0.2-4.2-0.9l-0.1-0.1c-10.7-3.3-25.7-13.9-34.2-20.4q-0.1-0.1-0.3-0.2c-2.1-1.6-3.8-2.9-4.9-3.8q0 0 0 0c-0.9-0.7-1.4-1.1-1.4-1.1v-2.6-0.3l-0.1-7.5c13.4-10.1 37.5-19.3 47.1-19.5-11.5 3.6-16 11.1-17.3 18.6-0.4 2.4-0.5 4.7-0.4 7q0.1 1.1 0.2 2.2 0 0 0 0.1 0.1 0.8 0.2 1.6c0.8 5.8 2.6 10.1 2.6 10.1 0 0 5.9 8.8 13.7 10.5 6.5 1.5 27.8-3.6 52.4-19.3-0.3 3-39 25.4-51.5 25.7z"/><path class="z" d="m419.5 111.8c-18.4-16.4-52.9 1.5-52.9 1.5 0 0 27.5-1 41.6 2.8 14.1 3.8 13.5-2.3 11.3-4.3z"/><path class="e" d="m413.9 117.2c-16.7-4.8-47.3-3.9-47.3-3.9z"/><path class="e" d="m456.5 109.5c-3.3 2.9-18.3-2.7-26.7-8.8-4.2-3.1-6.7-6.3-5.1-8.6l1-1.1 10.8 6z"/><path class="A" d="m395.4 130.4c-24.9-13.6-31.3-16.9-27.4-13.1 1.6 1.5 32.4 24.9 44 25.5 3.8 0.1-5.7-6.5-16.6-12.4z"/><path class="c" d="m436.5 97q-0.3 0-0.5 0.2c-2.2 0.8-4.3 2.1-6.2 3.5-6 4.7-10.3 11.1-10.3 11.1 0 0-5.8-3.6-19.1-3.3-17.8 0.3-23.2 3.4-31.7 4.7q0 0 0 0-0.1 0.1-0.1 0.1-0.4 0-0.8 0.1 0 0 0 0-0.6 0.1-1.2 0.2v-0.3l-0.1-7.5c13.4-10.1 37.5-19.3 47.1-19.5q1.5 0 2.5 0.2c1.6 0.5 5.2 2.2 9.6 4.5 3.3 1.7 7 3.7 10.8 6z"/><path class="B" d="m425.4 91.3c-10.7 11.6-58.4 17-58.4 17l-8.5-8.1c2.3-18.7 13.8-45.5 21.2-53.5q1.2-1.2 2.2-1.8c7.1-4.1 60.1-19.3 63.2-15.5 2.2 2.6-10.1 51.5-19.7 61.9z"/><path class="C" d="m425.4 91.3c-10.7 11.6-58.4 17-58.4 17l-8.5-8.1c2.3-18.7 13.8-45.5 21.2-53.5-14.7 29.2 20.5 43.2 20.5 43.2 0 0 7.5 2.2 18.3-5.2 6.2-4.2 19.9-23.1 26.6-55.3 2.2 2.6-10.1 51.5-19.7 61.9z"/><path class="D" d="m405.1 64.6c-24.6 6.7-40.5 41.5-40.5 41.5 0 0 20.8-23.1 35-31.5 14.2-8.5 8.8-10.9 5.5-10z"/><path class="e" d="m405 70.8c-17.1 9.7-40.4 35.3-40.4 35.3z"/><path class="e" d="m392.2 40.9c1.7 9.3 47.4-11.9 40-10.6-14.3 2.5-40 10.6-40 10.6z"/><path class="E" d="m79 428.2q0-0.8 0.1-1.6 0-0.1 0-0.2 0.3-2.1 1.1-4.6 0-0.1 0-0.1c3.7-10.7 14.4-25.6 20.8-34q0.1-0.2 0.2-0.3c1.6-2 2.9-3.7 3.7-4.7q0.1 0 0.1 0c0.7-0.9 1.1-1.4 1.1-1.4h2.2 0.7q0 0 0 0h7.5c10.1 13.4 19.1 37.7 19.2 47.4q0.1 1.5-0.2 2.5c-0.5 1.6-2.2 5.1-4.6 9.6-7.8 14.7-23.2 39.6-26.5 39.2-2-0.2-13.1-18.7-20-34.3-3.1-7.1-5.3-13.6-5.4-17.5z"/><path class="F" d="m79 428.2q0-0.8 0.1-1.6 0-0.1 0-0.2 0.3-2.1 1.1-4.6 0-0.1 0-0.1c3.7-10.7 14.4-25.6 20.8-34q0.1-0.2 0.2-0.3c1.6-2 2.9-3.7 3.7-4.7q0.1 0 0.1 0c0.7-0.9 1.1-1.4 1.1-1.4h2.2 0.7q0 0 0 0h7.5c10.1 13.4 19.1 37.7 19.2 47.4-3.5-11.6-11-16.2-18.6-17.5-3.1-0.6-6.2-0.6-9.1-0.3q-0.1 0-0.1 0-0.8 0-1.6 0.1-0.6 0.1-1.2 0.2c-5.3 0.8-9 2.4-9 2.4 0 0-8.8 5.9-10.7 13.7-0.7 3.2 0.1 10.1 3 19.2 3 9.3 8.2 21 16 33.5-2-0.2-13.1-18.7-20-34.3-3.1-7.1-5.3-13.6-5.4-17.5z"/><path class="G" d="m113.4 430c4.7-18.7-4.4-48.7-4.4-48.7 0 0 0.8 27.6-3.1 41.7-4 14.2 6 12.8 7.5 7z"/><path class="e" d="m104.7 428.7c5-16.7 4.3-47.4 4.3-47.4z"/><path class="e" d="m129.7 443.1c-6.8-4.9-22.2 33.2-17.5 28.4 3.6-3.6 17.5-28.4 17.5-28.4z"/><path class="H" d="m79.1 426.6q0-0.1 0-0.2c0.1-1.3 0.5-2.9 1.1-4.6q0-0.1 0-0.1c3.7-10.1 14.8-26 20.8-34q0.1-0.2 0.2-0.3c2-2.6 3.4-4.3 3.7-4.7q0.1 0 0.1 0c3.8-3.9 0.4 2.5-13.4 27.3-6 11-12.7 20.4-12.5 16.6z"/><path class="c" d="m101 387.7q0.1-0.2 0.2-0.3c2-2.6 3.4-4.3 3.7-4.7 0.1 0 1.4 18.5 0.2 28.5-2 16.5-4.5 31.1-8.1 33.2-3.2 1.8-6.3 2.2-8.6 2.1-2.4-0.1-4-0.8-4-0.8-3.1-7.1-5.3-13.6-5.4-17.5q0-0.8 0.1-1.6 0-0.1 0-0.2c0.1-1.3 0.5-2.9 1.1-4.6q0-0.1 0-0.1c3.7-10.7 14.4-25.6 20.8-34z"/><path class="I" d="m51.5 337.4q0.8-0.1 1.7 0 0.1 0 0.1 0 1.9 0.3 4.2 1h0.1c10.7 3.4 25.7 14 34.2 20.4q0.1 0.2 0.3 0.3c2.1 1.6 3.8 2.9 4.9 3.8q0 0 0 0c0.9 0.7 1.4 1.1 1.4 1.1v2.5 0.4l0.1 7.5c-13.4 10.1-37.5 19.3-47.1 19.5q-1.5 0-2.5-0.3c-1.6-0.4-5.2-2.1-9.6-4.4-3.3-1.7-7-3.8-10.8-6-13.7-7.8-28.8-17.6-28.5-20.2 0.3-3 39-25.3 51.5-25.6z"/><path class="J" d="m51.5 337.4q0.8-0.1 1.7 0 0.1 0 0.1 0 1.9 0.3 4.2 1h0.1c10.7 3.4 25.7 14 34.2 20.4q0.1 0.2 0.3 0.3c2.1 1.6 3.8 2.9 4.9 3.8q0 0 0 0c0.9 0.7 1.4 1.1 1.4 1.1v2.5 0.4l0.1 7.5c-13.4 10.1-37.5 19.3-47.1 19.5 11.5-3.6 16-11.2 17.3-18.7 0.4-2.3 0.5-4.7 0.4-6.9q-0.1-1.1-0.2-2.2 0-0.1 0-0.1-0.1-0.8-0.2-1.6c-0.8-5.8-2.6-10.1-2.6-10.1 0 0-5.9-8.8-13.7-10.6-6.5-1.4-27.8 3.7-52.4 19.3 0.3-3 39-25.3 51.5-25.6z"/><path class="K" d="m45.5 368.3c18.4 16.5 52.9-1.4 52.9-1.4 0 0-27.5 1-41.6-2.8-14.1-3.8-13.5 2.3-11.3 4.2z"/><path class="e" d="m51.1 363c16.7 4.8 47.3 3.9 47.3 3.9z"/><path class="e" d="m8.5 370.7c3.3-3 18.3 2.7 26.7 8.8 4.2 3.1 6.7 6.3 5.1 8.6l-1 1.1-10.8-6z"/><path class="L" d="m69.6 349.8c24.9 13.6 31.3 16.9 27.4 13.1-1.6-1.6-32.4-24.9-44-25.5-3.8-0.2 5.7 6.4 16.6 12.4z"/><path class="c" d="m28.5 383.2q0.3-0.1 0.5-0.2c2.2-0.8 4.3-2.1 6.2-3.5 6-4.7 10.3-11.2 10.3-11.2 0 0 5.8 3.7 19.1 3.4 17.8-0.3 23.2-3.4 31.7-4.8q0 0 0 0 0.1 0 0.1 0 0.4 0 0.8-0.1 0 0 0 0 0.6-0.1 1.2-0.3v0.4l0.1 7.5c-13.4 10.1-37.5 19.3-47.1 19.5q-1.5 0-2.5-0.3c-1.6-0.4-5.2-2.1-9.6-4.4-3.3-1.7-7-3.8-10.8-6z"/><path class="M" d="m39.6 388.9c10.7-11.6 58.4-17.1 58.4-17.1l8.5 8.2c-2.3 18.7-13.8 45.5-21.2 53.4q-1.2 1.3-2.2 1.9c-7.1 4.1-60.1 19.3-63.2 15.5-2.2-2.6 10.1-51.5 19.7-61.9z"/><path class="N" d="m39.6 388.9c10.7-11.6 58.4-17.1 58.4-17.1l8.5 8.2c-2.3 18.7-13.8 45.5-21.2 53.4 14.7-29.2-20.5-43.1-20.5-43.1 0 0-7.5-2.2-18.3 5.2-6.2 4.2-19.9 23.1-26.6 55.3-2.2-2.6 10.1-51.5 19.7-61.9z"/><path class="O" d="m59.9 415.6c24.6-6.7 40.5-41.5 40.5-41.5 0 0-20.8 23.1-35 31.5-14.2 8.4-8.8 10.9-5.5 10z"/><path class="e" d="m60 409.4c17.1-9.8 40.4-35.3 40.4-35.3z"/><path class="e" d="m72.8 439.2c-1.7-9.2-47.4 12-40 10.7 14.3-2.5 40-10.7 40-10.7z"/><path class="P" d="m386 428.2q0-0.8-0.1-1.6 0-0.1 0-0.2-0.3-2.1-1.1-4.6 0-0.1 0-0.1c-3.7-10.7-14.4-25.6-20.8-34q-0.1-0.2-0.2-0.3c-1.6-2-2.9-3.7-3.7-4.7q-0.1 0-0.1 0c-0.7-0.9-1.1-1.4-1.1-1.4h-2.2-0.7q0 0 0 0h-7.5c-10.1 13.4-19.1 37.7-19.2 47.4q-0.1 1.5 0.2 2.5c0.5 1.6 2.2 5.1 4.6 9.6 7.8 14.7 23.2 39.6 26.5 39.2 2-0.2 13.1-18.7 20-34.3 3.1-7.1 5.3-13.6 5.4-17.5z"/><path class="Q" d="m386 428.2q0-0.8-0.1-1.6 0-0.1 0-0.2-0.3-2.1-1.1-4.6 0-0.1 0-0.1c-3.7-10.7-14.4-25.6-20.8-34q-0.1-0.2-0.2-0.3c-1.6-2-2.9-3.7-3.7-4.7q-0.1 0-0.1 0c-0.7-0.9-1.1-1.4-1.1-1.4h-2.2-0.7q0 0 0 0h-7.5c-10.1 13.4-19.1 37.7-19.2 47.4 3.5-11.6 11-16.2 18.6-17.5 3.1-0.6 6.2-0.6 9.1-0.3q0.1 0 0.1 0 0.8 0 1.6 0.1 0.6 0.1 1.2 0.2c5.3 0.8 9 2.4 9 2.4 0 0 8.8 5.9 10.7 13.7 0.7 3.2-0.1 10.1-3 19.2-3 9.3-8.2 21-16 33.5 2-0.2 13.1-18.7 20-34.3 3.1-7.1 5.3-13.6 5.4-17.5z"/><path class="R" d="m351.6 430c-4.7-18.7 4.4-48.7 4.4-48.7 0 0-0.8 27.6 3.1 41.7 4 14.2-6 12.8-7.5 7z"/><path class="c" d="m360.3 428.7c-5-16.7-4.3-47.4-4.3-47.4z"/><path class="e" d="m335.3 443.1c6.8-4.9 22.2 33.2 17.5 28.4-3.6-3.6-17.5-28.4-17.5-28.4z"/><path class="S" d="m385.9 426.6q0-0.1 0-0.2c-0.1-1.3-0.5-2.9-1.1-4.6q0-0.1 0-0.1c-3.7-10.1-14.8-26-20.8-34q-0.1-0.2-0.2-0.3c-2-2.6-3.4-4.3-3.7-4.7q-0.1 0-0.1 0c-3.8-3.9-0.4 2.5 13.4 27.3 6 11 12.7 20.4 12.5 16.6z"/><path class="T" d="m364 387.7q-0.1-0.2-0.2-0.3c-2-2.6-3.4-4.3-3.7-4.7-0.1 0-1.4 18.5-0.2 28.5 2 16.5 4.5 31.1 8.1 33.2 3.2 1.8 6.3 2.2 8.6 2.1 2.4-0.1 4-0.8 4-0.8 3.1-7.1 5.3-13.6 5.4-17.5q0-0.8-0.1-1.6 0-0.1 0-0.2c-0.1-1.3-0.5-2.9-1.1-4.6q0-0.1 0-0.1c-3.7-10.7-14.4-25.6-20.8-34z"/><path class="U" d="m413.5 337.4q-0.8-0.1-1.7 0-0.1 0-0.1 0-1.9 0.3-4.2 1h-0.1c-10.7 3.4-25.7 14-34.2 20.4q-0.1 0.2-0.3 0.3c-2.1 1.6-3.8 2.9-4.9 3.8q0 0 0 0c-0.9 0.7-1.4 1.1-1.4 1.1v2.5 0.4l-0.1 7.5c13.4 10.1 37.5 19.3 47.1 19.5q1.5 0 2.5-0.3c1.6-0.4 5.2-2.1 9.6-4.4 3.3-1.7 7-3.8 10.8-6 13.7-7.8 28.8-17.6 28.5-20.2-0.3-3-39-25.3-51.5-25.6z"/><path class="V" d="m413.5 337.4q-0.8-0.1-1.7 0-0.1 0-0.1 0-1.9 0.3-4.2 1h-0.1c-10.7 3.4-25.7 14-34.2 20.4q-0.1 0.2-0.3 0.3c-2.1 1.6-3.8 2.9-4.9 3.8q0 0 0 0c-0.9 0.7-1.4 1.1-1.4 1.1v2.5 0.4l-0.1 7.5c13.4 10.1 37.5 19.3 47.1 19.5-11.5-3.6-16-11.2-17.3-18.7-0.4-2.3-0.5-4.7-0.4-6.9q0.1-1.1 0.2-2.2 0-0.1 0-0.1 0.1-0.8 0.2-1.6c0.8-5.8 2.6-10.1 2.6-10.1 0 0 5.9-8.8 13.7-10.6 6.5-1.4 27.8 3.7 52.4 19.3-0.3-3-39-25.3-51.5-25.6z"/><path class="W" d="m419.5 368.3c-18.4 16.5-52.9-1.4-52.9-1.4 0 0 27.5 1 41.6-2.8 14.1-3.8 13.5 2.3 11.3 4.2z"/><path class="e" d="m413.9 363c-16.7 4.8-47.3 3.9-47.3 3.9z"/><path class="e" d="m456.5 370.7c-3.3-3-18.3 2.7-26.7 8.8-4.2 3.1-6.7 6.3-5.1 8.6l1 1.1 10.8-6z"/><path class="X" d="m395.4 349.8c-24.9 13.6-31.3 16.9-27.4 13.1 1.6-1.6 32.4-24.9 44-25.5 3.8-0.2-5.7 6.4-16.6 12.4z"/><path class="c" d="m436.5 383.2q-0.3-0.1-0.5-0.2c-2.2-0.8-4.3-2.1-6.2-3.5-6-4.7-10.3-11.2-10.3-11.2 0 0-5.8 3.7-19.1 3.4-17.8-0.3-23.2-3.4-31.7-4.8q0 0 0 0-0.1 0-0.1 0-0.4 0-0.8-0.1 0 0 0 0-0.6-0.1-1.2-0.3v0.4l-0.1 7.5c13.4 10.1 37.5 19.3 47.1 19.5q1.5 0 2.5-0.3c1.6-0.4 5.2-2.1 9.6-4.4 3.3-1.7 7-3.8 10.8-6z"/><path class="Y" d="m425.4 388.9c-10.7-11.6-58.4-17.1-58.4-17.1l-8.5 8.2c2.3 18.7 13.8 45.5 21.2 53.4q1.2 1.3 2.2 1.9c7.1 4.1 60.1 19.3 63.2 15.5 2.2-2.6-10.1-51.5-19.7-61.9z"/><path class="Z" d="m425.4 388.9c-10.7-11.6-58.4-17.1-58.4-17.1l-8.5 8.2c2.3 18.7 13.8 45.5 21.2 53.4-14.7-29.2 20.5-43.1 20.5-43.1 0 0 7.5-2.2 18.3 5.2 6.2 4.2 19.9 23.1 26.6 55.3 2.2-2.6-10.1-51.5-19.7-61.9z"/><path class="a0" d="m405.1 415.6c-24.6-6.7-40.5-41.5-40.5-41.5 0 0 20.8 23.1 35 31.5 14.2 8.4 8.8 10.9 5.5 10z"/><path class="e" d="m405 409.4c-17.1-9.8-40.4-35.3-40.4-35.3z"/><path class="e" d="m392.2 439.2c1.7-9.2 47.4 12 40 10.7-14.3-2.5-40-10.7-40-10.7z"/><path fill-rule="evenodd" class="a1" d="m457.8 337.6c-1.9 4.5-59.7 20.8-82.7 27.2-6.5 7.5-13.7 14.5-21.3 20.9-5.8 21.1-23.2 83.2-27.9 85.1-5.7 2.4-80.1-38.7-84.5-41.2q-4.5 0.2-9.1 0.2-4.6 0-9.1-0.2c-4.3 2.5-78.7 43.6-84.4 41.2-4.8-1.9-22.2-64-27.9-85.1-7.7-6.4-14.8-13.4-21.4-20.9-23-6.4-80.8-22.7-82.7-27.2-0.4-1 0.2-9.2 0-9.6-2-4.7 25.3-55.5 36.6-76.1 0-0.3-1.2-11.4 0-22.8-11.3-20.6-36.8-69.2-36.6-76 0-0.5-0.4-8.6 0-9.6 1.9-4.6 59.7-20.9 82.7-27.2 6.6-7.6 13.7-14.6 21.4-21 5.7-21 23.1-83.1 27.9-85.1 5.7-2.4 80.1 38.8 84.4 41.2q4.5-0.2 9.1-0.2 4.6 0 9.1 0.2c4.4-2.4 78.8-43.6 84.5-41.2 4.7 2 22.1 64.1 27.9 85.1 7.6 6.4 14.8 13.4 21.3 21 23 6.3 80.8 22.6 82.7 27.2 0.4 1 0 9.1 0 9.6 0.2 5.2-25.3 55.4-36.5 76 0.8 11.4 0 22.5 0 22.8 11.2 20.6 38.5 71.4 36.5 76.1-0.1 0.4 0.4 8.6 0 9.6zm-82.8-97.1c0-78.9-63.8-142.6-142.7-142.6-78.9 0-142.7 63.7-142.7 142.6 0 78.9 63.8 142.7 142.7 142.7 78.9 0 142.7-63.8 142.7-142.7z"/><path class="a2" d="m199.6 427.1q1 0.2 2.1 0.4c-5.7 4.1-11.7 7.5-17.5 10.4q-0.1 0-0.1 0.1c-3.3 1.6-6.6 3.1-9.8 4.4q-0.1 0-0.3 0.1c-15.1 6.2-27.2 8.6-27.9 8.7q0 0 0 0 0 0 0 0c-7.9-15.2-12.8-30.4-15.8-42.3q0 0 0-0.1 0-0.2-0.1-0.5c-0.9-3.5-1.6-6.8-2.2-9.6q0.8 0.5 1.5 1 1.3 0.8 2.5 1.5 1 0.7 2.1 1.3c19.1 11.7 40.6 20 63.4 24.3z"/><path class="a3" d="m198.8 427c-10.1 6.6-29.5 17.6-51.1 20.8 0 0-9.1-14.2-15.7-46.6q1 0.7 2.1 1.3c19.1 11.7 40.6 20 63.4 24.3z"/><path class="a4" d="m199.6 427.1c-3.1 2.8-8.6 7.2-15.4 10.8q-0.1 0-0.1 0.1c-2.8 1.4-6.1 2.9-9.8 4.4q-0.1 0-0.3 0.1c-8 3.2-17.8 6.2-27.9 8.7q0 0 0 0 0 0 0 0c-0.6-1-9.6-17.4-15.8-42.3q0 0 0-0.1 0-0.2-0.1-0.5c-0.6-2.6-0.7-5.7-0.7-8.6q1.3 0.8 2.5 1.5 1 0.7 2.1 1.3c3.6 9.4 9.5 22.4 17 31.2 0 0 21.5 3.7 46.4-6.9z"/><path class="a5" d="m336.6 398.7c-0.6 2.8-1.3 6.1-2.2 9.6q0 0.3-0.1 0.5 0 0.1 0 0.1c-3 11.9-7.9 27.1-15.7 42.3q-0.1 0-0.1 0 0 0 0 0c-0.6-0.1-12.8-2.5-28-8.7q-0.1-0.1-0.2-0.1c-3.2-1.3-6.5-2.8-9.9-4.5-5.8-2.9-11.7-6.3-17.4-10.4q1-0.2 2-0.4l2.1-0.3c22.9-4.3 44.3-12.6 63.5-24.3q1-0.6 2-1.3 1.3-0.7 2.5-1.5 0.8-0.5 1.5-1z"/><path class="a6" d="m332.6 401.2c-6.6 32.4-15.6 46.6-15.6 46.6-21.7-3.2-41.1-14.2-51.1-20.8q0 0 0 0l1.2-0.2c22.9-4.3 44.3-12.6 63.5-24.3q1-0.6 2-1.3z"/><path class="a7" d="m334.4 408.3q0 0.3-0.1 0.5 0 0.1 0 0.1c-6.2 24.9-15.2 41.3-15.7 42.3q-0.1 0-0.1 0 0 0 0 0c-10.1-2.5-19.9-5.5-28-8.7q-0.1-0.1-0.2-0.1c-3.7-1.5-7-3-9.8-4.4q0-0.1-0.1-0.1c-6.8-3.6-12.3-8-15.4-10.8l2.1-0.3c24.9 10.6 46.5 6.9 46.5 6.9 7.5-8.8 13.4-21.8 17-31.2q1-0.6 2-1.3 1.3-0.7 2.5-1.5c0.1 2.9-0.1 6-0.7 8.6z"/><path class="a8" d="m199.6 54.1q1-0.2 2.1-0.3c-5.7-4.1-11.7-7.6-17.5-10.5q-0.1 0-0.1 0c-3.3-1.6-6.6-3.1-9.8-4.4q-0.1-0.1-0.3-0.1c-15.1-6.2-27.2-8.6-27.9-8.7q0 0 0 0 0 0 0 0c-7.9 15.2-12.8 30.4-15.8 42.2q0 0.1 0 0.2 0 0.2-0.1 0.4c-0.9 3.6-1.6 6.8-2.2 9.7q0.8-0.5 1.5-1 1.3-0.8 2.5-1.6 1-0.6 2.1-1.3c19.1-11.6 40.6-20 63.4-24.2z"/><path class="a9" d="m198.8 54.3c-10.1-6.6-29.5-17.6-51.1-20.8 0 0-9.1 14.1-15.7 46.5q1-0.6 2.1-1.3c19.1-11.6 40.6-20 63.4-24.2z"/><path class="aa" d="m199.6 54.1c-3.1-2.7-8.6-7.1-15.4-10.8q-0.1 0-0.1 0c-2.8-1.5-6.1-3-9.8-4.4q-0.1-0.1-0.3-0.1c-8-3.2-17.8-6.3-27.9-8.7q0 0 0 0 0 0 0 0c-0.6 1-9.6 17.3-15.8 42.2q0 0.1 0 0.2 0 0.2-0.1 0.4c-0.6 2.6-0.7 5.8-0.7 8.7q1.3-0.8 2.5-1.6 1-0.6 2.1-1.3c3.6-9.3 9.5-22.4 17-31.1 0 0 21.5-3.7 46.4 6.9z"/><path class="e" d="m179.7 28.1c-18.8-6.9-38.8-13.2-38.8-13.2-6.2 9.4-19.3 43.3-20 44.9 7-23.6 14.9-48.3 17.9-49.6 2.7-1.2 21.7 7.9 40.9 17.9q0 0 0 0z"/><path class="ab" d="m265 54.1q-1-0.2-2-0.3c5.7-4.1 11.7-7.6 17.5-10.5q0.1 0 0.1 0c3.3-1.6 6.6-3.1 9.8-4.4q0.1-0.1 0.2-0.1c15.2-6.2 27.3-8.6 28-8.7q0 0 0 0 0 0 0 0c7.8 15.2 12.7 30.4 15.7 42.2q0.1 0.1 0.1 0.2 0 0.2 0.1 0.4c0.9 3.6 1.6 6.8 2.2 9.7q-0.8-0.5-1.5-1-1.3-0.8-2.5-1.6-1-0.6-2.1-1.3c-19.2-11.6-40.6-20-63.4-24.2z"/><path class="ac" d="m265.9 54.3c10.1-6.6 29.5-17.6 51.1-20.8 0 0 9.1 14.1 15.7 46.5q-1-0.6-2.1-1.3c-19.2-11.6-40.6-20-63.4-24.2z"/><path class="ad" d="m265 54.1c3.2-2.7 8.7-7.1 15.5-10.8q0.1 0 0.1 0c2.8-1.5 6.1-3 9.8-4.4q0.1-0.1 0.2-0.1c8.1-3.2 17.9-6.3 28-8.7q0 0 0 0 0 0 0 0c0.6 1 9.6 17.3 15.7 42.2q0.1 0.1 0.1 0.2 0 0.2 0.1 0.4c0.6 2.6 0.7 5.8 0.7 8.7q-1.3-0.8-2.5-1.6-1-0.6-2.1-1.3c-3.6-9.3-9.5-22.4-17-31.1 0 0-21.6-3.7-46.4 6.9z"/><path class="e" d="m285 28.1c18.8-6.9 38.8-13.2 38.8-13.2 6.1 9.4 19.3 43.3 19.9 44.9-6.9-23.6-14.8-48.3-17.8-49.6-2.7-1.2-21.7 7.9-40.9 17.9q0 0 0 0z"/><path class="ae" d="m386.5 131q-0.5-0.9-1.1-1.7c6.9 1.1 13.5 2.9 19.7 5q0 0 0.1 0c3.5 1.2 6.9 2.5 10 3.8q0.2 0 0.3 0.1c15.1 6.3 25.4 13.2 25.9 13.5q0 0.1 0 0.1 0 0 0 0c-5.1 16.3-12.4 30.5-18.6 41q-0.1 0.1-0.1 0.1-0.1 0.2-0.3 0.4c-1.8 3.2-3.6 6-5.2 8.4q-0.2-0.9-0.4-1.7-0.3-1.5-0.6-2.9-0.3-1.2-0.6-2.4c-5.4-21.8-14.6-42.8-27.8-61.9z"/><path class="af" d="m387.1 131.7c11.8 2.4 33.2 8.4 50.8 21.4 0 0-3.6 16.4-21.7 44q-0.3-1.2-0.6-2.4c-5.4-21.8-14.6-42.8-27.8-61.9z"/><path class="ag" d="m386.5 131c4.2 0.2 11.2 1 18.6 3.3q0 0 0.1 0c3 0.9 6.4 2.2 10 3.8q0.2 0 0.3 0.1c7.9 3.4 17 8.2 25.9 13.5q0 0.1 0 0.1 0 0 0 0c-0.3 1.1-5.4 19-18.6 41q-0.1 0.1-0.1 0.1-0.1 0.2-0.3 0.4c-1.4 2.3-3.5 4.6-5.6 6.7q-0.3-1.5-0.6-2.9-0.3-1.2-0.6-2.4c4-9.1 9.1-22.6 10-34 0 0-12.7-17.9-37.8-27.9z"/><path class="e" d="m418.3 128.7c17 7.7 34.3 16.5 34.3 16.5-2.1 10.2-15.3 41.1-15.9 42.6 10.7-20.1 21.5-41.6 20.3-44.4-1-2.5-19.5-8.8-38.7-14.7q0 0 0 0z"/><path class="ah" d="m386.5 349.9q-0.5 0.8-1.1 1.7c6.9-1.1 13.5-2.9 19.7-5q0 0 0.1 0c3.5-1.2 6.9-2.5 10-3.8q0.2 0 0.3-0.1c15.1-6.3 25.4-13.2 25.9-13.6q0 0 0 0 0 0 0 0c-5.1-16.3-12.4-30.5-18.6-41q-0.1-0.1-0.1-0.1-0.1-0.2-0.3-0.4c-1.8-3.2-3.6-6-5.2-8.4q-0.2 0.9-0.4 1.7-0.3 1.5-0.6 2.9-0.3 1.2-0.6 2.4c-5.4 21.8-14.6 42.8-27.8 61.9z"/><path class="ai" d="m387.1 349.2c11.8-2.4 33.2-8.4 50.8-21.4 0 0-3.6-16.4-21.7-44q-0.3 1.2-0.6 2.4c-5.4 21.8-14.6 42.8-27.8 61.9z"/><path class="aj" d="m386.5 349.9c4.2-0.3 11.2-1 18.6-3.3q0 0 0.1 0c3-0.9 6.4-2.2 10-3.8q0.2 0 0.3-0.1c7.9-3.4 17-8.2 25.9-13.6q0 0 0 0 0 0 0 0c-0.3-1.1-5.4-19-18.6-41q-0.1-0.1-0.1-0.1-0.1-0.2-0.3-0.4c-1.4-2.3-3.5-4.6-5.6-6.7q-0.3 1.5-0.6 2.9-0.3 1.2-0.6 2.4c4 9.1 9.1 22.5 10 34 0 0-12.7 17.9-37.8 27.9z"/><path class="e" d="m418.3 352.2c17-7.7 34.3-16.5 34.3-16.5-2.1-10.2-15.3-41.1-15.9-42.6 10.7 20.1 21.5 41.6 20.3 44.4-1 2.5-19.5 8.8-38.7 14.7q0 0 0 0z"/><path class="ak" d="m77.2 131q0.6-0.9 1.2-1.7c-6.9 1.1-13.6 2.9-19.7 5q-0.1 0-0.1 0c-3.6 1.2-6.9 2.5-10.1 3.8q-0.1 0-0.3 0.1c-15 6.3-25.3 13.2-25.9 13.5q0 0.1 0 0.1 0 0 0 0c5.2 16.3 12.4 30.5 18.7 41q0 0.1 0.1 0.1 0.1 0.2 0.2 0.4c1.9 3.2 3.7 6 5.3 8.4q0.2-0.9 0.4-1.7 0.3-1.5 0.6-2.9 0.3-1.2 0.6-2.4c5.3-21.8 14.6-42.8 27.8-61.9z"/><path class="al" d="m76.7 131.7c-11.8 2.4-33.3 8.4-50.9 21.4 0 0 3.6 16.4 21.8 44q0.3-1.2 0.6-2.4c5.3-21.8 14.6-42.8 27.8-61.9z"/><path class="am" d="m77.2 131c-4.2 0.2-11.1 1-18.5 3.3q-0.1 0-0.1 0c-3 0.9-6.4 2.2-10.1 3.8q-0.1 0-0.3 0.1c-7.9 3.4-17 8.2-25.9 13.5q0 0.1 0 0.1 0 0 0 0c0.3 1.1 5.5 19 18.7 41q0 0.1 0.1 0.1 0.1 0.2 0.2 0.4c1.5 2.3 3.6 4.6 5.7 6.7q0.3-1.5 0.6-2.9 0.3-1.2 0.6-2.4c-4.1-9.1-9.2-22.6-10-34 0 0 12.7-17.9 37.8-27.9z"/><path class="e" d="m45.4 128.7c-17 7.7-34.3 16.5-34.3 16.5 2.1 10.2 15.3 41.1 16 42.6-10.7-20.1-21.6-41.6-20.4-44.4 1.1-2.5 19.5-8.8 38.7-14.7q0 0 0 0z"/><path class="an" d="m77.2 349.9q0.6 0.8 1.2 1.7c-6.9-1.1-13.6-2.9-19.7-5q-0.1 0-0.1 0c-3.6-1.2-6.9-2.5-10.1-3.8q-0.1 0-0.3-0.1c-15-6.3-25.3-13.2-25.9-13.6q0 0 0 0 0 0 0 0c5.2-16.3 12.4-30.5 18.7-41q0-0.1 0.1-0.1 0.1-0.2 0.2-0.4c1.9-3.2 3.7-6 5.3-8.4q0.2 0.9 0.4 1.7 0.3 1.5 0.6 2.9 0.3 1.2 0.6 2.4c5.3 21.8 14.6 42.8 27.8 61.9z"/><path class="ao" d="m76.7 349.2c-11.8-2.4-33.3-8.4-50.9-21.4 0 0 3.6-16.4 21.8-44q0.3 1.2 0.6 2.4c5.3 21.8 14.6 42.8 27.8 61.9z"/><path class="ap" d="m77.2 349.9c-4.2-0.3-11.1-1-18.5-3.3q-0.1 0-0.1 0c-3-0.9-6.4-2.2-10.1-3.8q-0.1 0-0.3-0.1c-7.9-3.4-17-8.2-25.9-13.6q0 0 0 0 0 0 0 0c0.3-1.1 5.5-19 18.7-41q0-0.1 0.1-0.1 0.1-0.2 0.2-0.4c1.5-2.3 3.6-4.6 5.7-6.7q0.3 1.5 0.6 2.9 0.3 1.2 0.6 2.4c-4.1 9.1-9.2 22.5-10 34 0 0 12.7 17.9 37.8 27.9z"/><path class="e" d="m45.4 352.2c-17-7.7-34.3-16.5-34.3-16.5 2.1-10.2 15.3-41.1 16-42.6-10.7 20.1-21.6 41.6-20.4 44.4 1.1 2.5 19.5 8.8 38.7 14.7q0 0 0 0z"/><path class="c" d="m408.3 310.2c-27.7 70-96.1 119.6-176 119.6-75.6 0-140.8-44.3-171.1-108.4 69.7 64.3 211.6 124.3 347.1-11.2z"/><path class="c" d="m397.1 358.6c-8.5 2.5-16.3 4.6-22 6.2-6.5 7.5-13.7 14.5-21.3 20.9-1.7 6.1-4.3 15.4-7.3 25.8-22.1 15.8-47.9 28.4-73.4 35.3-16-8.5-29.9-16.2-31.7-17.2q-4.5 0.2-9.1 0.2-4.6 0-9.1-0.2c-1.8 1.1-16.1 8.9-32.4 17.6-25.6-6.5-50.9-18.5-72.3-34.2-3.1-11-5.9-21-7.6-27.3-7.7-6.4-14.8-13.4-21.4-20.9-4.7-1.3-11-3-17.9-5-6.1-12.2-9.8-25.1-10.4-38.4 50.2 83.1 218.9 182.1 347.1-11.2 2.5 15.9-2 32.4-11.2 48.4z"/><path class="e" d="m232.3 51.2c-85.6 0-158 56.9-181.3 135 30.9-68.5 101.3-101.5 181.3-101.5 87.3 0 160 42 186 120.6-16.5-87.7-93.5-154.1-186-154.1z"/><path fill-rule="evenodd" class="aq" d="m232.3 396.2c-86.1 0-155.7-69.6-155.7-155.7 0-86.1 69.6-155.8 155.7-155.8 86.2 0 155.8 69.7 155.8 155.8 0 86.1-69.6 155.7-155.8 155.7zm142.7-155.7c0-78.9-63.8-142.7-142.7-142.7-78.9 0-142.7 63.8-142.7 142.7 0 78.9 63.8 142.7 142.7 142.7 78.9 0 142.7-63.8 142.7-142.7z"/><path class="e" d="m106.9 332.9c0 0 41.8 50.3 125.4 50.3 83.6 0 125.4-50.3 125.4-50.3 0 0-40.7 65.6-125.4 65.6-84.6 0-125.4-65.6-125.4-65.6z"/><path class="ar" d="m106.9 332.9c0 0 41.8 63.3 125.4 63.3 83.7 0 125.4-63.3 125.4-63.3 0 0-40.7 65.6-125.4 65.6-84.6 0-125.4-65.6-125.4-65.6z"/><path class="as" d="m382.2 198.1c-3.6-2.1-9.3-5.5-17.5-11.1 0 0-52.1-44.5-131.9-44.5-87.8 0-134.7 49.4-134.7 49.4-7.5 7.9-14.2 14.2-18.3 17 14.6-70.9 77.3-124.2 152.5-124.2 71.4 0 131.5 48 149.9 113.4z"/><path class="at" d="m232.3 69.3c-6.2 8 43.2 21.1 49.2 15.4 5.9-5.6 0.3-14-10.8-15.4-11.2-1.4-33.5-6.2-38.4 0z"/><path class="at" d="m221.3 398.1c-3.6-6.6 35.3-13.4 40.8-8.5 5.5 4.9-4.3 6.8-4.3 6.8z"/><path class="au" d="m198.2 421c-3.1 11.7-20 17.4-37.8 12.7-17.7-4.6-29.6-17.9-26.5-29.6 3.1-11.8 20-17.4 37.7-12.8 17.8 4.7 29.7 18 26.6 29.7z"/><path class="av" d="m457.8 337.6q-0.1 0.3-0.5 0.6-0.1-0.3-0.3-0.7c-7.6-28.1-36.5-73.4-36.5-73.4l0.8-12.2c11.2 20.6 38.5 71.4 36.5 76.1-0.1 0.4 0.4 8.6 0 9.6z"/><path class="aw" d="m43.4 251.9v14.1c0 0-22.4 32.1-36.7 71.4-0.3-1.6 0.3-9 0.1-9.4-2-4.7 25.3-55.5 36.6-76.1z"/></svg>